{
.appVersion = "3310";
copyright = "Copyright 2010 Google Inc. All Rights Reserved.";
customParameters = (
{
name = glyphOrder;
value = (
.notdef,
null,
nonmarkingreturn,
space,
exclam,
quotedbl,
numbersign,
dollar,
percent,
ampersand,
quotesingle,
parenleft,
parenright,
asterisk,
plus,
comma,
hyphen,
period,
slash,
zero,
one,
two,
three,
four,
five,
six,
seven,
eight,
nine,
colon,
semicolon,
less,
equal,
greater,
question,
at,
A,
B,
C,
D,
E,
F,
G,
H,
I,
J,
K,
L,
M,
N,
O,
P,
Q,
R,
S,
T,
U,
V,
W,
X,
Y,
Z,
bracketleft,
backslash,
bracketright,
asciicircum,
underscore,
grave,
a,
b,
c,
d,
e,
f,
g,
h,
i,
j,
k,
l,
m,
n,
o,
p,
q,
r,
s,
t,
u,
v,
w,
x,
y,
z,
braceleft,
bar,
braceright,
asciitilde,
Adieresis,
Aring,
Ccedilla,
Eacute,
Ntilde,
Odieresis,
Udieresis,
aacute,
agrave,
acircumflex,
adieresis,
atilde,
aring,
ccedilla,
eacute,
egrave,
ecircumflex,
edieresis,
iacute,
igrave,
icircumflex,
idieresis,
ntilde,
oacute,
ograve,
ocircumflex,
odieresis,
otilde,
uacute,
ugrave,
ucircumflex,
udieresis,
dagger,
degree,
cent,
sterling,
section,
bullet,
paragraph,
germandbls,
registered,
copyright,
trademark,
acute,
dieresis,
notequal,
AE,
Oslash,
infinity,
plusminus,
lessequal,
greaterequal,
yen,
uni00B5,
partialdiff,
summation,
product,
integral,
ordfeminine,
ordmasculine,
uni2126,
ae,
oslash,
questiondown,
exclamdown,
logicalnot,
radical,
florin,
approxequal,
uni2206,
guillemotleft,
guillemotright,
ellipsis,
Agrave,
Atilde,
Otilde,
OE,
oe,
endash,
emdash,
quotedblleft,
quotedblright,
quoteleft,
quoteright,
divide,
lozenge,
ydieresis,
Ydieresis,
fraction,
Euro,
guilsinglleft,
guilsinglright,
uniFB01,
uniFB02,
daggerdbl,
periodcentered,
quotesinglbase,
quotedblbase,
perthousand,
Acircumflex,
Ecircumflex,
Aacute,
Edieresis,
Egrave,
Iacute,
Icircumflex,
Idieresis,
Igrave,
Oacute,
Ocircumflex,
Ograve,
Uacute,
Ucircumflex,
Ugrave,
dotlessi,
circumflex,
tilde,
uni02C9,
breve,
dotaccent,
ring,
cedilla,
hungarumlaut,
ogonek,
caron,
Lslash,
lslash,
Scaron,
scaron,
Zcaron,
zcaron,

glyphs = (
{
glyphname = .notdef;
lastChange = "2025-02-05 21:33:01 +0000";
layers = (
{
layerId = "10338F47-40ED-49C2-8613-307B859987A6";
paths = (
{
closed = 1;
nodes = (
"234 0 LINE",
"1359 0 LINE",
"1359 1409 LINE",
"234 1409 LINE"
);
},
{
closed = 1;
nodes = (
"1283 1333 LINE",
"1283 76 LINE",
"310 76 LINE",
"310 1333 LINE"
);
}
);
width = 1593;
}
);
note = .notdef;
},
{
glyphname = exclam;
lastChange = "2025-02-05 21:33:01 +0000";
layers = (
{
layerId = "10338F47-40ED-49C2-8613-307B859987A6";
paths = (
{
closed = 1;
nodes = (
"400 160 OFFCURVE",
"347 213 OFFCURVE",
"279 213 CURVE SMOOTH",
"211 213 OFFCURVE",
"158 160 OFFCURVE",
"158 92 CURVE SMOOTH",
"158 26.667 OFFCURVE",
"209.667 -29 OFFCURVE",
"279 -29 CURVE SMOOTH",
"348.333 -29 OFFCURVE",
"400 26.667 OFFCURVE",
"400 92 CURVE SMOOTH"
);
},
{
closed = 1;
nodes = (
"269 389 LINE",
"363 389 LINE",
"592 1341 LINE",
"374 1341 LINE"
);
}
);
width = 682;
}
);
note = exclam;
unicode = 0021;
},
{
glyphname = quotedbl;
lastChange = "2025-02-05 21:33:01 +0000";
layers = (
{
layerId = "10338F47-40ED-49C2-8613-307B859987A6";
paths = (
{
closed = 1;
nodes = (
"646 860 LINE",
"720 860 LINE",
"867 1341 LINE",
"670 1341 LINE"
);
},
{
closed = 1;
nodes = (
"261 860 LINE",
"335 860 LINE",
"482 1341 LINE",
"285 1341 LINE"
);
}
);
width = 860;
}
);
note = quotedbl;
unicode = 0022;
},
{
glyphname = numbersign;
lastChange = "2025-02-05 21:33:01 +0000";
layers = (
{
layerId = "10338F47-40ED-49C2-8613-307B859987A6";
paths = (
{
closed = 1;
nodes = (
"745 524 LINE",
"856 831 LINE",
"1038 831 LINE",
"1056 934 LINE",
"892 934 LINE",
"1040 1341 LINE",
"936 1341 LINE",
"788 934 LINE",
"479 934 LINE",
"626 1341 LINE",
"522 1341 LINE",
"374 934 LINE",
"106 934 LINE",
"88 831 LINE",
"338 831 LINE",
"226 524 LINE",
"34 524 LINE",
"17 421 LINE",
"188 421 LINE",
"35 0 LINE",
"140 0 LINE",
"292 421 LINE",
"602 421 LINE",
"449 0 LINE",
"553 0 LINE",
"706 421 LINE",
"966 421 LINE",
"984 524 LINE"
);
},
{
closed = 1;
nodes = (
"442 831 LINE",
"751 831 LINE",
"640 524 LINE",
"331 524 LINE"
);
}
);
width = 1024;
}
);
note = numbersign;
unicode = 0023;
},
{
glyphname = dollar;
lastChange = "2025-02-05 21:33:01 +0000";
layers = (
{
layerId = "10338F47-40ED-49C2-8613-307B859987A6";
paths = (
{
closed = 1;
nodes = (
"24 73 LINE",
"118 13.667 OFFCURVE",
"240 -17.333 OFFCURVE",
"390 -20 CURVE",
"366 -156 LINE",
"448 -156 LINE",
"472 -18 LINE",
"782.667 0.667 OFFCURVE",
"940 154 OFFCURVE",
"940 414 CURVE SMOOTH",
"940 516.667 OFFCURVE",
"890.833 594.667 OFFCURVE",
"815.5 660 CURVE SMOOTH",
"777.833 692.667 OFFCURVE",
"710.667 735 OFFCURVE",
"614 787 CURVE",
"699 1270 LINE",
"773 1263.333 OFFCURVE",
"830.667 1243.333 OFFCURVE",
"872 1210 CURVE",
"877 1039 LINE",
"942 1039 LINE",
"991 1318 LINE",
"901.667 1340.667 OFFCURVE",
"809.333 1353 OFFCURVE",
"714 1355 CURVE",
"737 1483 LINE",
"655 1483 LINE",
"632 1355 LINE",
"349.333 1347 OFFCURVE",
"200 1220.667 OFFCURVE",
"200 990 CURVE SMOOTH",
"200 886 OFFCURVE",
"244.833 812.333 OFFCURVE",
"317.5 751 CURVE SMOOTH",
"353.833 720.333 OFFCURVE",
"416.667 682.667 OFFCURVE",
"506 638 CURVE",
"404 61 LINE",
"293.333 63.667 OFFCURVE",
"191.333 109.333 OFFCURVE",
"142 180 CURVE",
"141 371 LINE",
"76 371 LINE"
);
},
{
closed = 1;
nodes = (
"762 199 OFFCURVE",
"667 88.667 OFFCURVE",
"487 66 CURVE",
"582 601 LINE",
"704.478 538.922 OFFCURVE",
"762 482.084 OFFCURVE",
"762 379 CURVE SMOOTH"
);
},
{
closed = 1;
nodes = (
"375 1170.333 OFFCURVE",
"462.333 1258 OFFCURVE",
"617 1270 CURVE",
"538 823 LINE",
"420.667 884.333 OFFCURVE",
"375 943.667 OFFCURVE",
"375 1025 CURVE SMOOTH"
);
}
);
width = 1024;
}
);
note = dollar;
unicode = 0024;
},
{
glyphname = percent;
lastChange = "2025-02-05 21:33:01 +0000";
layers = (
{
layerId = "10338F47-40ED-49C2-8613-307B859987A6";
paths = (
{
closed = 1;
nodes = (
"1511 1362 LINE",
"1400 1362 LINE",
"208 -20 LINE",
"318 -20 LINE"
);
},
{
closed = 1;
nodes = (
"601.667 623 OFFCURVE",
"733.333 747 OFFCURVE",
"778 995 CURVE SMOOTH",
"785.333 1035.667 OFFCURVE",
"789 1071.667 OFFCURVE",
"789 1103 CURVE SMOOTH",
"789 1275.667 OFFCURVE",
"699 1362 OFFCURVE",
"519 1362 CURVE SMOOTH",
"343 1362 OFFCURVE",
"227.833 1284.833 OFFCURVE",
"164.5 1129.5 CURVE SMOOTH",
"132.833 1051.833 OFFCURVE",
"117 970.333 OFFCURVE",
"117 885 CURVE SMOOTH",
"117 710.333 OFFCURVE",
"205.667 623 OFFCURVE",
"383 623 CURVE SMOOTH"
);
},
{
closed = 1;
nodes = (
"635 998.667 OFFCURVE",
"593.333 820.833 OFFCURVE",
"524 749.5 CURVE SMOOTH",
"489.333 713.833 OFFCURVE",
"446.333 696 OFFCURVE",
"395 696 CURVE SMOOTH",
"301.667 696 OFFCURVE",
"267 752.667 OFFCURVE",
"267 854 CURVE SMOOTH",
"267 970 OFFCURVE",
"307.667 1163.167 OFFCURVE",
"373 1234.5 CURVE SMOOTH",
"405.667 1270.167 OFFCURVE",
"448 1288 OFFCURVE",
"500 1288 CURVE SMOOTH",
"597.333 1288 OFFCURVE",
"635 1230.667 OFFCURVE",
"635 1124 CURVE SMOOTH"
);
},
{
closed = 1;
nodes = (
"1361.333 -27 OFFCURVE",
"1475.833 51.667 OFFCURVE",
"1540.5 209 CURVE SMOOTH",
"1572.833 287.667 OFFCURVE",
"1589 369 OFFCURVE",
"1589 453 CURVE SMOOTH",
"1589 626.333 OFFCURVE",
"1499.333 713 OFFCURVE",
"1320 713 CURVE SMOOTH",
"1102 713 OFFCURVE",
"971.333 590.667 OFFCURVE",
"928 346 CURVE SMOOTH",
"920.667 302 OFFCURVE",
"917 264.667 OFFCURVE",
"917 234 CURVE SMOOTH",
"917 60 OFFCURVE",
"1006 -27 OFFCURVE",
"1184 -27 CURVE SMOOTH"
);
},
{
closed = 1;
nodes = (
"1437 350.333 OFFCURVE",
"1395.333 171.833 OFFCURVE",
"1326 100.5 CURVE SMOOTH",
"1291.333 64.833 OFFCURVE",
"1248.333 47 OFFCURVE",
"1197 47 CURVE SMOOTH",
"1103.667 47 OFFCURVE",
"1069 103.667 OFFCURVE",
"1069 205 CURVE SMOOTH",
"1069 318.333 OFFCURVE",
"1108.667 515.333 OFFCURVE",
"1174 586 CURVE SMOOTH",
"1206.667 621.333 OFFCURVE",
"1249 639 OFFCURVE",
"1301 639 CURVE SMOOTH",
"1398.333 639 OFFCURVE",
"1437 581 OFFCURVE",
"1437 473 CURVE SMOOTH"
);
}
);
width = 1706;
}
);
note = percent;
unicode = 0025;
},
{
glyphname = ampersand;
lastChange = "2025-02-05 21:32:52 +0000";
layers = (
{
layerId = "10338F47-40ED-49C2-8613-307B859987A6";
paths = (
{
closed = 1;
nodes = (
"1120 1253.682 OFFCURVE",
"989.806 1362 OFFCURVE",
"768 1362 CURVE SMOOTH",
"526.667 1362 OFFCURVE",
"381 1233 OFFCURVE",
"381 1037 CURVE SMOOTH",
"381 949 OFFCURVE",
"406.333 874.667 OFFCURVE",
"489 756 CURVE",
"279.667 681.333 OFFCURVE",
"179.167 608.167 OFFCURVE",
"126.5 507.5 CURVE SMOOTH",
"100.167 457.167 OFFCURVE",
"87 401.333 OFFCURVE",
"87 340 CURVE SMOOTH",
"87 108 OFFCURVE",
"253.333 -20 OFFCURVE",
"548 -20 CURVE SMOOTH",
"718.667 -20 OFFCURVE",
"849 21 OFFCURVE",
"1005 137 CURVE",
"1118 0 LINE",
"1462 0 LINE",
"1472 54 LINE",
"1310 78 LINE",
"1142 272 LINE",
"1254.667 393.333 OFFCURVE",
"1351.333 545 OFFCURVE",
"1432 727 CURVE",
"1576 754 LINE",
"1585 807 LINE",
"1128 807 LINE",
"1119 754 LINE",
"1256 727 LINE",
"1230.667 611.667 OFFCURVE",
"1169 488 OFFCURVE",
"1071 356 CURVE",
"727 758 LINE",
"847.667 801.333 OFFCURVE",
"930.5 837.167 OFFCURVE",
"975.5 865.5 CURVE SMOOTH",
"1065.5 922.167 OFFCURVE",
"1120 995.333 OFFCURVE",
"1120 1102 CURVE SMOOTH"
);
},
{
closed = 1;
nodes = (
"936 219 LINE",
"830.667 120.333 OFFCURVE",
"701.333 66 OFFCURVE",
"568 66 CURVE SMOOTH",
"389.333 66 OFFCURVE",
"285 171 OFFCURVE",
"285 343 CURVE SMOOTH",
"285 500.333 OFFCURVE",
"359.333 611 OFFCURVE",
"538 687 CURVE"
);
},
{
closed = 1;
nodes = (
"561 1200.333 OFFCURVE",
"628 1282 OFFCURVE",
"768 1282 CURVE SMOOTH",
"881.333 1282 OFFCURVE",
"953 1212.667 OFFCURVE",
"953 1090 CURVE SMOOTH",
"953 1006 OFFCURVE",
"917.333 949 OFFCURVE",
"852 905 CURVE SMOOTH",
"819.333 883 OFFCURVE",
"759.667 855.667 OFFCURVE",
"673 823 CURVE",
"605 911 OFFCURVE",
"561 987 OFFCURVE",
"561 1071 CURVE SMOOTH"
);
}
);
width = 1593;
}
);
note = ampersand;
unicode = 0026;
},
{
glyphname = quotesingle;
lastChange = "2025-02-05 21:33:01 +0000";
layers = (
{
layerId = "10338F47-40ED-49C2-8613-307B859987A6";
paths = (
{
closed = 1;
nodes = (
"245 860 LINE",
"319 860 LINE",
"466 1341 LINE",
"269 1341 LINE"
);
}
);
width = 438;
}
);
note = quotesingle;
unicode = 0027;
},
{
glyphname = parenleft;
lastChange = "2025-02-05 21:32:52 +0000";
layers = (
{
layerId = "10338F47-40ED-49C2-8613-307B859987A6";
paths = (
{
closed = 1;
nodes = (
"251 324.333 OFFCURVE",
"321.333 720.333 OFFCURVE",
"400 911 CURVE SMOOTH",
"478.667 1101.667 OFFCURVE",
"594.667 1243.667 OFFCURVE",
"772 1337 CURVE",
"787 1421 LINE",
"513.667 1287.667 OFFCURVE",
"355.5 1146 OFFCURVE",
"245.5 946 CURVE SMOOTH",
"135.5 746 OFFCURVE",
"72 447.667 OFFCURVE",
"72 213 CURVE SMOOTH",
"72 -80.333 OFFCURVE",
"184 -274.667 OFFCURVE",
"460 -436 CURVE",
"475 -352 LINE",
"325.667 -256 OFFCURVE",
"251 -95 OFFCURVE",
"251 131 CURVE SMOOTH"
);
}
);
width = 682;
}
);
note = parenleft;
unicode = 0028;
},
{
glyphname = parenright;
lastChange = "2025-02-05 21:33:01 +0000";
layers = (
{
layerId = "10338F47-40ED-49C2-8613-307B859987A6";
paths = (
{
closed = 1;
nodes = (
"173.667 -304 OFFCURVE",
"334.333 -160.833 OFFCURVE",
"445 42.5 CURVE SMOOTH",
"555.667 245.833 OFFCURVE",
"619 549.333 OFFCURVE",
"619 772 CURVE SMOOTH",
"619 1064 OFFCURVE",
"511.667 1253 OFFCURVE",
"229 1421 CURVE",
"214 1337 LINE",
"364.667 1241 OFFCURVE",
"438 1086 OFFCURVE",
"438 854 CURVE SMOOTH",
"438 636.667 OFFCURVE",
"361.333 246.667 OFFCURVE",
"284 64 CURVE SMOOTH",
"206.667 -118.667 OFFCURVE",
"92.667 -260 OFFCURVE",
"-82 -352 CURVE",
"-97 -436 LINE"
);
}
);
width = 682;
}
);
note = parenright;
unicode = 0029;
},
{
glyphname = asterisk;
lastChange = "2025-02-05 21:33:01 +0000";
layers = (
{
layerId = "10338F47-40ED-49C2-8613-307B859987A6";
paths = (
{
closed = 1;
nodes = (
"525 965 LINE",
"197 866 LINE",
"261 723 LINE",
"576 918 LINE",
"533 590 LINE",
"689 590 LINE",
"642 915 LINE",
"959 727 LINE",
"1023 868 LINE",
"691 965 LINE",
"1023 1063 LINE",
"959 1204 LINE",
"642 1014 LINE",
"689 1341 LINE",
"533 1341 LINE",
"576 1014 LINE",
"261 1208 LINE",
"197 1065 LINE"
);
}
);
width = 1024;
}
);
note = asterisk;
unicode = 002A;
},
{
glyphname = plus;
lastChange = "2025-02-05 21:33:01 +0000";
layers = (
{
layerId = "10338F47-40ED-49C2-8613-307B859987A6";
paths = (
{
closed = 1;
nodes = (
"1186 629 LINE",
"1186 731 LINE",
"760 731 LINE",
"760 1157 LINE",
"657 1157 LINE",
"657 731 LINE",
"233 731 LINE",
"233 629 LINE",
"657 629 LINE",
"657 203 LINE",
"760 203 LINE",
"760 629 LINE"
);
}
);
width = 1382;
}
);
note = plus;
unicode = 002B;
},
{
glyphname = comma;
lastChange = "2025-02-05 21:32:52 +0000";
layers = (
{
layerId = "10338F47-40ED-49C2-8613-307B859987A6";
paths = (
{
closed = 1;
nodes = (
"383 147.333 OFFCURVE",
"331.333 211 OFFCURVE",
"250 211 CURVE SMOOTH",
"179.333 211 OFFCURVE",
"129 172 OFFCURVE",
"129 100 CURVE SMOOTH",
"129 -12.035 OFFCURVE",
"254 3.61 OFFCURVE",
"254 -70 CURVE SMOOTH",
"254 -142.667 OFFCURVE",
"192 -198.667 OFFCURVE",
"68 -238 CURVE",
"68 -315 LINE",
"266.667 -257.667 OFFCURVE",
"383 -132.667 OFFCURVE",
"383 42 CURVE SMOOTH"
);
}
);
width = 512;
}
);
note = comma;
unicode = 002C;
},
{
glyphname = hyphen;
lastChange = "2025-02-05 21:33:01 +0000";
layers = (
{
layerId = "10338F47-40ED-49C2-8613-307B859987A6";
paths = (
{
closed = 1;
nodes = (
"608 406 LINE",
"608 559 LINE",
"76 559 LINE",
"76 406 LINE"
);
}
);
width = 682;
}
);
note = hyphen;
unicode = "002D,00AD";
},
{
glyphname = period;
lastChange = "2025-02-05 21:32:52 +0000";
layers = (
{
layerId = "10338F47-40ED-49C2-8613-307B859987A6";
paths = (
{
closed = 1;
nodes = (
"327 160 OFFCURVE",
"274 213 OFFCURVE",
"206 213 CURVE SMOOTH",
"138 213 OFFCURVE",
"85 160 OFFCURVE",
"85 92 CURVE SMOOTH",
"85 26.667 OFFCURVE",
"136.667 -29 OFFCURVE",
"206 -29 CURVE SMOOTH",
"275.333 -29 OFFCURVE",
"327 26.667 OFFCURVE",
"327 92 CURVE SMOOTH"
);
}
);
width = 512;
}
);
note = period;
unicode = 002E;
},
{
glyphname = slash;
lastChange = "2025-02-05 21:33:01 +0000";
layers = (
{
layerId = "10338F47-40ED-49C2-8613-307B859987A6";
paths = (
{
closed = 1;
nodes = (
"725 1350 LINE",
"617 1350 LINE",
"-94 -20 LINE",
"16 -20 LINE"
);
}
);
width = 569;
}
);
note = slash;
unicode = 002F;
},
{
glyphname = zero;
lastChange = "2025-02-05 21:32:52 +0000";
layers = (
{
layerId = "10338F47-40ED-49C2-8613-307B859987A6";
paths = (
{
closed = 1;
nodes = (
"663 -20 OFFCURVE",
"828.833 139.5 OFFCURVE",
"925.5 473.5 CURVE SMOOTH",
"973.833 640.5 OFFCURVE",
"998 799.667 OFFCURVE",
"998 951 CURVE SMOOTH",
"998 1225 OFFCURVE",
"882.667 1362 OFFCURVE",
"652 1362 CURVE SMOOTH",
"414.667 1362 OFFCURVE",
"247 1202.167 OFFCURVE",
"151 877.5 CURVE SMOOTH",
"103 715.167 OFFCURVE",
"79 555.667 OFFCURVE",
"79 399 CURVE SMOOTH",
"79 119.667 OFFCURVE",
"192.333 -20 OFFCURVE",
"419 -20 CURVE SMOOTH"
);
},
{
closed = 1;
nodes = (
"823 728 OFFCURVE",
"736.667 313.333 OFFCURVE",
"630 168 CURVE SMOOTH",
"576.667 95.333 OFFCURVE",
"510.333 59 OFFCURVE",
"431 59 CURVE SMOOTH",
"315 59 OFFCURVE",
"249 157 OFFCURVE",
"249 345 CURVE SMOOTH",
"249 590.333 OFFCURVE",
"310.333 894.167 OFFCURVE",
"373 1049.5 CURVE SMOOTH",
"435.667 1204.833 OFFCURVE",
"519.333 1282 OFFCURVE",
"634 1282 CURVE SMOOTH",
"760 1282 OFFCURVE",
"823 1185.333 OFFCURVE",
"823 992 CURVE SMOOTH"
);
}
);
width = 1024;
}
);
note = zero;
unicode = 0030;
},
{
glyphname = one;
lastChange = "2025-02-05 21:33:01 +0000";
layers = (
{
layerId = "10338F47-40ED-49C2-8613-307B859987A6";
paths = (
{
closed = 1;
nodes = (
"759 1352 LINE",
"707 1352 LINE",
"277 1130 LINE",
"267 1077 LINE",
"555 1174 LINE",
"362 80 LINE",
"83 53 LINE",
"73 0 LINE",
"794 0 LINE",
"804 53 LINE",
"534 80 LINE"
);
}
);
width = 1024;
}
);
note = one;
unicode = 0031;
},
{
glyphname = two;
lastChange = "2025-02-05 21:33:01 +0000";
layers = (
{
layerId = "10338F47-40ED-49C2-8613-307B859987A6";
paths = (
{
closed = 1;
nodes = (
"848 154 LINE",
"166 154 LINE",
"378 306 LINE SMOOTH",
"676.667 515.333 OFFCURVE",
"834.333 653.667 OFFCURVE",
"917 815 CURVE SMOOTH",
"958.333 895.667 OFFCURVE",
"979 979.667 OFFCURVE",
"979 1067 CURVE SMOOTH",
"979 1249.667 OFFCURVE",
"841 1356 OFFCURVE",
"593 1356 CURVE SMOOTH",
"509 1356 OFFCURVE",
"403.333 1341.667 OFFCURVE",
"276 1313 CURVE",
"231 1055 LINE",
"297 1055 LINE",
"361 1219 LINE",
"415.667 1248.333 OFFCURVE",
"504.667 1272 OFFCURVE",
"578 1272 CURVE SMOOTH",
"727.333 1272 OFFCURVE",
"806 1209.667 OFFCURVE",
"806 1067 CURVE SMOOTH",
"806 877.667 OFFCURVE",
"732 717.167 OFFCURVE",
"576 568.5 CURVE SMOOTH",
"498 494.167 OFFCURVE",
"385.667 405.333 OFFCURVE",
"239 302 CURVE SMOOTH",
"27 147 LINE",
"1 0 LINE",
"821 0 LINE"
);
}
);
width = 1024;
}
);
note = two;
unicode = 0032;
},
{
glyphname = three;
lastChange = "2025-02-05 21:32:52 +0000";
layers = (
{
layerId = "10338F47-40ED-49C2-8613-307B859987A6";
paths = (
{
closed = 1;
nodes = (
"685 -20 OFFCURVE",
"897 144 OFFCURVE",
"897 408 CURVE SMOOTH",
"897 566.667 OFFCURVE",
"787 674 OFFCURVE",
"595 702 CURVE",
"839 736.667 OFFCURVE",
"953 866.333 OFFCURVE",
"953 1065 CURVE SMOOTH",
"953 1249 OFFCURVE",
"805.667 1356 OFFCURVE",
"559 1356 CURVE SMOOTH",
"453.667 1356 OFFCURVE",
"388 1349 OFFCURVE",
"252 1313 CURVE",
"207 1055 LINE",
"273 1055 LINE",
"337 1219 LINE",
"395.667 1249.667 OFFCURVE",
"480 1272 OFFCURVE",
"552 1272 CURVE SMOOTH",
"700 1272 OFFCURVE",
"767 1197.667 OFFCURVE",
"767 1051 CURVE SMOOTH",
"767 857.667 OFFCURVE",
"679 762 OFFCURVE",
"491 750 CURVE SMOOTH",
"346 741 LINE",
"332 659 LINE",
"447 651 LINE SMOOTH",
"626.333 637.667 OFFCURVE",
"716 550.333 OFFCURVE",
"716 389 CURVE SMOOTH",
"716 161 OFFCURVE",
"603.667 63 OFFCURVE",
"357 63 CURVE SMOOTH",
"274.333 63 OFFCURVE",
"156 101.667 OFFCURVE",
"112 135 CURVE",
"100 323 LINE",
"34 323 LINE",
"-3 41 LINE",
"94.333 5 OFFCURVE",
"238.333 -20 OFFCURVE",
"357 -20 CURVE SMOOTH"
);
}
);
width = 1024;
}
);
note = three;
unicode = 0033;
},
{
glyphname = four;
lastChange = "2025-02-05 21:33:01 +0000";
layers = (
{
layerId = "10338F47-40ED-49C2-8613-307B859987A6";
paths = (
{
closed = 1;
nodes = (
"956 308 LINE",
"978 438 LINE",
"776 438 LINE",
"936 1348 LINE",
"776 1348 LINE",
"25 428 LINE",
"5 308 LINE",
"592 308 LINE",
"537 0 LINE",
"699 0 LINE",
"754 308 LINE"
);
},
{
closed = 1;
nodes = (
"709 979 LINE",
"614 438 LINE",
"149 438 LINE",
"752 1180 LINE"
);
}
);
width = 1024;
}
);
note = four;
unicode = 0034;
},
{
glyphname = five;
lastChange = "2025-02-05 21:32:52 +0000";
layers = (
{
layerId = "10338F47-40ED-49C2-8613-307B859987A6";
paths = (
{
closed = 1;
nodes = (
"420 784 OFFCURVE",
"347 776 OFFCURVE",
"271 760 CURVE",
"346 1188 LINE",
"936 1188 LINE",
"963 1341 LINE",
"283 1341 LINE",
"166 676 LINE",
"262 676 LINE",
"324 692 OFFCURVE",
"391 700 OFFCURVE",
"463 700 CURVE SMOOTH",
"636.333 700 OFFCURVE",
"723 615 OFFCURVE",
"723 445 CURVE SMOOTH",
"723 183.667 OFFCURVE",
"603.333 63 OFFCURVE",
"370 63 CURVE SMOOTH",
"292.667 63 OFFCURVE",
"196 86.333 OFFCURVE",
"148 117 CURVE",
"136 305 LINE",
"70 305 LINE",
"32 23 LINE",
"132.667 -5.667 OFFCURVE",
"240.667 -20 OFFCURVE",
"356 -20 CURVE SMOOTH",
"712 -20 OFFCURVE",
"906 150 OFFCURVE",
"906 454 CURVE SMOOTH",
"906 666 OFFCURVE",
"763.333 784 OFFCURVE",
"490 784 CURVE SMOOTH"
);
}
);
width = 1024;
}
);
note = five;
unicode = 0035;
},
{
glyphname = six;
lastChange = "2025-02-05 21:32:52 +0000";
layers = (
{
layerId = "10338F47-40ED-49C2-8613-307B859987A6";
paths = (
{
closed = 1;
nodes = (
"670.333 -20 OFFCURVE",
"817.333 72.833 OFFCURVE",
"892 229.5 CURVE SMOOTH",
"929.333 307.833 OFFCURVE",
"948 397.667 OFFCURVE",
"948 499 CURVE SMOOTH",
"948 688.333 OFFCURVE",
"821.333 803 OFFCURVE",
"604 803 CURVE SMOOTH",
"508 803 OFFCURVE",
"386.333 766 OFFCURVE",
"285 706 CURVE",
"349 1060.667 OFFCURVE",
"508 1272 OFFCURVE",
"716 1272 CURVE SMOOTH",
"776.667 1272 OFFCURVE",
"836.667 1252 OFFCURVE",
"896 1212 CURVE",
"907 1072 LINE",
"973 1072 LINE",
"1014 1303 LINE",
"911.333 1338.333 OFFCURVE",
"814.333 1356 OFFCURVE",
"723 1356 CURVE SMOOTH",
"483 1356 OFFCURVE",
"273.167 1183.833 OFFCURVE",
"164.5 904.5 CURVE SMOOTH",
"110.167 764.833 OFFCURVE",
"83 612 OFFCURVE",
"83 446 CURVE SMOOTH",
"83 152.667 OFFCURVE",
"229 -20 OFFCURVE",
"477 -20 CURVE SMOOTH"
);
},
{
closed = 1;
nodes = (
"260 491 OFFCURVE",
"265.333 569 OFFCURVE",
"276 645 CURVE",
"390 686.333 OFFCURVE",
"485.333 707 OFFCURVE",
"562 707 CURVE SMOOTH",
"699.333 707 OFFCURVE",
"762 634.333 OFFCURVE",
"762 489 CURVE SMOOTH",
"762 222.333 OFFCURVE",
"659 59 OFFCURVE",
"479 59 CURVE SMOOTH",
"336.333 59 OFFCURVE",
"260 187 OFFCURVE",
"260 411 CURVE SMOOTH"
);
}
);
width = 1024;
}
);
note = six;
unicode = 0036;
},
{
glyphname = seven;
lastChange = "2025-02-05 21:33:01 +0000";
layers = (
{
layerId = "10338F47-40ED-49C2-8613-307B859987A6";
paths = (
{
closed = 1;
nodes = (
"338 1188 LINE",
"917 1188 LINE",
"120 0 LINE",
"259 0 LINE",
"1080 1264 LINE",
"1094 1341 LINE",
"264 1341 LINE",
"208 1024 LINE",
"274 1024 LINE"
);
}
);
width = 1024;
}
);
note = seven;
unicode = 0037;
},
{
glyphname = eight;
lastChange = "2025-02-05 21:32:52 +0000";
layers = (
{
layerId = "10338F47-40ED-49C2-8613-307B859987A6";
paths = (
{
closed = 1;
nodes = (
"1001 1272 OFFCURVE",
"885.667 1362 OFFCURVE",
"655 1362 CURVE SMOOTH",
"361.667 1362 OFFCURVE",
"202 1222.333 OFFCURVE",
"202 949 CURVE SMOOTH",
"202 827.667 OFFCURVE",
"265.667 748.333 OFFCURVE",
"351 711 CURVE",
"145.667 649.667 OFFCURVE",
"43 510.333 OFFCURVE",
"43 293 CURVE SMOOTH",
"43 93 OFFCURVE",
"166 -20 OFFCURVE",
"426 -20 CURVE SMOOTH",
"760 -20 OFFCURVE",
"927 133.333 OFFCURVE",
"927 440 CURVE SMOOTH",
"927 576 OFFCURVE",
"857.667 671 OFFCURVE",
"743 711 CURVE",
"900.333 756.333 OFFCURVE",
"1001 902.667 OFFCURVE",
"1001 1092 CURVE SMOOTH"
);
},
{
closed = 1;
nodes = (
"292.667 59 OFFCURVE",
"220 135.667 OFFCURVE",
"220 289 CURVE SMOOTH",
"220 540.333 OFFCURVE",
"324.667 666 OFFCURVE",
"534 666 CURVE SMOOTH",
"678 666 OFFCURVE",
"750 593 OFFCURVE",
"750 447 CURVE SMOOTH",
"750 169.667 OFFCURVE",
"648.667 59 OFFCURVE",
"438 59 CURVE SMOOTH"
);
},
{
closed = 1;
nodes = (
"436.333 754 OFFCURVE",
"378 821 OFFCURVE",
"378 945 CURVE SMOOTH",
"378 1177 OFFCURVE",
"466.667 1282 OFFCURVE",
"644 1282 CURVE SMOOTH",
"766.667 1282 OFFCURVE",
"823 1221.333 OFFCURVE",
"823 1092 CURVE SMOOTH",
"823 872 OFFCURVE",
"725.667 754 OFFCURVE",
"551 754 CURVE SMOOTH"
);
}
);
width = 1024;
}
);
note = eight;
unicode = 0038;
},
{
glyphname = nine;
lastChange = "2025-02-05 21:32:52 +0000";
layers = (
{
layerId = "10338F47-40ED-49C2-8613-307B859987A6";
paths = (
{
closed = 1;
nodes = (
"302.395 1356 OFFCURVE",
"126 1163.274 OFFCURVE",
"126 871 CURVE SMOOTH",
"126 660.333 OFFCURVE",
"256.667 533 OFFCURVE",
"470 533 CURVE SMOOTH",
"562 533 OFFCURVE",
"681.667 567 OFFCURVE",
"791 631 CURVE",
"737.667 280.333 OFFCURVE",
"586.667 64 OFFCURVE",
"372 64 CURVE SMOOTH",
"296 64 OFFCURVE",
"221.333 88.333 OFFCURVE",
"176 115 CURVE",
"165 255 LINE",
"99 255 LINE",
"60 34 LINE",
"150 -2 OFFCURVE",
"255.333 -20 OFFCURVE",
"376 -20 CURVE SMOOTH",
"600 -20 OFFCURVE",
"797.333 142.667 OFFCURVE",
"908 424 CURVE SMOOTH",
"963.333 564.667 OFFCURVE",
"991 720 OFFCURVE",
"991 890 CURVE SMOOTH",
"991 1188.667 OFFCURVE",
"849 1356 OFFCURVE",
"597 1356 CURVE SMOOTH"
);
},
{
closed = 1;
nodes = (
"814 844.333 OFFCURVE",
"809.333 766 OFFCURVE",
"800 690 CURVE",
"705.333 649.333 OFFCURVE",
"612.333 629 OFFCURVE",
"521 629 CURVE SMOOTH",
"390.333 629 OFFCURVE",
"312 708 OFFCURVE",
"312 876 CURVE SMOOTH",
"312 1128 OFFCURVE",
"413.667 1277 OFFCURVE",
"595 1277 CURVE SMOOTH",
"737.667 1277 OFFCURVE",
"814 1149 OFFCURVE",
"814 925 CURVE SMOOTH"
);
}
);
width = 1024;
}
);
note = nine;
unicode = 0039;
},
{
glyphname = colon;
lastChange = "2025-02-05 21:32:52 +0000";
layers = (
{
layerId = "10338F47-40ED-49C2-8613-307B859987A6";
paths = (
{
closed = 1;
nodes = (
"379 160 OFFCURVE",
"326 213 OFFCURVE",
"258 213 CURVE SMOOTH",
"190 213 OFFCURVE",
"137 160 OFFCURVE",
"137 92 CURVE SMOOTH",
"137 26.667 OFFCURVE",
"188.667 -29 OFFCURVE",
"258 -29 CURVE SMOOTH",
"327.333 -29 OFFCURVE",
"379 26.667 OFFCURVE",
"379 92 CURVE SMOOTH"
);
},
{
closed = 1;
nodes = (
"520 907 OFFCURVE",
"467 960 OFFCURVE",
"399 960 CURVE SMOOTH",
"331 960 OFFCURVE",
"278 907 OFFCURVE",
"278 839 CURVE SMOOTH",
"278 773.667 OFFCURVE",
"329.667 718 OFFCURVE",
"399 718 CURVE SMOOTH",
"468.333 718 OFFCURVE",
"520 773.667 OFFCURVE",
"520 839 CURVE SMOOTH"
);
}
);
width = 682;
}
);
note = colon;
unicode = 003A;
},
{
glyphname = semicolon;
lastChange = "2025-02-05 21:32:52 +0000";
layers = (
{
layerId = "10338F47-40ED-49C2-8613-307B859987A6";
paths = (
{
closed = 1;
nodes = (
"546 907 OFFCURVE",
"493 960 OFFCURVE",
"425 960 CURVE SMOOTH",
"357 960 OFFCURVE",
"304 907 OFFCURVE",
"304 839 CURVE SMOOTH",
"304 773.667 OFFCURVE",
"355.667 718 OFFCURVE",
"425 718 CURVE SMOOTH",
"494.333 718 OFFCURVE",
"546 773.667 OFFCURVE",
"546 839 CURVE SMOOTH"
);
},
{
closed = 1;
nodes = (
"410 147.333 OFFCURVE",
"358.333 211 OFFCURVE",
"277 211 CURVE SMOOTH",
"206.333 211 OFFCURVE",
"156 172 OFFCURVE",
"156 100 CURVE SMOOTH",
"156 -12.035 OFFCURVE",
"281 3.61 OFFCURVE",
"281 -70 CURVE SMOOTH",
"281 -142.667 OFFCURVE",
"219 -198.667 OFFCURVE",
"95 -238 CURVE",
"95 -315 LINE",
"293.667 -257.667 OFFCURVE",
"410 -132.667 OFFCURVE",
"410 42 CURVE SMOOTH"
);
}
);
width = 682;
}
);
note = semicolon;
unicode = "003B,037E";
},
{
glyphname = less;
lastChange = "2025-02-05 21:33:01 +0000";
layers = (
{
layerId = "10338F47-40ED-49C2-8613-307B859987A6";
paths = (
{
closed = 1;
nodes = (
"1185 186 LINE",
"1185 289 LINE",
"376 680 LINE",
"1185 1071 LINE",
"1185 1174 LINE",
"232 705 LINE",
"232 655 LINE"
);
}
);
width = 1382;
}
);
note = less;
unicode = 003C;
},
{
glyphname = equal;
lastChange = "2025-02-05 21:33:01 +0000";
layers = (
{
layerId = "10338F47-40ED-49C2-8613-307B859987A6";
paths = (
{
closed = 1;
nodes = (
"233 526 LINE",
"233 424 LINE",
"1186 424 LINE",
"1186 526 LINE"
);
},
{
closed = 1;
nodes = (
"233 936 LINE",
"233 834 LINE",
"1186 834 LINE",
"1186 936 LINE"
);
}
);
width = 1382;
}
);
note = equal;
unicode = 003D;
},
{
glyphname = greater;
lastChange = "2025-02-05 21:33:01 +0000";
layers = (
{
layerId = "10338F47-40ED-49C2-8613-307B859987A6";
paths = (
{
closed = 1;
nodes = (
"1185 655 LINE",
"1185 705 LINE",
"232 1174 LINE",
"232 1071 LINE",
"1041 680 LINE",
"232 289 LINE",
"232 186 LINE"
);
}
);
width = 1382;
}
);
note = greater;
unicode = 003E;
},
{
glyphname = question;
lastChange = "2025-02-05 21:33:01 +0000";
layers = (
{
layerId = "10338F47-40ED-49C2-8613-307B859987A6";
paths = (
{
closed = 1;
nodes = (
"561 610 LINE",
"620 623 LINE SMOOTH",
"878 678.333 OFFCURVE",
"1007 825 OFFCURVE",
"1007 1063 CURVE SMOOTH",
"1007 1258.333 OFFCURVE",
"885 1356 OFFCURVE",
"641 1356 CURVE SMOOTH",
"534.333 1356 OFFCURVE",
"428 1334 OFFCURVE",
"322 1290 CURVE",
"291 1036 LINE",
"357 1036 LINE",
"407 1200 LINE",
"455 1237.333 OFFCURVE",
"550 1272 OFFCURVE",
"630 1272 CURVE SMOOTH",
"762.667 1272 OFFCURVE",
"829 1198.333 OFFCURVE",
"829 1051 CURVE SMOOTH",
"829 845.667 OFFCURVE",
"756.333 742.333 OFFCURVE",
"603 713 CURVE SMOOTH",
"455 684 LINE",
"422 350 LINE",
"502 350 LINE"
);
},
{
closed = 1;
nodes = (
"545 161.333 OFFCURVE",
"491.667 213 OFFCURVE",
"425 213 CURVE SMOOTH",
"357 213 OFFCURVE",
"304 160 OFFCURVE",
"304 92 CURVE SMOOTH",
"304 26.667 OFFCURVE",
"355.667 -29 OFFCURVE",
"425 -29 CURVE SMOOTH",
"493 -29 OFFCURVE",
"545 26.667 OFFCURVE",
"545 92 CURVE SMOOTH"
);
}
);
width = 1024;
}
);
note = question;
unicode = 003F;
},
{
glyphname = at;
lastChange = "2025-02-05 21:33:01 +0000";
layers = (
{
layerId = "10338F47-40ED-49C2-8613-307B859987A6";
paths = (
{
closed = 1;
nodes = (
"1436 -133 LINE",
"1258.667 -259.667 OFFCURVE",
"1103.333 -305 OFFCURVE",
"906 -305 CURVE SMOOTH",
"639.333 -305 OFFCURVE",
"437.833 -184.667 OFFCURVE",
"334.5 18 CURVE SMOOTH",
"282.833 119.333 OFFCURVE",
"257 235 OFFCURVE",
"257 365 CURVE SMOOTH",
"257 713 OFFCURVE",
"409.833 1017.167 OFFCURVE",
"658.5 1168.5 CURVE SMOOTH",
"782.833 1244.167 OFFCURVE",
"922.667 1282 OFFCURVE",
"1078 1282 CURVE SMOOTH",
"1443.333 1282 OFFCURVE",
"1664 1086 OFFCURVE",
"1664 750 CURVE SMOOTH",
"1664 544.667 OFFCURVE",
"1584 333.167 OFFCURVE",
"1456 224.5 CURVE SMOOTH",
"1392 170.167 OFFCURVE",
"1321.333 143 OFFCURVE",
"1244 143 CURVE SMOOTH",
"1194.667 143 OFFCURVE",
"1170 155.667 OFFCURVE",
"1170 205 CURVE SMOOTH",
"1170 247.667 OFFCURVE",
"1177.667 305.667 OFFCURVE",
"1193 379 CURVE SMOOTH",
"1307 909 LINE",
"1275 913 OFFCURVE",
"1246.333 915 OFFCURVE",
"1221 915 CURVE SMOOTH",
"1185 915 LINE SMOOTH",
"1011.667 915 OFFCURVE",
"922.833 890.5 OFFCURVE",
"811.5 808.5 CURVE SMOOTH",
"755.833 767.5 OFFCURVE",
"709.5 717.667 OFFCURVE",
"672.5 659 CURVE SMOOTH",
"598.5 541.667 OFFCURVE",
"556 383.667 OFFCURVE",
"556 225 CURVE SMOOTH",
"556 103.667 OFFCURVE",
"611 25 OFFCURVE",
"707 25 CURVE SMOOTH",
"796.333 25 OFFCURVE",
"913 85 OFFCURVE",
"1029 201 CURVE",
"1023.667 151 OFFCURVE",
"1021 109.333 OFFCURVE",
"1021 76 CURVE SMOOTH",
"1021 42 OFFCURVE",
"1042.667 25 OFFCURVE",
"1086 25 CURVE SMOOTH",
"1324.667 25 OFFCURVE",
"1562.667 171.167 OFFCURVE",
"1692 394.5 CURVE SMOOTH",
"1756.667 506.167 OFFCURVE",
"1789 625.333 OFFCURVE",
"1789 752 CURVE SMOOTH",
"1789 1138.667 OFFCURVE",
"1532 1364 OFFCURVE",
"1084 1364 CURVE SMOOTH",
"724 1364 OFFCURVE",
"412.833 1182.667 OFFCURVE",
"245.5 876 CURVE SMOOTH",
"161.833 722.667 OFFCURVE",
"120 551.333 OFFCURVE",
"120 362 CURVE SMOOTH",
"120 71.333 OFFCURVE",
"249.833 -168.5 OFFCURVE",
"478.5 -294.5 CURVE SMOOTH",
"592.833 -357.5 OFFCURVE",
"725 -389 OFFCURVE",
"875 -389 CURVE SMOOTH",
"1096.333 -389 OFFCURVE",
"1281 -330.667 OFFCURVE",
"1469 -184 CURVE"
);
},
{
closed = 1;
nodes = (
"1035 274 LINE",
"953.667 204.667 OFFCURVE",
"845.667 160 OFFCURVE",
"771 160 CURVE SMOOTH",
"717.667 160 OFFCURVE",
"691 209.667 OFFCURVE",
"691 309 CURVE SMOOTH",
"691 507.667 OFFCURVE",
"766.833 707.167 OFFCURVE",
"883.5 766.5 CURVE SMOOTH",
"941.833 796.167 OFFCURVE",
"1014.333 811 OFFCURVE",
"1101 811 CURVE",
"1150 807 LINE"
);
}
);
width = 1884;
}
);
note = at;
unicode = 0040;
},
{
glyphname = A;
lastChange = "2025-02-05 21:33:01 +0000";
layers = (
{
layerId = "10338F47-40ED-49C2-8613-307B859987A6";
paths = (
{
closed = 1;
nodes = (
"129 80 LINE",
"334 467 LINE",
"862 467 LINE",
"926 80 LINE",
"783 53 LINE",
"772 0 LINE",
"1247 0 LINE",
"1258 53 LINE",
"1133 80 LINE",
"883 1352 LINE",
"692 1352 LINE",
"10 80 LINE",
"-102 53 LINE",
"-112 0 LINE",
"254 0 LINE",
"264 53 LINE"
);
},
{
closed = 1;
nodes = (
"846 557 LINE",
"379 557 LINE",
"723 1208 LINE"
);
}
);
width = 1251;
}
);
note = A;
unicode = 0041;
},
{
glyphname = B;
lastChange = "2025-02-05 21:33:01 +0000";
layers = (
{
layerId = "10338F47-40ED-49C2-8613-307B859987A6";
paths = (
{
closed = 1;
nodes = (
"473 754 LINE",
"561 1251 LINE",
"719 1251 LINE SMOOTH",
"917.667 1251 OFFCURVE",
"998 1185.667 OFFCURVE",
"998 1047 CURVE SMOOTH",
"998 829.667 OFFCURVE",
"897.667 754 OFFCURVE",
"639 754 CURVE SMOOTH"
);
},
{
closed = 1;
nodes = (
"545 84 OFFCURVE",
"459 86 OFFCURVE",
"357 90 CURVE",
"457 664 LINE",
"643 664 LINE SMOOTH",
"865.667 664 OFFCURVE",
"987 587.333 OFFCURVE",
"987 406 CURVE SMOOTH",
"987 175.333 OFFCURVE",
"871 84 OFFCURVE",
"615 84 CURVE SMOOTH"
);
},
{
closed = 1;
nodes = (
"232 0 LINE",
"615 -6 LINE SMOOTH",
"1001.667 -6 OFFCURVE",
"1196 123.333 OFFCURVE",
"1196 410 CURVE SMOOTH",
"1196 584.667 OFFCURVE",
"1077.667 695.667 OFFCURVE",
"871 713 CURVE",
"1081.667 741 OFFCURVE",
"1206 871 OFFCURVE",
"1206 1059 CURVE SMOOTH",
"1206 1247 OFFCURVE",
"1058.667 1341 OFFCURVE",
"764 1341 CURVE SMOOTH",
"213 1341 LINE",
"203 1288 LINE",
"371 1262 LINE",
"162 80 LINE",
"29 53 LINE",
"19 0 LINE"
);
}
);
width = 1251;
}
);
note = B;
unicode = 0042;
},
{
glyphname = C;
lastChange = "2025-02-05 21:32:52 +0000";
layers = (
{
layerId = "10338F47-40ED-49C2-8613-307B859987A6";
paths = (
{
closed = 1;
nodes = (
"849.667 -19 OFFCURVE",
"1038.667 14 OFFCURVE",
"1192 70 CURVE",
"1253 385 LINE",
"1188 385 LINE",
"1116 184 LINE",
"1025.333 113.333 OFFCURVE",
"868 63 OFFCURVE",
"716 63 CURVE SMOOTH",
"458.667 63 OFFCURVE",
"314 216.333 OFFCURVE",
"314 503 CURVE SMOOTH",
"314 804.333 OFFCURVE",
"425.167 1050.833 OFFCURVE",
"616.5 1179.5 CURVE SMOOTH",
"712.167 1243.833 OFFCURVE",
"820.333 1276 OFFCURVE",
"941 1276 CURVE SMOOTH",
"1069 1276 OFFCURVE",
"1192.333 1243.333 OFFCURVE",
"1275 1186 CURVE",
"1275 1012 LINE",
"1340 1012 LINE",
"1385 1305 LINE",
"1233.667 1339 OFFCURVE",
"1087.667 1356 OFFCURVE",
"947 1356 CURVE SMOOTH",
"446.63 1356 OFFCURVE",
"114 1027.504 OFFCURVE",
"114 523 CURVE SMOOTH",
"114 184.333 OFFCURVE",
"332.333 -19 OFFCURVE",
"699 -19 CURVE SMOOTH"
);
}
);
width = 1366;
}
);
note = C;
unicode = 0043;
},
{
glyphname = D;
lastChange = "2025-02-05 21:32:52 +0000";
layers = (
{
layerId = "10338F47-40ED-49C2-8613-307B859987A6";
paths = (
{
closed = 1;
nodes = (
"1238 337 OFFCURVE",
"1013 86 OFFCURVE",
"621 86 CURVE SMOOTH",
"551.667 86 OFFCURVE",
"463.667 88.667 OFFCURVE",
"357 94 CURVE",
"561 1251 LINE",
"723 1251 LINE SMOOTH",
"1066.333 1251 OFFCURVE",
"1238 1095.667 OFFCURVE",
"1238 785 CURVE SMOOTH"
);
},
{
closed = 1;
nodes = (
"212 1341 LINE",
"203 1288 LINE",
"370 1262 LINE",
"162 80 LINE",
"-14 53 LINE",
"-23 0 LINE",
"629 -4 LINE SMOOTH",
"957 -4 OFFCURVE",
"1213.5 128.333 OFFCURVE",
"1347.5 371 CURVE SMOOTH",
"1414.5 492.333 OFFCURVE",
"1448 632.667 OFFCURVE",
"1448 792 CURVE SMOOTH",
"1448 1146.667 OFFCURVE",
"1214.667 1341 OFFCURVE",
"784 1341 CURVE SMOOTH"
);
}
);
width = 1479;
}
);
note = D;
unicode = 0044;
},
{
glyphname = E;
lastChange = "2025-02-05 21:33:01 +0000";
layers = (
{
layerId = "10338F47-40ED-49C2-8613-307B859987A6";
paths = (
{
closed = 1;
nodes = (
"161 80 LINE",
"-14 53 LINE",
"-24 0 LINE",
"1046 0 LINE",
"1128 354 LINE",
"1062 354 LINE",
"961 106 LINE",
"904.333 95.333 OFFCURVE",
"790.667 90 OFFCURVE",
"620 90 CURVE SMOOTH",
"356 90 LINE",
"453 637 LINE",
"815 637 LINE",
"817 475 LINE",
"881 475 LINE",
"954 887 LINE",
"890 887 LINE",
"830 727 LINE",
"468 727 LINE",
"561 1251 LINE",
"780 1251 LINE SMOOTH",
"921.333 1251 OFFCURVE",
"1028.333 1246.333 OFFCURVE",
"1101 1237 CURVE",
"1095 1020 LINE",
"1161 1020 LINE",
"1218 1341 LINE",
"212 1341 LINE",
"202 1288 LINE",
"370 1262 LINE"
);
}
);
width = 1251;
}
);
note = E;
unicode = 0045;
},
{
glyphname = F;
lastChange = "2025-02-05 21:33:01 +0000";
layers = (
{
layerId = "10338F47-40ED-49C2-8613-307B859987A6";
paths = (
{
closed = 1;
nodes = (
"891 602 LINE",
"894 440 LINE",
"955 440 LINE",
"1027 852 LINE",
"966 852 LINE",
"907 692 LINE",
"462 692 LINE",
"561 1251 LINE",
"830 1251 LINE SMOOTH",
"972 1251 OFFCURVE",
"1079 1246.333 OFFCURVE",
"1151 1237 CURVE",
"1145 1020 LINE",
"1211 1020 LINE",
"1268 1341 LINE",
"212 1341 LINE",
"202 1288 LINE",
"370 1262 LINE",
"161 80 LINE",
"-1 53 LINE",
"-11 0 LINE",
"563 0 LINE",
"573 53 LINE",
"354 80 LINE",
"446 602 LINE"
);
}
);
width = 1251;
}
);
note = F;
unicode = 0046;
},
{
glyphname = G;
lastChange = "2025-02-05 21:32:52 +0000";
layers = (
{
layerId = "10338F47-40ED-49C2-8613-307B859987A6";
paths = (
{
closed = 1;
nodes = (
"863.333 -18 OFFCURVE",
"1013.667 8.667 OFFCURVE",
"1215 86 CURVE",
"1290 506 LINE",
"1426 532 LINE",
"1435 586 LINE",
"940 586 LINE",
"931 532 LINE",
"1098 506 LINE",
"1035 153 LINE",
"951 99.667 OFFCURVE",
"821.667 62 OFFCURVE",
"703 62 CURVE SMOOTH",
"457.667 62 OFFCURVE",
"314 225.667 OFFCURVE",
"314 503 CURVE SMOOTH",
"314 809.667 OFFCURVE",
"428 1053.167 OFFCURVE",
"620 1180.5 CURVE SMOOTH",
"716 1244.167 OFFCURVE",
"823 1276 OFFCURVE",
"941 1276 CURVE SMOOTH",
"1081.667 1276 OFFCURVE",
"1194.333 1242 OFFCURVE",
"1279 1174 CURVE",
"1276 1008 LINE",
"1343 1008 LINE",
"1394 1296 LINE",
"1250 1336 OFFCURVE",
"1101 1356 OFFCURVE",
"947 1356 CURVE SMOOTH",
"619 1356 OFFCURVE",
"355.667 1215 OFFCURVE",
"217 963 CURVE SMOOTH",
"147.667 837 OFFCURVE",
"113 690.333 OFFCURVE",
"113 523 CURVE SMOOTH",
"113 184.333 OFFCURVE",
"326 -18 OFFCURVE",
"690 -18 CURVE SMOOTH"
);
}
);
width = 1479;
}
);
note = G;
unicode = 0047;
},
{
glyphname = H;
lastChange = "2025-02-05 21:33:01 +0000";
layers = (
{
layerId = "10338F47-40ED-49C2-8613-307B859987A6";
paths = (
{
closed = 1;
nodes = (
"512 0 LINE",
"520 53 LINE",
"354 80 LINE",
"453 645 LINE",
"1084 645 LINE",
"985 80 LINE",
"807 53 LINE",
"799 0 LINE",
"1335 0 LINE",
"1344 53 LINE",
"1178 80 LINE",
"1385 1262 LINE",
"1563 1288 LINE",
"1571 1341 LINE",
"1034 1341 LINE",
"1026 1288 LINE",
"1192 1262 LINE",
"1100 735 LINE",
"469 735 LINE",
"561 1262 LINE",
"740 1288 LINE",
"748 1341 LINE",
"211 1341 LINE",
"203 1288 LINE",
"369 1262 LINE",
"162 80 LINE",
"-14 53 LINE",
"-22 0 LINE"
);
}
);
width = 1479;
}
);
note = H;
unicode = 0048;
},
{
glyphname = I;
lastChange = "2025-02-05 21:33:01 +0000";
layers = (
{
layerId = "10338F47-40ED-49C2-8613-307B859987A6";
paths = (
{
closed = 1;
nodes = (
"576 1262 LINE",
"754 1288 LINE",
"762 1341 LINE",
"225 1341 LINE",
"217 1288 LINE",
"383 1262 LINE",
"176 80 LINE",
"0 53 LINE",
"-8 0 LINE",
"527 0 LINE",
"535 53 LINE",
"369 80 LINE"
);
}
);
width = 682;
}
);
note = I;
unicode = 0049;
},
{
glyphname = J;
lastChange = "2025-02-05 21:33:01 +0000";
layers = (
{
layerId = "10338F47-40ED-49C2-8613-307B859987A6";
paths = (
{
closed = 1;
nodes = (
"454 256 LINE SMOOTH",
"432 129.333 OFFCURVE",
"374.333 66 OFFCURVE",
"281 66 CURVE SMOOTH",
"225 66 OFFCURVE",
"160.333 89.667 OFFCURVE",
"143 119 CURVE",
"138 258 LINE",
"73 258 LINE",
"31 26 LINE",
"85.667 0.667 OFFCURVE",
"175 -20 OFFCURVE",
"267 -20 CURVE SMOOTH",
"487 -20 OFFCURVE",
"623.667 130.667 OFFCURVE",
"677 432 CURVE SMOOTH",
"823 1262 LINE",
"980 1288 LINE",
"989 1341 LINE",
"473 1341 LINE",
"464 1288 LINE",
"631 1262 LINE"
);
}
);
width = 909;
}
);
note = J;
unicode = 004A;
},
{
glyphname = K;
lastChange = "2025-02-05 21:33:01 +0000";
layers = (
{
layerId = "10338F47-40ED-49C2-8613-307B859987A6";
paths = (
{
closed = 1;
nodes = (
"1034 1341 LINE",
"1024 1288 LINE",
"1143 1262 LINE",
"465 704 LINE",
"563 1262 LINE",
"739 1288 LINE",
"749 1341 LINE",
"212 1341 LINE",
"202 1288 LINE",
"370 1262 LINE",
"161 80 LINE",
"-14 53 LINE",
"-24 0 LINE",
"532 0 LINE",
"542 53 LINE",
"354 80 LINE",
"442 569 LINE",
"585 686 LINE",
"996 0 LINE",
"1303 0 LINE",
"1313 53 LINE",
"1179 80 LINE",
"732 807 LINE",
"1288 1262 LINE",
"1444 1288 LINE",
"1454 1341 LINE"
);
}
);
width = 1366;
}
);
note = K;
unicode = 004B;
},
{
glyphname = L;
lastChange = "2025-02-05 21:33:01 +0000";
layers = (
{
layerId = "10338F47-40ED-49C2-8613-307B859987A6";
paths = (
{
closed = 1;
nodes = (
"563 1262 LINE",
"774 1288 LINE",
"784 1341 LINE",
"212 1341 LINE",
"202 1288 LINE",
"370 1262 LINE",
"161 80 LINE",
"-14 53 LINE",
"-24 0 LINE",
"956 0 LINE",
"1042 385 LINE",
"977 385 LINE",
"866 106 LINE",
"794.667 92.667 OFFCURVE",
"695.667 86 OFFCURVE",
"569 86 CURVE SMOOTH",
"355 86 LINE"
);
}
);
width = 1139;
}
);
note = L;
unicode = 004C;
},
{
glyphname = M;
lastChange = "2025-02-05 21:33:01 +0000";
layers = (
{
layerId = "10338F47-40ED-49C2-8613-307B859987A6";
paths = (
{
closed = 1;
nodes = (
"1402 1153 LINE",
"1213 80 LINE",
"1029 53 LINE",
"1019 0 LINE",
"1563 0 LINE",
"1573 53 LINE",
"1405 80 LINE",
"1614 1262 LINE",
"1790 1288 LINE",
"1800 1341 LINE",
"1398 1341 LINE",
"800 318 LINE",
"594 1341 LINE",
"212 1341 LINE",
"202 1288 LINE",
"370 1262 LINE",
"161 80 LINE",
"-14 53 LINE",
"-24 0 LINE",
"432 0 LINE",
"442 53 LINE",
"266 80 LINE",
"455 1153 LINE",
"686 0 LINE",
"721 0 LINE"
);
}
);
width = 1706;
}
);
note = M;
unicode = 004D;
},
{
glyphname = N;
lastChange = "2025-02-05 21:33:01 +0000";
layers = (
{
layerId = "10338F47-40ED-49C2-8613-307B859987A6";
paths = (
{
closed = 1;
nodes = (
"1008 336 LINE",
"609 1341 LINE",
"221 1341 LINE",
"211 1288 LINE",
"379 1262 LINE",
"170 80 LINE",
"-5 53 LINE",
"-15 0 LINE",
"441 0 LINE",
"451 53 LINE",
"275 80 LINE",
"474 1206 LINE",
"955 0 LINE",
"1052 0 LINE",
"1275 1262 LINE",
"1451 1288 LINE",
"1461 1341 LINE",
"1004 1341 LINE",
"994 1288 LINE",
"1170 1262 LINE"
);
}
);
width = 1366;
}
);
note = N;
unicode = 004E;
},
{
glyphname = O;
lastChange = "2025-02-05 21:32:52 +0000";
layers = (
{
layerId = "10338F47-40ED-49C2-8613-307B859987A6";
paths = (
{
closed = 1;
nodes = (
"1231 581.333 OFFCURVE",
"1114.167 299.5 OFFCURVE",
"945.5 165.5 CURVE SMOOTH",
"861.167 98.5 OFFCURVE",
"769.333 65 OFFCURVE",
"670 65 CURVE SMOOTH",
"448.667 65 OFFCURVE",
"303 239 OFFCURVE",
"303 503 CURVE SMOOTH",
"303 759 OFFCURVE",
"418.5 1039.167 OFFCURVE",
"584.5 1174.5 CURVE SMOOTH",
"667.5 1242.167 OFFCURVE",
"758.667 1276 OFFCURVE",
"858 1276 CURVE SMOOTH",
"1082 1276 OFFCURVE",
"1231 1098.667 OFFCURVE",
"1231 832 CURVE SMOOTH"
);
},
{
closed = 1;
nodes = (
"959 -20 OFFCURVE",
"1196.5 120.667 OFFCURVE",
"1330.5 386 CURVE SMOOTH",
"1397.5 518.667 OFFCURVE",
"1431 664 OFFCURVE",
"1431 822 CURVE SMOOTH",
"1431 1136.791 OFFCURVE",
"1200.305 1356 OFFCURVE",
"871 1356 CURVE SMOOTH",
"575 1356 OFFCURVE",
"336.333 1211.167 OFFCURVE",
"203 950.5 CURVE SMOOTH",
"136.333 820.167 OFFCURVE",
"103 674.667 OFFCURVE",
"103 514 CURVE SMOOTH",
"103 199.574 OFFCURVE",
"334.034 -20 OFFCURVE",
"663 -20 CURVE SMOOTH"
);
}
);
width = 1479;
}
);
note = O;
unicode = 004F;
},
{
glyphname = P;
lastChange = "2025-02-05 21:33:01 +0000";
layers = (
{
layerId = "10338F47-40ED-49C2-8613-307B859987A6";
paths = (
{
closed = 1;
nodes = (
"449 616 LINE",
"561 1251 LINE",
"709 1251 LINE SMOOTH",
"903.667 1251 OFFCURVE",
"1000 1163.667 OFFCURVE",
"1000 973 CURVE SMOOTH",
"1000 735 OFFCURVE",
"870.667 616 OFFCURVE",
"612 616 CURVE SMOOTH"
);
},
{
closed = 1;
nodes = (
"634 526 LINE SMOOTH",
"996.667 526 OFFCURVE",
"1199 687.333 OFFCURVE",
"1199 986 CURVE SMOOTH",
"1199 1220.667 OFFCURVE",
"1037 1341 OFFCURVE",
"749 1341 CURVE SMOOTH",
"212 1341 LINE",
"202 1288 LINE",
"370 1262 LINE",
"161 80 LINE",
"-1 53 LINE",
"-11 0 LINE",
"563 0 LINE",
"573 53 LINE",
"354 80 LINE",
"433 526 LINE"
);
}
);
width = 1251;
}
);
note = P;
unicode = 0050;
},
{
glyphname = Q;
lastChange = "2025-02-05 21:32:52 +0000";
layers = (
{
layerId = "10338F47-40ED-49C2-8613-307B859987A6";
paths = (
{
closed = 1;
nodes = (
"113 310 OFFCURVE",
"209.833 140.833 OFFCURVE",
"378.5 49.5 CURVE SMOOTH",
"462.833 3.833 OFFCURVE",
"558.333 -19.333 OFFCURVE",
"665 -20 CURVE",
"695 -68 LINE SMOOTH",
"824.333 -280 OFFCURVE",
"896 -332 OFFCURVE",
"1032 -332 CURVE SMOOTH",
"1094.667 -332 OFFCURVE",
"1201.667 -308.333 OFFCURVE",
"1235 -295 CURVE",
"1247 -229 LINE",
"1164 -233 LINE SMOOTH",
"1097.333 -233 OFFCURVE",
"1045.667 -210.667 OFFCURVE",
"995 -160 CURVE SMOOTH",
"969.667 -134.667 OFFCURVE",
"928.667 -80.333 OFFCURVE",
"872 3 CURVE",
"1100 57.667 OFFCURVE",
"1275.333 215.667 OFFCURVE",
"1370 449 CURVE SMOOTH",
"1417.333 565.667 OFFCURVE",
"1441 690 OFFCURVE",
"1441 822 CURVE SMOOTH",
"1441 1136.791 OFFCURVE",
"1210.305 1356 OFFCURVE",
"881 1356 CURVE SMOOTH",
"585 1356 OFFCURVE",
"346.333 1211.167 OFFCURVE",
"213 950.5 CURVE SMOOTH",
"146.333 820.167 OFFCURVE",
"113 674.667 OFFCURVE",
"113 514 CURVE SMOOTH"
);
},
{
closed = 1;
nodes = (
"1241 581.333 OFFCURVE",
"1124.167 299.5 OFFCURVE",
"955.5 165.5 CURVE SMOOTH",
"871.167 98.5 OFFCURVE",
"779.333 65 OFFCURVE",
"680 65 CURVE SMOOTH",
"458.667 65 OFFCURVE",
"313 239 OFFCURVE",
"313 503 CURVE SMOOTH",
"313 759 OFFCURVE",
"428.5 1039.167 OFFCURVE",
"594.5 1174.5 CURVE SMOOTH",
"677.5 1242.167 OFFCURVE",
"768.667 1276 OFFCURVE",
"868 1276 CURVE SMOOTH",
"1092 1276 OFFCURVE",
"1241 1098.667 OFFCURVE",
"1241 832 CURVE SMOOTH"
);
}
);
width = 1479;
}
);
note = Q;
unicode = 0051;
},
{
glyphname = R;
lastChange = "2025-02-05 21:33:01 +0000";
layers = (
{
layerId = "10338F47-40ED-49C2-8613-307B859987A6";
paths = (
{
closed = 1;
nodes = (
"653 588 LINE",
"899 0 LINE",
"1207 0 LINE",
"1217 53 LINE",
"1070 80 LINE",
"843 616 LINE",
"1076.333 672 OFFCURVE",
"1193 805.333 OFFCURVE",
"1193 1016 CURVE SMOOTH",
"1193 1228 OFFCURVE",
"1036 1341 OFFCURVE",
"744 1341 CURVE SMOOTH",
"212 1341 LINE",
"202 1288 LINE",
"370 1262 LINE",
"161 80 LINE",
"-1 53 LINE",
"-11 0 LINE",
"523 0 LINE",
"533 53 LINE",
"354 80 LINE",
"444 588 LINE"
);
},
{
closed = 1;
nodes = (
"460 678 LINE",
"561 1251 LINE",
"709 1251 LINE SMOOTH",
"899.667 1251 OFFCURVE",
"995 1170.667 OFFCURVE",
"995 1010 CURVE SMOOTH",
"995 798 OFFCURVE",
"858.667 678 OFFCURVE",
"616 678 CURVE SMOOTH"
);
}
);
width = 1251;
}
);
note = R;
unicode = 0052;
},
{
glyphname = S;
lastChange = "2025-02-05 21:33:01 +0000";
layers = (
{
layerId = "10338F47-40ED-49C2-8613-307B859987A6";
paths = (
{
closed = 1;
nodes = (
"24 73 LINE",
"112 17 OFFCURVE",
"249 -20 OFFCURVE",
"417 -20 CURVE SMOOTH",
"755.667 -20 OFFCURVE",
"940 131.333 OFFCURVE",
"940 406 CURVE SMOOTH",
"940 499.333 OFFCURVE",
"904.5 570 OFFCURVE",
"850.5 626 CURVE SMOOTH",
"823.5 654 OFFCURVE",
"790 680.333 OFFCURVE",
"750 705 CURVE SMOOTH",
"710 729.667 OFFCURVE",
"644.667 765.667 OFFCURVE",
"554 813 CURVE SMOOTH",
"435.333 873 OFFCURVE",
"375 941 OFFCURVE",
"375 1025 CURVE SMOOTH",
"375 1181 OFFCURVE",
"474.667 1272 OFFCURVE",
"652 1272 CURVE SMOOTH",
"750.667 1272 OFFCURVE",
"829.333 1244.667 OFFCURVE",
"872 1210 CURVE",
"877 1039 LINE",
"942 1039 LINE",
"991 1318 LINE",
"889.667 1343.333 OFFCURVE",
"781.667 1356 OFFCURVE",
"667 1356 CURVE SMOOTH",
"367 1356 OFFCURVE",
"200 1226.333 OFFCURVE",
"200 989 CURVE SMOOTH",
"200 796.194 OFFCURVE",
"338.494 708.961 OFFCURVE",
"482 634.5 CURVE SMOOTH",
"625.829 559.872 OFFCURVE",
"764 497.708 OFFCURVE",
"764 355 CURVE SMOOTH",
"764 169.667 OFFCURVE",
"641.667 61 OFFCURVE",
"423 61 CURVE SMOOTH",
"304.333 61 OFFCURVE",
"186 113.333 OFFCURVE",
"142 180 CURVE",
"141 371 LINE",
"76 371 LINE"
);
}
);
width = 1024;
}
);
note = S;
unicode = 0053;
},
{
glyphname = T;
lastChange = "2025-02-05 21:33:01 +0000";
layers = (
{
layerId = "10338F47-40ED-49C2-8613-307B859987A6";
paths = (
{
closed = 1;
nodes = (
"795 0 LINE",
"805 53 LINE",
"596 80 LINE",
"803 1253 LINE",
"852 1253 LINE SMOOTH",
"988 1253 OFFCURVE",
"1086 1247 OFFCURVE",
"1146 1235 CURVE",
"1136 1026 LINE",
"1204 1026 LINE",
"1260 1341 LINE",
"190 1341 LINE",
"134 1026 LINE",
"201 1026 LINE",
"265 1235 LINE",
"328.333 1248.333 OFFCURVE",
"426.333 1255 OFFCURVE",
"559 1255 CURVE SMOOTH",
"610 1255 LINE",
"403 80 LINE",
"186 53 LINE",
"176 0 LINE"
);
}
);
width = 1139;
}
);
note = T;
unicode = 0054;
},
{
glyphname = U;
lastChange = "2025-02-05 21:33:01 +0000";
layers = (
{
layerId = "10338F47-40ED-49C2-8613-307B859987A6";
paths = (
{
closed = 1;
nodes = (
"1157 453 LINE SMOOTH",
"1118.333 225 OFFCURVE",
"950.667 92 OFFCURVE",
"696 92 CURVE SMOOTH",
"496 92 OFFCURVE",
"396 179.667 OFFCURVE",
"396 355 CURVE SMOOTH",
"396 387 OFFCURVE",
"399.333 421 OFFCURVE",
"406 457 CURVE SMOOTH",
"547 1262 LINE",
"724 1288 LINE",
"733 1341 LINE",
"197 1341 LINE",
"188 1288 LINE",
"355 1262 LINE",
"212 453 LINE SMOOTH",
"205.333 419.667 OFFCURVE",
"202 384.667 OFFCURVE",
"202 348 CURVE SMOOTH",
"202 109.333 OFFCURVE",
"368.333 -20 OFFCURVE",
"679 -20 CURVE SMOOTH",
"993.667 -20 OFFCURVE",
"1209.667 155.667 OFFCURVE",
"1263 461 CURVE SMOOTH",
"1404 1262 LINE",
"1581 1288 LINE",
"1590 1341 LINE",
"1133 1341 LINE",
"1124 1288 LINE",
"1299 1262 LINE"
);
}
);
width = 1479;
}
);
note = U;
unicode = 0055;
},
{
glyphname = V;
lastChange = "2025-02-05 21:33:01 +0000";
layers = (
{
layerId = "10338F47-40ED-49C2-8613-307B859987A6";
paths = (
{
closed = 1;
nodes = (
"1045 1341 LINE",
"1034 1288 LINE",
"1186 1262 LINE",
"649 283 LINE",
"431 1262 LINE",
"600 1288 LINE",
"610 1341 LINE",
"117 1341 LINE",
"107 1288 LINE",
"234 1262 LINE",
"529 -31 LINE",
"580 -31 LINE",
"1307 1262 LINE",
"1438 1288 LINE",
"1448 1341 LINE"
);
}
);
width = 1251;
}
);
note = V;
unicode = 0056;
},
{
glyphname = W;
lastChange = "2025-02-05 21:33:01 +0000";
layers = (
{
layerId = "10338F47-40ED-49C2-8613-307B859987A6";
paths = (
{
closed = 1;
nodes = (
"1731 1262 LINE",
"1852 1288 LINE",
"1861 1341 LINE",
"1467 1341 LINE",
"1458 1288 LINE",
"1623 1262 LINE",
"1204 324 LINE",
"1053 1247 LINE",
"1007 1247 LINE",
"581 326 LINE",
"441 1262 LINE",
"602 1288 LINE",
"611 1341 LINE",
"144 1341 LINE",
"135 1288 LINE",
"248 1262 LINE",
"443 -31 LINE",
"508 -31 LINE",
"926 867 LINE",
"1072 -31 LINE",
"1135 -31 LINE"
);
}
);
width = 1706;
}
);
note = W;
unicode = 0057;
},
{
glyphname = X;
lastChange = "2025-02-05 21:33:01 +0000";
layers = (
{
layerId = "10338F47-40ED-49C2-8613-307B859987A6";
paths = (
{
closed = 1;
nodes = (
"1155 1262 LINE",
"1307 1288 LINE",
"1317 1341 LINE",
"908 1341 LINE",
"898 1288 LINE",
"1030 1262 LINE",
"711 853 LINE",
"571 1262 LINE",
"715 1288 LINE",
"725 1341 LINE",
"232 1341 LINE",
"222 1288 LINE",
"369 1262 LINE",
"573 686 LINE",
"93 80 LINE",
"-58 53 LINE",
"-68 0 LINE",
"369 0 LINE",
"379 53 LINE",
"217 80 LINE",
"614 587 LINE",
"789 80 LINE",
"625 53 LINE",
"615 0 LINE",
"1128 0 LINE",
"1138 53 LINE",
"990 80 LINE",
"751 753 LINE"
);
}
);
width = 1251;
}
);
note = X;
unicode = 0058;
},
{
glyphname = Y;
lastChange = "2025-02-05 21:33:01 +0000";
layers = (
{
layerId = "10338F47-40ED-49C2-8613-307B859987A6";
paths = (
{
closed = 1;
nodes = (
"688 528 LINE",
"1160 1262 LINE",
"1311 1288 LINE",
"1321 1341 LINE",
"885 1341 LINE",
"875 1288 LINE",
"1051 1262 LINE",
"658 635 LINE",
"470 1262 LINE",
"664 1288 LINE",
"674 1341 LINE",
"127 1341 LINE",
"117 1288 LINE",
"264 1262 LINE",
"494 522 LINE",
"416 80 LINE",
"199 53 LINE",
"189 0 LINE",
"808 0 LINE",
"818 53 LINE",
"609 80 LINE"
);
}
);
width = 1139;
}
);
note = Y;
unicode = 0059;
},
{
glyphname = Z;
lastChange = "2025-02-05 21:33:01 +0000";
layers = (
{
layerId = "10338F47-40ED-49C2-8613-307B859987A6";
paths = (
{
closed = 1;
nodes = (
"42 94 LINE",
"25 0 LINE",
"998 0 LINE",
"1091 373 LINE",
"1021 373 LINE",
"917 117 LINE",
"858.333 103.667 OFFCURVE",
"665.667 84 OFFCURVE",
"507 84 CURVE SMOOTH",
"267 84 LINE",
"1140 1255 LINE",
"1156 1341 LINE",
"283 1341 LINE",
"227 1024 LINE",
"296 1024 LINE",
"364 1235 LINE",
"427.333 1248.333 OFFCURVE",
"541.667 1255 OFFCURVE",
"707 1255 CURVE SMOOTH",
"907 1255 LINE"
);
}
);
width = 1139;
}
);
note = Z;
unicode = 005A;
},
{
glyphname = bracketleft;
lastChange = "2025-02-05 21:33:01 +0000";
layers = (
{
layerId = "10338F47-40ED-49C2-8613-307B859987A6";
paths = (
{
closed = 1;
nodes = (
"574 -274 LINE",
"582 -227 LINE",
"292 -186 LINE",
"560 1333 LINE",
"865 1374 LINE",
"873 1421 LINE",
"417 1421 LINE",
"118 -274 LINE"
);
}
);
width = 797;
}
);
note = bracketleft;
unicode = 005B;
},
{
glyphname = backslash;
lastChange = "2025-02-05 21:33:01 +0000";
layers = (
{
layerId = "10338F47-40ED-49C2-8613-307B859987A6";
paths = (
{
closed = 1;
nodes = (
"369 -20 LINE",
"470 -20 LINE",
"256 1350 LINE",
"158 1350 LINE"
);
}
);
width = 569;
}
);
note = backslash;
unicode = 005C;
},
{
glyphname = bracketright;
lastChange = "2025-02-05 21:33:01 +0000";
layers = (
{
layerId = "10338F47-40ED-49C2-8613-307B859987A6";
paths = (
{
closed = 1;
nodes = (
"406 -274 LINE",
"705 1421 LINE",
"249 1421 LINE",
"241 1374 LINE",
"530 1333 LINE",
"262 -186 LINE",
"-41 -227 LINE",
"-49 -274 LINE"
);
}
);
width = 797;
}
);
note = bracketright;
unicode = 005D;
},
{
glyphname = asciicircum;
lastChange = "2025-02-05 21:33:01 +0000";
layers = (
{
layerId = "10338F47-40ED-49C2-8613-307B859987A6";
paths = (
{
closed = 1;
nodes = (
"72 389 LINE",
"174 389 LINE",
"524 1198 LINE",
"874 389 LINE",
"977 389 LINE",
"549 1341 LINE",
"500 1341 LINE"
);
}
);
width = 864;
}
);
note = asciicircum;
unicode = 005E;
},
{
glyphname = underscore;
lastChange = "2025-02-05 21:33:01 +0000";
layers = (
{
layerId = "10338F47-40ED-49C2-8613-307B859987A6";
paths = (
{
closed = 1;
nodes = (
"1040 -264 LINE",
"1040 -162 LINE",
"-16 -162 LINE",
"-16 -264 LINE"
);
}
);
width = 1024;
}
);
note = underscore;
unicode = 005F;
},
{
glyphname = grave;
lastChange = "2025-02-05 21:33:01 +0000";
layers = (
{
layerId = "10338F47-40ED-49C2-8613-307B859987A6";
paths = (
{
closed = 1;
nodes = (
"665 1118 LINE",
"670 1151 LINE",
"512 1423 LINE",
"309 1423 LINE",
"303 1386 LINE",
"610 1118 LINE"
);
}
);
width = 682;
}
);
note = grave;
unicode = 0060;
},
{
glyphname = a;
lastChange = "2025-02-05 21:33:01 +0000";
layers = (
{
layerId = "10338F47-40ED-49C2-8613-307B859987A6";
paths = (
{
closed = 1;
nodes = (
"947 956 LINE",
"893 956 LINE",
"848 922 LINE",
"776.667 950 OFFCURVE",
"700.667 964 OFFCURVE",
"620 964 CURVE SMOOTH",
"420 964 OFFCURVE",
"239.5 843.833 OFFCURVE",
"137.5 640.5 CURVE SMOOTH",
"86.5 538.833 OFFCURVE",
"61 429.667 OFFCURVE",
"61 313 CURVE SMOOTH",
"61 105 OFFCURVE",
"167.667 -21 OFFCURVE",
"329 -21 CURVE SMOOTH",
"422.333 -21 OFFCURVE",
"525.333 38 OFFCURVE",
"638 156 CURVE",
"609 0 LINE",
"894 0 LINE",
"902 45 LINE",
"789 70 LINE"
);
},
{
closed = 1;
nodes = (
"651 243 LINE",
"561.667 150.333 OFFCURVE",
"479.333 104 OFFCURVE",
"404 104 CURVE SMOOTH",
"302.667 104 OFFCURVE",
"240 196.333 OFFCURVE",
"240 339 CURVE SMOOTH",
"240 524.333 OFFCURVE",
"308.167 708.833 OFFCURVE",
"419.5 809.5 CURVE SMOOTH",
"475.167 859.833 OFFCURVE",
"536.333 885 OFFCURVE",
"603 885 CURVE SMOOTH",
"669.667 885 OFFCURVE",
"708 873 OFFCURVE",
"760 837 CURVE"
);
}
);
width = 1024;
}
);
note = a;
unicode = 0061;
},
{
glyphname = b;
lastChange = "2025-02-05 21:33:01 +0000";
layers = (
{
layerId = "10338F47-40ED-49C2-8613-307B859987A6";
paths = (
{
closed = 1;
nodes = (
"76 64 LINE",
"160 12 OFFCURVE",
"278.667 -20 OFFCURVE",
"396 -20 CURVE SMOOTH",
"602.667 -20 OFFCURVE",
"788.167 103.167 OFFCURVE",
"887.5 306.5 CURVE SMOOTH",
"937.167 408.167 OFFCURVE",
"962 516.333 OFFCURVE",
"962 631 CURVE SMOOTH",
"962 837.667 OFFCURVE",
"853.667 965 OFFCURVE",
"687 965 CURVE SMOOTH",
"592.333 965 OFFCURVE",
"473.667 896.333 OFFCURVE",
"367 787 CURVE",
"381.667 839.667 OFFCURVE",
"394.667 904 OFFCURVE",
"406 980 CURVE SMOOTH",
"480 1421 LINE",
"180 1421 LINE",
"172 1376 LINE",
"305 1352 LINE"
);
},
{
closed = 1;
nodes = (
"354 701 LINE",
"436.667 782.333 OFFCURVE",
"533.333 840 OFFCURVE",
"612 840 CURVE SMOOTH",
"716 840 OFFCURVE",
"783 754.333 OFFCURVE",
"783 605 CURVE SMOOTH",
"783 418.333 OFFCURVE",
"712.833 235.167 OFFCURVE",
"597.5 134.5 CURVE SMOOTH",
"539.833 84.167 OFFCURVE",
"477 59 OFFCURVE",
"409 59 CURVE SMOOTH",
"340.333 59 OFFCURVE",
"286.667 75 OFFCURVE",
"248 107 CURVE"
);
}
);
width = 1024;
}
);
note = b;
unicode = 0062;
},
{
glyphname = c;
lastChange = "2025-02-05 21:32:52 +0000";
layers = (
{
layerId = "10338F47-40ED-49C2-8613-307B859987A6";
paths = (
{
closed = 1;
nodes = (
"744 184 LINE",
"640.667 117.333 OFFCURVE",
"541.333 84 OFFCURVE",
"446 84 CURVE SMOOTH",
"308.667 84 OFFCURVE",
"240 169.333 OFFCURVE",
"240 340 CURVE SMOOTH",
"240 542.667 OFFCURVE",
"312.167 722.333 OFFCURVE",
"423.5 817 CURVE SMOOTH",
"479.167 864.333 OFFCURVE",
"539 888 OFFCURVE",
"603 888 CURVE SMOOTH",
"673 888 OFFCURVE",
"729 867 OFFCURVE",
"771 825 CURVE",
"787 651 LINE",
"842 651 LINE",
"887 913 LINE",
"817.667 942.333 OFFCURVE",
"698.667 965 OFFCURVE",
"604 965 CURVE SMOOTH",
"414.667 965 OFFCURVE",
"226.333 838.833 OFFCURVE",
"133 647.5 CURVE SMOOTH",
"86.333 551.833 OFFCURVE",
"63 446 OFFCURVE",
"63 330 CURVE SMOOTH",
"63 111.333 OFFCURVE",
"185.333 -20 OFFCURVE",
"400 -20 CURVE SMOOTH",
"521.333 -20 OFFCURVE",
"666 42 OFFCURVE",
"774 142 CURVE"
);
}
);
width = 909;
}
);
note = c;
unicode = 0063;
},
{
glyphname = d;
lastChange = "2025-02-05 21:32:52 +0000";
layers = (
{
layerId = "10338F47-40ED-49C2-8613-307B859987A6";
paths = (
{
closed = 1;
nodes = (
"735.667 956.333 OFFCURVE",
"680.667 964 OFFCURVE",
"618 964 CURVE SMOOTH",
"414 964 OFFCURVE",
"233.5 839.167 OFFCURVE",
"135.5 638.5 CURVE SMOOTH",
"86.5 538.167 OFFCURVE",
"62 431 OFFCURVE",
"62 317 CURVE SMOOTH",
"62 113 OFFCURVE",
"165 -21 OFFCURVE",
"329 -21 CURVE SMOOTH",
"422.333 -21 OFFCURVE",
"525.333 38 OFFCURVE",
"638 156 CURVE",
"609 0 LINE",
"894 0 LINE",
"902 45 LINE",
"789 70 LINE",
"1029 1421 LINE",
"705 1421 LINE",
"697 1376 LINE",
"851 1352 LINE",
"808.333 1110 OFFCURVE",
"785.667 973 OFFCURVE",
"783 941 CURVE"
);
},
{
closed = 1;
nodes = (
"651 243 LINE",
"569.667 155 OFFCURVE",
"477.667 104 OFFCURVE",
"403 104 CURVE SMOOTH",
"303 104 OFFCURVE",
"240 196.333 OFFCURVE",
"240 339 CURVE SMOOTH",
"240 524.333 OFFCURVE",
"312.667 713.333 OFFCURVE",
"422 812 CURVE SMOOTH",
"476.667 861.333 OFFCURVE",
"535.333 886 OFFCURVE",
"598 886 CURVE SMOOTH",
"668.667 886 OFFCURVE",
"713.333 867.667 OFFCURVE",
"760 837 CURVE"
);
}
);
width = 1024;
}
);
note = d;
unicode = 0064;
},
{
glyphname = e;
lastChange = "2025-02-05 21:32:52 +0000";
layers = (
{
layerId = "10338F47-40ED-49C2-8613-307B859987A6";
paths = (
{
closed = 1;
nodes = (
"863 882.667 OFFCURVE",
"755 965 OFFCURVE",
"591 965 CURVE SMOOTH",
"408.333 965 OFFCURVE",
"227.5 834.167 OFFCURVE",
"133.5 641.5 CURVE SMOOTH",
"86.5 545.167 OFFCURVE",
"63 441.333 OFFCURVE",
"63 330 CURVE SMOOTH",
"63 104.667 OFFCURVE",
"184 -20 OFFCURVE",
"400 -20 CURVE SMOOTH",
"522.667 -20 OFFCURVE",
"666.333 38 OFFCURVE",
"789 142 CURVE",
"760 184 LINE",
"672 132 OFFCURVE",
"572 84 OFFCURVE",
"452 84 CURVE SMOOTH",
"312 84 OFFCURVE",
"240 170.667 OFFCURVE",
"240 340 CURVE",
"244 413 LINE",
"621.333 438.333 OFFCURVE",
"863 578.667 OFFCURVE",
"863 760 CURVE SMOOTH"
);
},
{
closed = 1;
nodes = (
"293.164 705.654 OFFCURVE",
"431.424 888 OFFCURVE",
"569 888 CURVE SMOOTH",
"646.333 888 OFFCURVE",
"688 834.667 OFFCURVE",
"688 760 CURVE SMOOTH",
"688 609.333 OFFCURVE",
"516 496 OFFCURVE",
"252 476 CURVE"
);
}
);
width = 909;
}
);
note = e;
unicode = 0065;
},
{
glyphname = f;
lastChange = "2025-02-05 21:33:01 +0000";
layers = (
{
layerId = "10338F47-40ED-49C2-8613-307B859987A6";
paths = (
{
closed = 1;
nodes = (
"414 856 LINE",
"623 856 LINE",
"637 940 LINE",
"428 940 LINE",
"457 1096 LINE SMOOTH",
"477 1203.333 OFFCURVE",
"498.667 1274.5 OFFCURVE",
"522 1309.5 CURVE SMOOTH",
"545.333 1344.5 OFFCURVE",
"577.333 1362 OFFCURVE",
"618 1362 CURVE SMOOTH",
"654.667 1362 OFFCURVE",
"682.667 1355 OFFCURVE",
"702 1341 CURVE",
"721 1227 LINE",
"770 1227 LINE",
"805 1423 LINE",
"763.667 1435.667 OFFCURVE",
"717.333 1442 OFFCURVE",
"666 1442 CURVE SMOOTH",
"451.333 1442 OFFCURVE",
"329.333 1307.333 OFFCURVE",
"276 1010 CURVE SMOOTH",
"264 944 LINE",
"94 905 LINE",
"86 856 LINE",
"248 856 LINE",
"23 -436 LINE",
"189 -436 LINE"
);
}
);
width = 569;
}
);
note = f;
unicode = 0066;
},
{
glyphname = g;
lastChange = "2025-02-05 21:32:52 +0000";
layers = (
{
layerId = "10338F47-40ED-49C2-8613-307B859987A6";
paths = (
{
closed = 1;
nodes = (
"310 104 OFFCURVE",
"248 195 OFFCURVE",
"248 339 CURVE SMOOTH",
"248 529.667 OFFCURVE",
"317.333 711 OFFCURVE",
"432 811 CURVE SMOOTH",
"489.333 861 OFFCURVE",
"551.333 886 OFFCURVE",
"618 886 CURVE SMOOTH",
"654 886 OFFCURVE",
"680.833 884 OFFCURVE",
"705.5 880 CURVE SMOOTH",
"728.474 876.274 OFFCURVE",
"756.825 868.294 OFFCURVE",
"786 861 CURVE",
"676 243 LINE",
"589.333 156.333 OFFCURVE",
"492.667 104 OFFCURVE",
"418 104 CURVE SMOOTH"
);
},
{
closed = 1;
nodes = (
"623 -75 LINE SMOOTH",
"591 -261.667 OFFCURVE",
"495.667 -342 OFFCURVE",
"333 -342 CURVE SMOOTH",
"231.667 -342 OFFCURVE",
"154 -315.667 OFFCURVE",
"100 -263 CURVE",
"64 -137 LINE",
"19 -137 LINE",
"1 -365 LINE",
"77 -405 OFFCURVE",
"216.667 -436 OFFCURVE",
"334 -436 CURVE SMOOTH",
"614 -436 OFFCURVE",
"746.667 -316.333 OFFCURVE",
"796 -35 CURVE SMOOTH",
"964 923 LINE",
"864 947 OFFCURVE",
"716 964 OFFCURVE",
"636 964 CURVE SMOOTH",
"432 964 OFFCURVE",
"247.5 839.167 OFFCURVE",
"145.5 638.5 CURVE SMOOTH",
"94.5 538.167 OFFCURVE",
"69 429.667 OFFCURVE",
"69 313 CURVE SMOOTH",
"69 106.333 OFFCURVE",
"172.667 -21 OFFCURVE",
"342 -21 CURVE SMOOTH",
"436.667 -21 OFFCURVE",
"566 54.667 OFFCURVE",
"662 160 CURVE"
);
}
);
width = 1024;
}
);
note = g;
unicode = 0067;
},
{
glyphname = h;
lastChange = "2025-02-05 21:33:01 +0000";
layers = (
{
layerId = "10338F47-40ED-49C2-8613-307B859987A6";
paths = (
{
closed = 1;
nodes = (
"74 0 LINE",
"239 0 LINE",
"350 633 LINE",
"424.667 754.333 OFFCURVE",
"555 849 OFFCURVE",
"655 849 CURVE SMOOTH",
"724.333 849 OFFCURVE",
"755 808 OFFCURVE",
"755 748 CURVE SMOOTH",
"755 722 OFFCURVE",
"747.333 666.667 OFFCURVE",
"732 582 CURVE SMOOTH",
"630 0 LINE",
"931 0 LINE",
"939 45 LINE",
"808 69 LINE",
"878 477.667 OFFCURVE",
"914.333 691.667 OFFCURVE",
"917 711 CURVE SMOOTH",
"919.667 730.333 OFFCURVE",
"921 744.667 OFFCURVE",
"921 754 CURVE SMOOTH",
"921 890 OFFCURVE",
"852.667 965 OFFCURVE",
"718 965 CURVE SMOOTH",
"600.667 965 OFFCURVE",
"473.667 889 OFFCURVE",
"367 749 CURVE",
"383 825 LINE",
"489 1421 LINE",
"201 1421 LINE",
"193 1376 LINE",
"311 1352 LINE"
);
}
);
width = 1024;
}
);
note = h;
unicode = 0068;
},
{
glyphname = i;
lastChange = "2025-02-05 21:33:01 +0000";
layers = (
{
layerId = "10338F47-40ED-49C2-8613-307B859987A6";
paths = (
{
closed = 1;
nodes = (
"445 940 LINE",
"146 940 LINE",
"138 895 LINE",
"267 870 LINE",
"114 0 LINE",
"441 0 LINE",
"449 45 LINE",
"292 70 LINE"
);
},
{
closed = 1;
nodes = (
"507 1307 OFFCURVE",
"458 1356 OFFCURVE",
"398 1356 CURVE SMOOTH",
"339.333 1356 OFFCURVE",
"290 1307 OFFCURVE",
"290 1247 CURVE SMOOTH",
"290 1188.333 OFFCURVE",
"339.333 1139 OFFCURVE",
"398 1139 CURVE SMOOTH",
"458 1139 OFFCURVE",
"507 1188.333 OFFCURVE",
"507 1247 CURVE SMOOTH"
);
}
);
width = 569;
}
);
note = i;
unicode = 0069;
},
{
glyphname = j;
lastChange = "2025-02-05 21:32:52 +0000";
layers = (
{
layerId = "10338F47-40ED-49C2-8613-307B859987A6";
paths = (
{
closed = 1;
nodes = (
"126.333 -436 OFFCURVE",
"237 -308.333 OFFCURVE",
"285 -39 CURVE SMOOTH",
"459 940 LINE",
"152 940 LINE",
"144 895 LINE",
"281 870 LINE",
"111 -90 LINE SMOOTH",
"95 -182 OFFCURVE",
"74.5 -249.333 OFFCURVE",
"49.5 -292 CURVE SMOOTH",
"24.5 -334.667 OFFCURVE",
"-9.667 -356 OFFCURVE",
"-53 -356 CURVE SMOOTH",
"-82.333 -356 OFFCURVE",
"-106 -347 OFFCURVE",
"-124 -329 CURVE",
"-139 -219 LINE",
"-186 -219 LINE",
"-219 -406 LINE",
"-166.333 -426 OFFCURVE",
"-113 -436 OFFCURVE",
"-59 -436 CURVE SMOOTH"
);
},
{
closed = 1;
nodes = (
"519 1307 OFFCURVE",
"470 1356 OFFCURVE",
"410 1356 CURVE SMOOTH",
"351.333 1356 OFFCURVE",
"302 1307 OFFCURVE",
"302 1247 CURVE SMOOTH",
"302 1188.333 OFFCURVE",
"351.333 1139 OFFCURVE",
"410 1139 CURVE SMOOTH",
"470 1139 OFFCURVE",
"519 1188.333 OFFCURVE",
"519 1247 CURVE SMOOTH"
);
}
);
width = 569;
}
);
note = j;
unicode = 006A;
},
{
glyphname = k;
lastChange = "2025-02-05 21:33:01 +0000";
layers = (
{
layerId = "10338F47-40ED-49C2-8613-307B859987A6";
paths = (
{
closed = 1;
nodes = (
"59 0 LINE",
"225 0 LINE",
"287 340 LINE",
"435 479 LINE",
"653 0 LINE",
"889 0 LINE",
"897 45 LINE",
"799 68 LINE",
"556 591 LINE",
"850 872 LINE",
"931 895 LINE",
"939 940 LINE",
"647 940 LINE",
"639 895 LINE",
"733 868 LINE",
"305 453 LINE",
"477 1421 LINE",
"172 1421 LINE",
"164 1376 LINE",
"299 1352 LINE"
);
}
);
width = 909;
}
);
note = k;
unicode = 006B;
},
{
glyphname = l;
lastChange = "2025-02-05 21:33:01 +0000";
layers = (
{
layerId = "10338F47-40ED-49C2-8613-307B859987A6";
paths = (
{
closed = 1;
nodes = (
"524 1421 LINE",
"225 1421 LINE",
"217 1376 LINE",
"346 1352 LINE",
"109 0 LINE",
"436 0 LINE",
"444 45 LINE",
"287 70 LINE"
);
}
);
width = 569;
}
);
note = l;
unicode = 006C;
},
{
glyphname = m;
lastChange = "2025-02-05 21:32:52 +0000";
layers = (
{
layerId = "10338F47-40ED-49C2-8613-307B859987A6";
paths = (
{
closed = 1;
nodes = (
"873 890 OFFCURVE",
"805.333 965 OFFCURVE",
"688 965 CURVE SMOOTH",
"585.333 965 OFFCURVE",
"460.333 878 OFFCURVE",
"367 746 CURVE",
"395 940 LINE",
"117 940 LINE",
"109 895 LINE",
"227 870 LINE",
"74 0 LINE",
"240 0 LINE",
"339 576 LINE SMOOTH",
"351 650.667 OFFCURVE",
"424.667 744.167 OFFCURVE",
"510 803.5 CURVE SMOOTH",
"552.667 833.167 OFFCURVE",
"588.667 848 OFFCURVE",
"618 848 CURVE SMOOTH",
"680.667 848 OFFCURVE",
"709 808 OFFCURVE",
"709 748 CURVE SMOOTH",
"709 724.667 OFFCURVE",
"700.667 669.333 OFFCURVE",
"684 582 CURVE SMOOTH",
"582 0 LINE",
"748 0 LINE",
"847 576 LINE SMOOTH",
"860.333 652 OFFCURVE",
"935.667 750 OFFCURVE",
"1017 806 CURVE SMOOTH",
"1057.667 834 OFFCURVE",
"1092.667 848 OFFCURVE",
"1122 848 CURVE SMOOTH",
"1182 848 OFFCURVE",
"1209 808 OFFCURVE",
"1209 748 CURVE SMOOTH",
"1209 718 OFFCURVE",
"1201.333 662.667 OFFCURVE",
"1186 582 CURVE SMOOTH",
"1083 0 LINE",
"1384 0 LINE",
"1393 45 LINE",
"1262 70 LINE",
"1330 466 OFFCURVE",
"1365.5 675.833 OFFCURVE",
"1368.5 699.5 CURVE SMOOTH",
"1371.5 723.167 OFFCURVE",
"1373 742.333 OFFCURVE",
"1373 757 CURVE SMOOTH",
"1373 891.667 OFFCURVE",
"1304 965 OFFCURVE",
"1192 965 CURVE SMOOTH",
"1086.667 965 OFFCURVE",
"963.667 875.333 OFFCURVE",
"873 746 CURVE"
);
}
);
width = 1479;
}
);
note = m;
unicode = 006D;
},
{
glyphname = n;
lastChange = "2025-02-05 21:32:52 +0000";
layers = (
{
layerId = "10338F47-40ED-49C2-8613-307B859987A6";
paths = (
{
closed = 1;
nodes = (
"755 722 OFFCURVE",
"747.333 666.667 OFFCURVE",
"732 582 CURVE SMOOTH",
"630 0 LINE",
"931 0 LINE",
"939 45 LINE",
"808 69 LINE",
"878 477.667 OFFCURVE",
"914.333 691.667 OFFCURVE",
"917 711 CURVE SMOOTH",
"919.667 730.333 OFFCURVE",
"921 744.667 OFFCURVE",
"921 754 CURVE SMOOTH",
"921 890 OFFCURVE",
"852.667 965 OFFCURVE",
"718 965 CURVE SMOOTH",
"602 965 OFFCURVE",
"479 893 OFFCURVE",
"367 749 CURVE",
"394 941 LINE",
"116 941 LINE",
"108 896 LINE",
"226 871 LINE",
"73 0 LINE",
"239 0 LINE",
"349 630 LINE",
"425 754 OFFCURVE",
"556.333 849 OFFCURVE",
"655 849 CURVE SMOOTH",
"724.333 849 OFFCURVE",
"755 808 OFFCURVE",
"755 748 CURVE SMOOTH"
);
}
);
width = 1024;
}
);
note = n;
unicode = 006E;
},
{
glyphname = o;
lastChange = "2025-02-05 21:32:52 +0000";
layers = (
{
layerId = "10338F47-40ED-49C2-8613-307B859987A6";
paths = (
{
closed = 1;
nodes = (
"237 537.333 OFFCURVE",
"303.833 716.667 OFFCURVE",
"412.5 814 CURVE SMOOTH",
"466.833 862.667 OFFCURVE",
"524.333 887 OFFCURVE",
"585 887 CURVE SMOOTH",
"715.667 887 OFFCURVE",
"788 790 OFFCURVE",
"788 606 CURVE SMOOTH",
"788 412.667 OFFCURVE",
"719.5 232.333 OFFCURVE",
"609.5 135 CURVE SMOOTH",
"554.5 86.333 OFFCURVE",
"496.667 62 OFFCURVE",
"436 62 CURVE SMOOTH",
"310.667 62 OFFCURVE",
"237 160 OFFCURVE",
"237 340 CURVE SMOOTH"
);
},
{
closed = 1;
nodes = (
"631 -20 OFFCURVE",
"802 90.333 OFFCURVE",
"894 273 CURVE SMOOTH",
"940 364.333 OFFCURVE",
"963 463.667 OFFCURVE",
"963 571 CURVE SMOOTH",
"963 812.333 OFFCURVE",
"818.333 965 OFFCURVE",
"597 965 CURVE SMOOTH",
"393 965 OFFCURVE",
"222 854.667 OFFCURVE",
"130 672 CURVE SMOOTH",
"84 580.667 OFFCURVE",
"61 481.333 OFFCURVE",
"61 374 CURVE SMOOTH",
"61 132.667 OFFCURVE",
"205.667 -20 OFFCURVE",
"427 -20 CURVE SMOOTH"
);
}
);
width = 1024;
}
);
note = o;
unicode = 006F;
},
{
glyphname = p;
lastChange = "2025-02-05 21:33:01 +0000";
layers = (
{
layerId = "10338F47-40ED-49C2-8613-307B859987A6";
paths = (
{
closed = 1;
nodes = (
"266.333 -10 OFFCURVE",
"341.667 -20 OFFCURVE",
"403 -20 CURVE SMOOTH",
"604.333 -20 OFFCURVE",
"787 101.5 OFFCURVE",
"887 303.5 CURVE SMOOTH",
"937 404.5 OFFCURVE",
"962 513.667 OFFCURVE",
"962 631 CURVE SMOOTH",
"962 839 OFFCURVE",
"855.333 965 OFFCURVE",
"694 965 CURVE SMOOTH",
"600.667 965 OFFCURVE",
"495.667 906 OFFCURVE",
"379 788 CURVE",
"398 940 LINE",
"133 940 LINE",
"125 895 LINE",
"228 870 LINE",
"9 -365 LINE",
"-112 -389 LINE",
"-120 -436 LINE",
"326 -436 LINE",
"334 -389 LINE",
"174 -365 LINE",
"222 -88 LINE",
"233 2 LINE"
);
},
{
closed = 1;
nodes = (
"366 701 LINE",
"440.667 782.333 OFFCURVE",
"548.333 840 OFFCURVE",
"619 840 CURVE SMOOTH",
"719 840 OFFCURVE",
"783 753 OFFCURVE",
"783 605 CURVE SMOOTH",
"783 422.333 OFFCURVE",
"711.833 229.333 OFFCURVE",
"604.5 132 CURVE SMOOTH",
"550.833 83.333 OFFCURVE",
"491 59 OFFCURVE",
"425 59 CURVE SMOOTH",
"354.333 59 OFFCURVE",
"298.333 75 OFFCURVE",
"257 107 CURVE"
);
}
);
width = 1024;
}
);
note = p;
unicode = 0070;
},
{
glyphname = q;
lastChange = "2025-02-05 21:32:52 +0000";
layers = (
{
layerId = "10338F47-40ED-49C2-8613-307B859987A6";
paths = (
{
closed = 1;
nodes = (
"305.667 107 OFFCURVE",
"243 188.333 OFFCURVE",
"243 343 CURVE SMOOTH",
"243 536.333 OFFCURVE",
"307.167 718.833 OFFCURVE",
"414.5 815.5 CURVE SMOOTH",
"468.167 863.833 OFFCURVE",
"528 888 OFFCURVE",
"594 888 CURVE SMOOTH",
"662 888 OFFCURVE",
"730 879 OFFCURVE",
"798 861 CURVE",
"677 178 LINE",
"614.333 136.667 OFFCURVE",
"515 107 OFFCURVE",
"419 107 CURVE SMOOTH"
);
},
{
closed = 1;
nodes = (
"657 57 OFFCURVE",
"644.667 3 OFFCURVE",
"634 -55 CURVE SMOOTH",
"565 -436 LINE",
"856 -436 LINE",
"864 -389 LINE",
"743 -365 LINE",
"976 923 LINE",
"892 943 OFFCURVE",
"731.333 965 OFFCURVE",
"638 965 CURVE SMOOTH",
"300.17 965 OFFCURVE",
"68 694.448 OFFCURVE",
"68 318 CURVE SMOOTH",
"68 94 OFFCURVE",
"167.333 -20 OFFCURVE",
"350 -20 CURVE SMOOTH",
"448.667 -20 OFFCURVE",
"568.333 29.667 OFFCURVE",
"671 107 CURVE"
);
}
);
width = 1024;
}
);
note = q;
unicode = 0071;
},
{
glyphname = r;
lastChange = "2025-02-05 21:32:52 +0000";
layers = (
{
layerId = "10338F47-40ED-49C2-8613-307B859987A6";
paths = (
{
closed = 1;
nodes = (
"601.333 965 OFFCURVE",
"472 878.667 OFFCURVE",
"372 728 CURVE",
"403 940 LINE",
"126 940 LINE",
"118 895 LINE",
"236 870 LINE",
"83 0 LINE",
"249 0 LINE",
"356 616 LINE",
"450.667 749.333 OFFCURVE",
"571.333 838 OFFCURVE",
"678 838 CURVE",
"716 711 LINE",
"759 711 LINE",
"803 957 LINE",
"783.667 962.333 OFFCURVE",
"757.333 965 OFFCURVE",
"724 965 CURVE SMOOTH"
);
}
);
width = 797;
}
);
note = r;
unicode = 0072;
},
{
glyphname = s;
lastChange = "2025-02-05 21:32:52 +0000";
layers = (
{
layerId = "10338F47-40ED-49C2-8613-307B859987A6";
paths = (
{
closed = 1;
nodes = (
"692 384 OFFCURVE",
"630.667 463 OFFCURVE",
"492 535 CURVE SMOOTH",
"414 575 OFFCURVE",
"361 608.667 OFFCURVE",
"333 636 CURVE SMOOTH",
"305 663.333 OFFCURVE",
"291 695 OFFCURVE",
"291 731 CURVE SMOOTH",
"291 836.333 OFFCURVE",
"361.667 885 OFFCURVE",
"471 885 CURVE SMOOTH",
"539.667 885 OFFCURVE",
"595 866.333 OFFCURVE",
"637 829 CURVE",
"651 721 LINE",
"698 721 LINE",
"735 930 LINE",
"631.667 953.333 OFFCURVE",
"542.333 965 OFFCURVE",
"467 965 CURVE SMOOTH",
"256.333 965 OFFCURVE",
"131 864 OFFCURVE",
"131 688 CURVE SMOOTH",
"131 581.333 OFFCURVE",
"195.333 505.333 OFFCURVE",
"330 440 CURVE SMOOTH",
"470 372 OFFCURVE",
"528 316.667 OFFCURVE",
"528 238 CURVE SMOOTH",
"528 118.667 OFFCURVE",
"455 59 OFFCURVE",
"309 59 CURVE SMOOTH",
"229 59 OFFCURVE",
"162.667 93.667 OFFCURVE",
"128 131 CURVE",
"111 268 LINE",
"66 268 LINE",
"25 42 LINE",
"119.667 0.667 OFFCURVE",
"213 -20 OFFCURVE",
"305 -20 CURVE SMOOTH",
"565 -20 OFFCURVE",
"692 74.667 OFFCURVE",
"692 276 CURVE SMOOTH"
);
}
);
width = 797;
}
);
note = s;
unicode = 0073;
},
{
glyphname = t;
lastChange = "2025-02-05 21:32:52 +0000";
layers = (
{
layerId = "10338F47-40ED-49C2-8613-307B859987A6";
paths = (
{
closed = 1;
nodes = (
"264 201.333 OFFCURVE",
"270 245.667 OFFCURVE",
"282 307 CURVE SMOOTH",
"379 856 LINE",
"594 856 LINE",
"610 940 LINE",
"395 940 LINE",
"432 1153 LINE",
"368 1153 LINE",
"231 940 LINE",
"98 901 LINE",
"90 856 LINE",
"213 856 LINE",
"143.667 465.333 OFFCURVE",
"107.167 256.833 OFFCURVE",
"103.5 230.5 CURVE SMOOTH",
"99.833 204.167 OFFCURVE",
"98 181.333 OFFCURVE",
"98 162 CURVE SMOOTH",
"98 47.333 OFFCURVE",
"162.667 -20 OFFCURVE",
"268 -20 CURVE SMOOTH",
"352 -20 OFFCURVE",
"435 9 OFFCURVE",
"517 67 CURVE",
"496 114 LINE",
"443.333 94 OFFCURVE",
"392.667 84 OFFCURVE",
"344 84 CURVE SMOOTH",
"297.333 84 OFFCURVE",
"264 114 OFFCURVE",
"264 174 CURVE SMOOTH"
);
}
);
width = 569;
}
);
note = t;
unicode = 0074;
},
{
glyphname = u;
lastChange = "2025-02-05 21:32:52 +0000";
layers = (
{
layerId = "10338F47-40ED-49C2-8613-307B859987A6";
paths = (
{
closed = 1;
nodes = (
"268 219.667 OFFCURVE",
"275.667 275 OFFCURVE",
"291 359 CURVE SMOOTH",
"393 940 LINE",
"112 940 LINE",
"104 895 LINE",
"215 871 LINE",
"147 476.333 OFFCURVE",
"111.167 266.167 OFFCURVE",
"107.5 240.5 CURVE SMOOTH",
"103.833 214.833 OFFCURVE",
"102 197 OFFCURVE",
"102 187 CURVE SMOOTH",
"102 51 OFFCURVE",
"170.333 -24 OFFCURVE",
"305 -24 CURVE SMOOTH",
"422.333 -24 OFFCURVE",
"545.333 50.333 OFFCURVE",
"656 193 CURVE",
"629 0 LINE",
"907 0 LINE",
"915 45 LINE",
"797 70 LINE",
"950 940 LINE",
"784 940 LINE",
"673 308 LINE",
"598.333 186.667 OFFCURVE",
"468 92 OFFCURVE",
"368 92 CURVE SMOOTH",
"298.667 92 OFFCURVE",
"268 133 OFFCURVE",
"268 193 CURVE SMOOTH"
);
}
);
width = 1024;
}
);
note = u;
unicode = 0075;
},
{
glyphname = v;
lastChange = "2025-02-05 21:32:52 +0000";
layers = (
{
layerId = "10338F47-40ED-49C2-8613-307B859987A6";
paths = (
{
closed = 1;
nodes = (
"751 747.667 OFFCURVE",
"729.667 683.333 OFFCURVE",
"687 614 CURVE SMOOTH",
"438 208 LINE",
"293 940 LINE",
"37 940 LINE",
"28 895 LINE",
"141 870 LINE",
"330 -20 LINE",
"403 -20 LINE",
"826 657 LINE SMOOTH",
"881.333 745 OFFCURVE",
"909 818.333 OFFCURVE",
"909 877 CURVE SMOOTH",
"909 903.667 OFFCURVE",
"900.333 924.667 OFFCURVE",
"883 940 CURVE",
"693 940 LINE",
"685 895 LINE",
"717 885.667 OFFCURVE",
"751 856.333 OFFCURVE",
"751 807 CURVE SMOOTH"
);
}
);
width = 909;
}
);
note = v;
unicode = 0076;
},
{
glyphname = w;
lastChange = "2025-02-05 21:33:01 +0000";
layers = (
{
layerId = "10338F47-40ED-49C2-8613-307B859987A6";
paths = (
{
closed = 1;
nodes = (
"1268 657 LINE SMOOTH",
"1323.333 758.333 OFFCURVE",
"1351 831.667 OFFCURVE",
"1351 877 CURVE SMOOTH",
"1351 903.667 OFFCURVE",
"1342.333 924.667 OFFCURVE",
"1325 940 CURVE",
"1135 940 LINE",
"1127 895 LINE",
"1159 885.667 OFFCURVE",
"1193 856.333 OFFCURVE",
"1193 807 CURVE SMOOTH",
"1193 757 OFFCURVE",
"1174 694 OFFCURVE",
"1136 618 CURVE SMOOTH",
"939 229 LINE",
"817 834 LINE",
"742 834 LINE",
"433 233 LINE",
"302 940 LINE",
"57 940 LINE",
"49 895 LINE",
"151 870 LINE",
"322 -20 LINE",
"392 -20 LINE",
"710 599 LINE",
"834 -20 LINE",
"900 -20 LINE"
);
}
);
width = 1366;
}
);
note = w;
unicode = 0077;
},
{
glyphname = x;
lastChange = "2025-02-05 21:32:52 +0000";
layers = (
{
layerId = "10338F47-40ED-49C2-8613-307B859987A6";
paths = (
{
closed = 1;
nodes = (
"142 124 OFFCURVE",
"174.667 165.333 OFFCURVE",
"248 236 CURVE SMOOTH",
"419 400 LINE",
"586 0 LINE",
"842 0 LINE",
"850 45 LINE",
"734 66 LINE",
"542 506 LINE",
"756 707 LINE SMOOTH",
"848 794.333 OFFCURVE",
"894 857.667 OFFCURVE",
"894 897 CURVE SMOOTH",
"894 915 OFFCURVE",
"887 929.333 OFFCURVE",
"873 940 CURVE",
"696 940 LINE",
"688 895 LINE",
"715.333 885.667 OFFCURVE",
"732 878.5 OFFCURVE",
"738 873.5 CURVE SMOOTH",
"744 868.5 OFFCURVE",
"747 862.667 OFFCURVE",
"747 856 CURVE SMOOTH",
"747 839.333 OFFCURVE",
"738.333 819.333 OFFCURVE",
"721 796 CURVE SMOOTH",
"703.667 772.667 OFFCURVE",
"673.667 740.667 OFFCURVE",
"631 700 CURVE SMOOTH",
"507 582 LINE",
"362 940 LINE",
"114 940 LINE",
"106 895 LINE",
"213 870 LINE",
"385 475 LINE",
"112 221 LINE SMOOTH",
"62.667 175.667 OFFCURVE",
"27.5 139.333 OFFCURVE",
"6.5 112 CURVE SMOOTH",
"-14.5 84.667 OFFCURVE",
"-25 61.667 OFFCURVE",
"-25 43 CURVE SMOOTH",
"-25 23 OFFCURVE",
"-19.667 8.667 OFFCURVE",
"-9 0 CURVE",
"176 0 LINE",
"184 45 LINE",
"156 52.333 OFFCURVE",
"142 65.333 OFFCURVE",
"142 84 CURVE SMOOTH"
);
}
);
width = 909;
}
);
note = x;
unicode = 0078;
},
{
glyphname = y;
lastChange = "2025-02-05 21:33:01 +0000";
layers = (
{
layerId = "10338F47-40ED-49C2-8613-307B859987A6";
paths = (
{
closed = 1;
nodes = (
"44 895 LINE",
"156 870 LINE",
"339 12 LINE",
"294 -70 LINE SMOOTH",
"194 -250 OFFCURVE",
"99 -340 OFFCURVE",
"9 -340 CURVE SMOOTH",
"-29 -340 OFFCURVE",
"-56.333 -332.333 OFFCURVE",
"-73 -317 CURVE",
"-89 -221 LINE",
"-134 -221 LINE",
"-171 -424 LINE",
"-125.667 -436 OFFCURVE",
"-76 -442 OFFCURVE",
"-22 -442 CURVE SMOOTH",
"79.333 -442 OFFCURVE",
"161.833 -393 OFFCURVE",
"250.5 -285 CURVE SMOOTH",
"294.833 -231 OFFCURVE",
"355 -139.333 OFFCURVE",
"431 -10 CURVE SMOOTH",
"827 657 LINE SMOOTH",
"882.333 751 OFFCURVE",
"910 824.333 OFFCURVE",
"910 877 CURVE SMOOTH",
"910 903.667 OFFCURVE",
"901.333 924.667 OFFCURVE",
"884 940 CURVE",
"694 940 LINE",
"686 895 LINE",
"718 885.667 OFFCURVE",
"752 856.333 OFFCURVE",
"752 807 CURVE SMOOTH",
"752 753 OFFCURVE",
"730.667 688.667 OFFCURVE",
"688 614 CURVE SMOOTH",
"453 208 LINE",
"308 940 LINE",
"52 940 LINE"
);
}
);
width = 909;
}
);
note = y;
unicode = 0079;
},
{
glyphname = z;
lastChange = "2025-02-05 21:33:01 +0000";
layers = (
{
layerId = "10338F47-40ED-49C2-8613-307B859987A6";
paths = (
{
closed = 1;
nodes = (
"645 0 LINE",
"717 274 LINE",
"670 274 LINE",
"594 127 LINE",
"547.333 97.667 OFFCURVE",
"471.667 80 OFFCURVE",
"397 80 CURVE SMOOTH",
"200 80 LINE",
"762 891 LINE",
"770 940 LINE",
"158 940 LINE",
"113 690 LINE",
"160 690 LINE",
"215 825 LINE",
"247 846.333 OFFCURVE",
"326.333 860 OFFCURVE",
"401 860 CURVE SMOOTH",
"550 860 LINE",
"-14 45 LINE",
"-23 0 LINE"
);
}
);
width = 797;
}
);
note = z;
unicode = 007A;
},
{
glyphname = braceleft;
lastChange = "2025-02-05 21:32:52 +0000";
layers = (
{
layerId = "10338F47-40ED-49C2-8613-307B859987A6";
paths = (
{
closed = 1;
nodes = (
"502 -274 LINE",
"510 -227 LINE",
"448 -227 LINE SMOOTH",
"356 -227 OFFCURVE",
"310 -181 OFFCURVE",
"310 -89 CURVE SMOOTH",
"310 -65.667 OFFCURVE",
"312.667 -40 OFFCURVE",
"318 -12 CURVE SMOOTH",
"377 322 LINE SMOOTH",
"380.333 338.667 OFFCURVE",
"382 357.333 OFFCURVE",
"382 378 CURVE SMOOTH",
"382 482 OFFCURVE",
"323.333 552.333 OFFCURVE",
"230 575 CURVE",
"230 578 LINE",
"351.333 603.333 OFFCURVE",
"443.333 703.667 OFFCURVE",
"466 829 CURVE SMOOTH",
"525 1159 LINE SMOOTH",
"550.333 1300.333 OFFCURVE",
"609.667 1374 OFFCURVE",
"731 1374 CURVE SMOOTH",
"793 1374 LINE",
"801 1421 LINE",
"666 1421 LINE SMOOTH",
"491.333 1421 OFFCURVE",
"386.333 1316 OFFCURVE",
"353 1128 CURVE SMOOTH",
"301 834 LINE SMOOTH",
"273.667 679.333 OFFCURVE",
"188.333 600.667 OFFCURVE",
"45 598 CURVE",
"37 553 LINE",
"162.333 546.333 OFFCURVE",
"217 494 OFFCURVE",
"217 386 CURVE SMOOTH",
"217 362 OFFCURVE",
"214.667 338.333 OFFCURVE",
"210 315 CURVE SMOOTH",
"158 20 LINE SMOOTH",
"152.667 -10.667 OFFCURVE",
"150 -37.667 OFFCURVE",
"150 -61 CURVE SMOOTH",
"150 -194.333 OFFCURVE",
"221.667 -274 OFFCURVE",
"367 -274 CURVE SMOOTH"
);
}
);
width = 819;
}
);
note = braceleft;
unicode = 007B;
},
{
glyphname = bar;
lastChange = "2025-02-05 21:33:01 +0000";
layers = (
{
layerId = "10338F47-40ED-49C2-8613-307B859987A6";
paths = (
{
closed = 1;
nodes = (
"369 -442 LINE",
"369 1421 LINE",
"267 1421 LINE",
"267 -442 LINE"
);
}
);
width = 563;
}
);
note = bar;
unicode = 007C;
},
{
glyphname = braceright;
lastChange = "2025-02-05 21:33:01 +0000";
layers = (
{
layerId = "10338F47-40ED-49C2-8613-307B859987A6";
paths = (
{
closed = 1;
nodes = (
"172 -274 LINE SMOOTH",
"340 -274 OFFCURVE",
"450.667 -165.333 OFFCURVE",
"484 20 CURVE SMOOTH",
"536 315 LINE SMOOTH",
"561.333 467 OFFCURVE",
"643.667 547.667 OFFCURVE",
"793 553 CURVE",
"801 598 LINE",
"686.333 602 OFFCURVE",
"621 649 OFFCURVE",
"621 765 CURVE SMOOTH",
"621 785.667 OFFCURVE",
"623 808.667 OFFCURVE",
"627 834 CURVE SMOOTH",
"679 1128 LINE SMOOTH",
"684.333 1158.667 OFFCURVE",
"687 1186.667 OFFCURVE",
"687 1212 CURVE SMOOTH",
"687 1351.333 OFFCURVE",
"615 1421 OFFCURVE",
"471 1421 CURVE SMOOTH",
"335 1421 LINE",
"327 1374 LINE",
"389 1374 LINE SMOOTH",
"486.333 1374 OFFCURVE",
"527 1328 OFFCURVE",
"527 1236 CURVE SMOOTH",
"527 1214 OFFCURVE",
"524.333 1188.333 OFFCURVE",
"519 1159 CURVE SMOOTH",
"460 829 LINE",
"456 777 LINE",
"456 671.667 OFFCURVE",
"516 599.333 OFFCURVE",
"608 578 CURVE",
"608 575 LINE",
"482.667 547 OFFCURVE",
"393.667 450 OFFCURVE",
"371 322 CURVE SMOOTH",
"312 -12 LINE SMOOTH",
"286.667 -153.333 OFFCURVE",
"227.333 -227 OFFCURVE",
"106 -227 CURVE SMOOTH",
"44 -227 LINE",
"36 -274 LINE"
);
}
);
width = 819;
}
);
note = braceright;
unicode = 007D;
},
{
glyphname = asciitilde;
lastChange = "2025-02-05 21:32:52 +0000";
layers = (
{
layerId = "10338F47-40ED-49C2-8613-307B859987A6";
paths = (
{
closed = 1;
nodes = (
"916.333 502 OFFCURVE",
"984.333 555 OFFCURVE",
"1027 647 CURVE SMOOTH",
"1048.333 693 OFFCURVE",
"1064.667 759.333 OFFCURVE",
"1076 846 CURVE",
"973 846 LINE",
"947.667 663.333 OFFCURVE",
"899 604 OFFCURVE",
"807 604 CURVE SMOOTH",
"783.667 604 OFFCURVE",
"758.167 612.167 OFFCURVE",
"730.5 628.5 CURVE SMOOTH",
"702.833 644.833 OFFCURVE",
"660.333 677 OFFCURVE",
"603 725 CURVE SMOOTH",
"503 809 OFFCURVE",
"427.667 846 OFFCURVE",
"353 846 CURVE SMOOTH",
"195.667 846 OFFCURVE",
"108 751.333 OFFCURVE",
"84 502 CURVE",
"185 502 LINE",
"202.333 678 OFFCURVE",
"250.333 743 OFFCURVE",
"353 743 CURVE SMOOTH",
"403.667 743 OFFCURVE",
"463.333 707 OFFCURVE",
"562 623 CURVE SMOOTH",
"654.667 542.333 OFFCURVE",
"736.333 502 OFFCURVE",
"807 502 CURVE SMOOTH"
);
}
);
width = 1108;
}
);
note = asciitilde;
unicode = 007E;
},
{
glyphname = Aring;
lastChange = "2025-02-05 21:33:01 +0000";
layers = (
{
layerId = "10338F47-40ED-49C2-8613-307B859987A6";
paths = (
{
closed = 1;
nodes = (
"993 1587 OFFCURVE",
"902 1678 OFFCURVE",
"790 1678 CURVE SMOOTH",
"678 1678 OFFCURVE",
"587 1587 OFFCURVE",
"587 1475 CURVE SMOOTH",
"587 1407 OFFCURVE",
"619.333 1347.333 OFFCURVE",
"670 1310 CURVE",
"10 80 LINE",
"-102 53 LINE",
"-112 0 LINE",
"254 0 LINE",
"264 53 LINE",
"129 80 LINE",
"334 467 LINE",
"862 467 LINE",
"926 80 LINE",
"783 53 LINE",
"772 0 LINE",
"1247 0 LINE",
"1258 53 LINE",
"1133 80 LINE",
"893 1300 LINE",
"953 1334.667 OFFCURVE",
"993 1399 OFFCURVE",
"993 1475 CURVE SMOOTH"
);
},
{
closed = 1;
nodes = (
"846 557 LINE",
"379 557 LINE",
"723 1208 LINE"
);
},
{
closed = 1;
nodes = (
"913 1404.333 OFFCURVE",
"854 1352 OFFCURVE",
"790 1352 CURVE SMOOTH",
"785 1352 LINE SMOOTH",
"719.667 1352 OFFCURVE",
"667 1408.333 OFFCURVE",
"667 1475 CURVE SMOOTH",
"667 1543 OFFCURVE",
"722 1598 OFFCURVE",
"790 1598 CURVE SMOOTH",
"858 1598 OFFCURVE",
"913 1543 OFFCURVE",
"913 1475 CURVE SMOOTH"
);
}
);
width = 1251;
}
);
note = Aring;
unicode = 00C5;
},
{
glyphname = dagger;
lastChange = "2025-02-05 21:33:01 +0000";
layers = (
{
layerId = "10338F47-40ED-49C2-8613-307B859987A6";
paths = (
{
closed = 1;
nodes = (
"625 940 LINE",
"1033 893 LINE",
"1060 1049 LINE",
"637 1006 LINE",
"757 1421 LINE",
"601 1421 LINE",
"571 1006 LINE",
"162 1049 LINE",
"135 893 LINE",
"559 940 LINE",
"468 780 LINE",
"361 -240 LINE",
"407 -240 LINE",
"664 780 LINE"
);
}
);
width = 1024;
}
);
note = dagger;
unicode = 2020;
},
{
glyphname = degree;
lastChange = "2025-02-05 21:32:52 +0000";
layers = (
{
layerId = "10338F47-40ED-49C2-8613-307B859987A6";
paths = (
{
closed = 1;
nodes = (
"164 877.667 OFFCURVE",
"300.667 741 OFFCURVE",
"474 741 CURVE SMOOTH",
"583.333 741 OFFCURVE",
"685.833 797.833 OFFCURVE",
"742.5 894.5 CURVE SMOOTH",
"770.833 942.833 OFFCURVE",
"785 995 OFFCURVE",
"785 1051 CURVE SMOOTH",
"785 1163 OFFCURVE",
"725 1265.167 OFFCURVE",
"629 1320.5 CURVE SMOOTH",
"581 1348.167 OFFCURVE",
"529.333 1362 OFFCURVE",
"474 1362 CURVE SMOOTH",
"363.333 1362 OFFCURVE",
"259.667 1302 OFFCURVE",
"205 1206 CURVE SMOOTH",
"177.667 1158 OFFCURVE",
"164 1106.333 OFFCURVE",
"164 1051 CURVE SMOOTH"
);
},
{
closed = 1;
nodes = (
"266 1171 OFFCURVE",
"360.667 1262 OFFCURVE",
"474 1262 CURVE SMOOTH",
"591.333 1262 OFFCURVE",
"683 1169.667 OFFCURVE",
"683 1051 CURVE SMOOTH",
"683 933.667 OFFCURVE",
"591.333 841 OFFCURVE",
"474 841 CURVE SMOOTH",
"360.667 841 OFFCURVE",
"266 932.333 OFFCURVE",
"266 1051 CURVE SMOOTH"
);
}
);
width = 819;
}
);
note = degree;
unicode = 00B0;
},
{
glyphname = cent;
lastChange = "2025-02-05 21:32:52 +0000";
layers = (
{
layerId = "10338F47-40ED-49C2-8613-307B859987A6";
paths = (
{
closed = 1;
nodes = (
"834 389 LINE",
"744 329.667 OFFCURVE",
"656.667 296.667 OFFCURVE",
"572 290 CURVE",
"713 1092 LINE",
"774.333 1088 OFFCURVE",
"823.667 1067.333 OFFCURVE",
"861 1030 CURVE",
"877 856 LINE",
"932 856 LINE",
"977 1118 LINE",
"905.667 1146.667 OFFCURVE",
"822.333 1163.667 OFFCURVE",
"727 1169 CURVE",
"757 1341 LINE",
"675 1341 LINE",
"644 1167 LINE",
"468 1145.667 OFFCURVE",
"305.833 1026.167 OFFCURVE",
"218.5 841.5 CURVE SMOOTH",
"174.833 749.167 OFFCURVE",
"153 647 OFFCURVE",
"153 535 CURVE SMOOTH",
"153 324.333 OFFCURVE",
"268.333 193 OFFCURVE",
"471 185 CURVE",
"439 0 LINE",
"521 0 LINE",
"554 190 LINE",
"659.333 206 OFFCURVE",
"772 264.333 OFFCURVE",
"864 347 CURVE"
);
},
{
closed = 1;
nodes = (
"330 814.333 OFFCURVE",
"454.333 1036 OFFCURVE",
"629 1084 CURVE",
"490 293 LINE",
"383.333 311.667 OFFCURVE",
"330 395.667 OFFCURVE",
"330 545 CURVE SMOOTH"
);
}
);
width = 1024;
}
);
note = cent;
unicode = 00A2;
},
{
glyphname = sterling;
lastChange = "2025-02-05 21:33:01 +0000";
layers = (
{
layerId = "10338F47-40ED-49C2-8613-307B859987A6";
paths = (
{
closed = 1;
nodes = (
"201 154 LINE",
"333 252.667 OFFCURVE",
"394.333 343 OFFCURVE",
"413 459 CURVE SMOOTH",
"420.333 503 OFFCURVE",
"425 559.667 OFFCURVE",
"427 629 CURVE",
"689 629 LINE",
"704 711 LINE",
"426 711 LINE",
"422 851 LINE SMOOTH",
"422 1120.333 OFFCURVE",
"530.333 1272 OFFCURVE",
"725 1272 CURVE SMOOTH",
"791.667 1272 OFFCURVE",
"865.333 1250 OFFCURVE",
"908 1222 CURVE",
"915 1035 LINE",
"980 1035 LINE",
"1025 1313 LINE",
"927 1341.667 OFFCURVE",
"832 1356 OFFCURVE",
"740 1356 CURVE SMOOTH",
"425.333 1356 OFFCURVE",
"251 1190 OFFCURVE",
"251 894 CURVE SMOOTH",
"251 835.333 OFFCURVE",
"259.333 774.333 OFFCURVE",
"276 711 CURVE",
"149 711 LINE",
"134 629 LINE",
"296 629 LINE",
"312 563.667 OFFCURVE",
"320 513 OFFCURVE",
"320 477 CURVE SMOOTH",
"320 373 OFFCURVE",
"259.333 278.667 OFFCURVE",
"138 188 CURVE SMOOTH",
"46 117 LINE",
"26 0 LINE",
"864 0 LINE",
"891 154 LINE"
);
}
);
width = 1024;
}
);
note = sterling;
unicode = 00A3;
},
{
glyphname = section;
lastChange = "2025-02-05 21:32:52 +0000";
layers = (
{
layerId = "10338F47-40ED-49C2-8613-307B859987A6";
paths = (
{
closed = 1;
nodes = (
"784 173 OFFCURVE",
"731.667 256 OFFCURVE",
"597 340 CURVE",
"802.333 368 OFFCURVE",
"919 482 OFFCURVE",
"919 654 CURVE SMOOTH",
"919 778.823 OFFCURVE",
"845.382 854.788 OFFCURVE",
"699 932 CURVE SMOOTH",
"625.667 970 OFFCURVE",
"577.167 997.833 OFFCURVE",
"553.5 1015.5 CURVE SMOOTH",
"506.167 1050.833 OFFCURVE",
"478 1089.667 OFFCURVE",
"478 1143 CURVE SMOOTH",
"478 1256.333 OFFCURVE",
"551 1309 OFFCURVE",
"667 1309 CURVE SMOOTH",
"739.667 1309 OFFCURVE",
"797.667 1290.333 OFFCURVE",
"841 1253 CURVE",
"855 1145 LINE",
"900 1145 LINE",
"936 1354 LINE",
"831.333 1377.333 OFFCURVE",
"740.333 1389 OFFCURVE",
"663 1389 CURVE SMOOTH",
"443 1389 OFFCURVE",
"320 1276.667 OFFCURVE",
"320 1090 CURVE SMOOTH",
"320 991.333 OFFCURVE",
"369.333 914.333 OFFCURVE",
"496 845 CURVE",
"292 815.667 OFFCURVE",
"185 704.667 OFFCURVE",
"185 542 CURVE SMOOTH",
"185 427.333 OFFCURVE",
"254.667 340 OFFCURVE",
"404 256 CURVE SMOOTH",
"560 168 OFFCURVE",
"622 104.333 OFFCURVE",
"622 19 CURVE SMOOTH",
"622 -107.667 OFFCURVE",
"540.333 -181 OFFCURVE",
"383 -181 CURVE SMOOTH",
"300.333 -181 OFFCURVE",
"211 -149 OFFCURVE",
"171 -109 CURVE",
"152 28 LINE",
"107 28 LINE",
"66 -202 LINE",
"139.333 -234 OFFCURVE",
"269.333 -256 OFFCURVE",
"372 -256 CURVE SMOOTH",
"646.667 -256 OFFCURVE",
"784 -147.667 OFFCURVE",
"784 69 CURVE SMOOTH"
);
},
{
closed = 1;
nodes = (
"757 478.667 OFFCURVE",
"675.667 410.667 OFFCURVE",
"493 404 CURVE",
"401 448 OFFCURVE",
"343 500.667 OFFCURVE",
"343 586 CURVE SMOOTH",
"343 704.667 OFFCURVE",
"444.333 782 OFFCURVE",
"599 790 CURVE",
"716.333 728.667 OFFCURVE",
"757 676 OFFCURVE",
"757 604 CURVE SMOOTH"
);
}
);
width = 1024;
}
);
note = section;
unicode = 00A7;
},
{
glyphname = bullet;
lastChange = "2025-02-05 21:32:52 +0000";
layers = (
{
layerId = "10338F47-40ED-49C2-8613-307B859987A6";
paths = (
{
closed = 1;
nodes = (
"623 814 OFFCURVE",
"515 922 OFFCURVE",
"379 922 CURVE SMOOTH",
"244.333 922 OFFCURVE",
"136 814 OFFCURVE",
"136 678 CURVE SMOOTH",
"136 542 OFFCURVE",
"244.333 434 OFFCURVE",
"379 434 CURVE SMOOTH",
"515 434 OFFCURVE",
"623 542 OFFCURVE",
"623 678 CURVE SMOOTH"
);
}
);
width = 717;
}
);
note = bullet;
unicode = 2022;
},
{
glyphname = paragraph;
lastChange = "2025-02-05 21:33:01 +0000";
layers = (
{
layerId = "10338F47-40ED-49C2-8613-307B859987A6";
paths = (
{
closed = 1;
nodes = (
"1018 1288 LINE",
"1018 1341 LINE",
"555 1341 LINE SMOOTH",
"275 1341 OFFCURVE",
"121 1207 OFFCURVE",
"121 963 CURVE SMOOTH",
"121 713.667 OFFCURVE",
"289.333 565 OFFCURVE",
"568 565 CURVE",
"566 -258 LINE",
"660 -258 LINE",
"660 1266 LINE",
"830 1266 LINE",
"830 -258 LINE",
"924 -258 LINE",
"924 1266 LINE"
);
}
);
width = 1071;
}
);
note = paragraph;
unicode = 00B6;
},
{
glyphname = germandbls;
lastChange = "2025-02-05 21:32:52 +0000";
layers = (
{
layerId = "10338F47-40ED-49C2-8613-307B859987A6";
paths = (
{
closed = 1;
nodes = (
"675 876.333 OFFCURVE",
"719.333 930.5 OFFCURVE",
"790 960.5 CURVE SMOOTH",
"825.333 975.5 OFFCURVE",
"887 987.667 OFFCURVE",
"975 997 CURVE",
"985.667 1057 OFFCURVE",
"991 1110.333 OFFCURVE",
"991 1157 CURVE SMOOTH",
"991 1355.667 OFFCURVE",
"897 1442 OFFCURVE",
"697 1442 CURVE SMOOTH",
"458.333 1442 OFFCURVE",
"315.333 1311.667 OFFCURVE",
"270 1061 CURVE SMOOTH",
"95 70 LINE",
"-50 45 LINE",
"-57 0 LINE",
"249 0 LINE",
"444 1110 LINE SMOOTH",
"472.667 1278 OFFCURVE",
"552.333 1362 OFFCURVE",
"683 1362 CURVE SMOOTH",
"784.333 1362 OFFCURVE",
"835 1317.333 OFFCURVE",
"835 1192 CURVE SMOOTH",
"835 1152 OFFCURVE",
"830 1103.667 OFFCURVE",
"820 1047 CURVE",
"618 1009.667 OFFCURVE",
"517 898 OFFCURVE",
"517 712 CURVE SMOOTH",
"517 620 OFFCURVE",
"558 549.667 OFFCURVE",
"642 483 CURVE SMOOTH",
"726 415 OFFCURVE",
"766 355.667 OFFCURVE",
"766 277 CURVE SMOOTH",
"766 143.667 OFFCURVE",
"696.667 59 OFFCURVE",
"582 59 CURVE SMOOTH",
"514 59 OFFCURVE",
"458 87.667 OFFCURVE",
"434 125 CURVE",
"424 219 LINE",
"379 219 LINE",
"345 27 LINE",
"385 -1 OFFCURVE",
"487.333 -20 OFFCURVE",
"570 -20 CURVE SMOOTH",
"798 -20 OFFCURVE",
"927 113 OFFCURVE",
"927 333 CURVE SMOOTH",
"927 431.667 OFFCURVE",
"886.333 505.667 OFFCURVE",
"801 575 CURVE SMOOTH",
"709 649.667 OFFCURVE",
"675 701.667 OFFCURVE",
"675 775 CURVE SMOOTH"
);
}
);
width = 1024;
}
);
note = germandbls;
unicode = 00DF;
},
{
glyphname = registered;
lastChange = "2025-02-05 21:33:01 +0000";
layers = (
{
layerId = "10338F47-40ED-49C2-8613-307B859987A6";
paths = (
{
closed = 1;
nodes = (
"118 422 OFFCURVE",
"248.667 194.667 OFFCURVE",
"462 72 CURVE SMOOTH",
"568.667 10.667 OFFCURVE",
"684 -20 OFFCURVE",
"808 -20 CURVE SMOOTH",
"1061.333 -20 OFFCURVE",
"1288.833 115.167 OFFCURVE",
"1409.5 326.5 CURVE SMOOTH",
"1469.833 432.167 OFFCURVE",
"1500 546.667 OFFCURVE",
"1500 670 CURVE SMOOTH",
"1500 922 OFFCURVE",
"1368.333 1147.333 OFFCURVE",
"1155 1270 CURVE SMOOTH",
"1048.333 1331.333 OFFCURVE",
"932.667 1362 OFFCURVE",
"808 1362 CURVE SMOOTH",
"560 1362 OFFCURVE",
"336.167 1233.5 OFFCURVE",
"211.5 1019.5 CURVE SMOOTH",
"149.167 912.5 OFFCURVE",
"118 796 OFFCURVE",
"118 670 CURVE SMOOTH"
);
},
{
closed = 1;
nodes = (
"188 891.333 OFFCURVE",
"305 1097.167 OFFCURVE",
"497 1208.5 CURVE SMOOTH",
"593 1264.167 OFFCURVE",
"696.667 1292 OFFCURVE",
"808 1292 CURVE SMOOTH",
"1030.667 1292 OFFCURVE",
"1232.667 1176.333 OFFCURVE",
"1346 983 CURVE SMOOTH",
"1402.667 886.333 OFFCURVE",
"1431 782 OFFCURVE",
"1431 670 CURVE SMOOTH",
"1431 446 OFFCURVE",
"1311 241.5 OFFCURVE",
"1119 131.5 CURVE SMOOTH",
"1023 76.5 OFFCURVE",
"919.333 49 OFFCURVE",
"808 49 CURVE SMOOTH",
"586.667 49 OFFCURVE",
"382.833 165.833 OFFCURVE",
"271.5 358.5 CURVE SMOOTH",
"215.833 454.833 OFFCURVE",
"188 558.667 OFFCURVE",
"188 670 CURVE SMOOTH"
);
},
{
closed = 1;
nodes = (
"788 625 LINE",
"1017 276 LINE",
"1222 276 LINE",
"1222 319 LINE",
"1138 336 LINE",
"925 643 LINE",
"1042.333 680.333 OFFCURVE",
"1103 757.333 OFFCURVE",
"1103 860 CURVE SMOOTH",
"1103 1001.333 OFFCURVE",
"996 1081 OFFCURVE",
"788 1081 CURVE SMOOTH",
"458 1081 LINE",
"458 1040 LINE",
"562 1024 LINE",
"562 336 LINE",
"466 319 LINE",
"466 276 LINE",
"812 276 LINE",
"812 319 LINE",
"698 336 LINE",
"698 625 LINE"
);
},
{
closed = 1;
nodes = (
"962 730 OFFCURVE",
"906.333 688 OFFCURVE",
"765 688 CURVE SMOOTH",
"698 688 LINE",
"698 1020 LINE",
"761 1020 LINE SMOOTH",
"914.333 1020 OFFCURVE",
"962 976.667 OFFCURVE",
"962 858 CURVE SMOOTH"
);
}
);
width = 1556;
}
);
note = registered;
unicode = 00AE;
},
{
glyphname = copyright;
lastChange = "2025-02-05 21:32:52 +0000";
layers = (
{
layerId = "10338F47-40ED-49C2-8613-307B859987A6";
paths = (
{
closed = 1;
nodes = (
"118 422 OFFCURVE",
"248.667 194.667 OFFCURVE",
"462 72 CURVE SMOOTH",
"568.667 10.667 OFFCURVE",
"684 -20 OFFCURVE",
"808 -20 CURVE SMOOTH",
"1061.333 -20 OFFCURVE",
"1288.833 115.167 OFFCURVE",
"1409.5 326.5 CURVE SMOOTH",
"1469.833 432.167 OFFCURVE",
"1500 546.667 OFFCURVE",
"1500 670 CURVE SMOOTH",
"1500 922 OFFCURVE",
"1368.333 1147.333 OFFCURVE",
"1155 1270 CURVE SMOOTH",
"1048.333 1331.333 OFFCURVE",
"932.667 1362 OFFCURVE",
"808 1362 CURVE SMOOTH",
"560 1362 OFFCURVE",
"336.167 1233.5 OFFCURVE",
"211.5 1019.5 CURVE SMOOTH",
"149.167 912.5 OFFCURVE",
"118 796 OFFCURVE",
"118 670 CURVE SMOOTH"
);
},
{
closed = 1;
nodes = (
"188 891.333 OFFCURVE",
"305 1097.167 OFFCURVE",
"497 1208.5 CURVE SMOOTH",
"593 1264.167 OFFCURVE",
"696.667 1292 OFFCURVE",
"808 1292 CURVE SMOOTH",
"1030.667 1292 OFFCURVE",
"1232.667 1176.333 OFFCURVE",
"1346 983 CURVE SMOOTH",
"1402.667 886.333 OFFCURVE",
"1431 782 OFFCURVE",
"1431 670 CURVE SMOOTH",
"1431 446 OFFCURVE",
"1311 241.5 OFFCURVE",
"1119 131.5 CURVE SMOOTH",
"1023 76.5 OFFCURVE",
"919.333 49 OFFCURVE",
"808 49 CURVE SMOOTH",
"586.667 49 OFFCURVE",
"382.833 165.833 OFFCURVE",
"271.5 358.5 CURVE SMOOTH",
"215.833 454.833 OFFCURVE",
"188 558.667 OFFCURVE",
"188 670 CURVE SMOOTH"
);
},
{
closed = 1;
nodes = (
"930.333 258 OFFCURVE",
"1024.333 271 OFFCURVE",
"1107 297 CURVE",
"1111 496 LINE",
"1062 496 LINE",
"1040 377 LINE",
"990.667 337 OFFCURVE",
"919 317 OFFCURVE",
"825 317 CURVE SMOOTH",
"645.667 317 OFFCURVE",
"556 433.333 OFFCURVE",
"556 666 CURVE SMOOTH",
"556 916.667 OFFCURVE",
"635 1024 OFFCURVE",
"831 1024 CURVE SMOOTH",
"909.667 1024 OFFCURVE",
"976.333 1007 OFFCURVE",
"1031 973 CURVE",
"1050 868 LINE",
"1099 868 LINE",
"1095 1055 LINE",
"993 1075 OFFCURVE",
"903.667 1085 OFFCURVE",
"827 1085 CURVE SMOOTH",
"551 1085 OFFCURVE",
"409 942.667 OFFCURVE",
"409 664 CURVE SMOOTH",
"409 406.667 OFFCURVE",
"565 258 OFFCURVE",
"825 258 CURVE SMOOTH"
);
}
);
width = 1556;
}
);
note = copyright;
unicode = 00A9;
},
{
glyphname = trademark;
lastChange = "2025-02-05 21:33:01 +0000";
layers = (
{
layerId = "10338F47-40ED-49C2-8613-307B859987A6";
paths = (
{
closed = 1;
nodes = (
"675 537 LINE",
"675 580 LINE",
"548 596 LINE",
"548 1278 LINE",
"577 1278 LINE SMOOTH",
"681.667 1278 OFFCURVE",
"748.667 1274.667 OFFCURVE",
"778 1268 CURVE",
"794 1143 LINE",
"835 1143 LINE",
"835 1341 LINE",
"126 1341 LINE",
"126 1143 LINE",
"167 1143 LINE",
"184 1268 LINE",
"217.333 1276 OFFCURVE",
"282.667 1280 OFFCURVE",
"380 1280 CURVE SMOOTH",
"411 1280 LINE",
"411 596 LINE",
"284 580 LINE",
"284 537 LINE"
);
},
{
closed = 1;
nodes = (
"1713 1204 LINE",
"1713 596 LINE",
"1605 580 LINE",
"1605 537 LINE",
"1953 537 LINE",
"1953 580 LINE",
"1851 596 LINE",
"1851 1284 LINE",
"1953 1300 LINE",
"1953 1341 LINE",
"1699 1341 LINE",
"1435 758 LINE",
"1191 1341 LINE",
"921 1341 LINE",
"921 1300 LINE",
"1025 1284 LINE",
"1025 596 LINE",
"921 580 LINE",
"921 537 LINE",
"1206 537 LINE",
"1206 580 LINE",
"1097 596 LINE",
"1097 1206 LINE",
"1382 537 LINE",
"1410 537 LINE"
);
}
);
width = 2007;
}
);
note = trademark;
unicode = 2122;
},
{
glyphname = acute;
lastChange = "2025-02-05 21:33:01 +0000";
layers = (
{
layerId = "10338F47-40ED-49C2-8613-307B859987A6";
paths = (
{
closed = 1;
nodes = (
"303 1118 LINE",
"704 1386 LINE",
"710 1423 LINE",
"497 1423 LINE",
"253 1151 LINE",
"248 1118 LINE"
);
}
);
width = 682;
}
);
note = acute;
unicode = 00B4;
},
{
glyphname = dieresis;
lastChange = "2025-02-05 21:32:52 +0000";
layers = (
{
layerId = "10338F47-40ED-49C2-8613-307B859987A6";
paths = (
{
closed = 1;
nodes = (
"760 1287 OFFCURVE",
"718 1331 OFFCURVE",
"662 1331 CURVE SMOOTH",
"606 1331 OFFCURVE",
"562 1287 OFFCURVE",
"562 1231 CURVE SMOOTH",
"562 1179 OFFCURVE",
"606 1130 OFFCURVE",
"662 1130 CURVE SMOOTH",
"718 1130 OFFCURVE",
"760 1175 OFFCURVE",
"760 1231 CURVE SMOOTH"
);
},
{
closed = 1;
nodes = (
"404 1287 OFFCURVE",
"362 1331 OFFCURVE",
"306 1331 CURVE SMOOTH",
"254 1331 OFFCURVE",
"205 1287 OFFCURVE",
"205 1231 CURVE SMOOTH",
"205 1176.333 OFFCURVE",
"251.333 1130 OFFCURVE",
"306 1130 CURVE SMOOTH",
"362 1130 OFFCURVE",
"404 1175 OFFCURVE",
"404 1231 CURVE SMOOTH"
);
}
);
width = 682;
}
);
note = dieresis;
unicode = 00A8;
},
{
glyphname = notequal;
lastChange = "2025-02-05 21:33:01 +0000";
layers = (
{
layerId = "10338F47-40ED-49C2-8613-307B859987A6";
paths = (
{
closed = 1;
nodes = (
"1025 1220 LINE",
"900 1220 LINE",
"702 936 LINE",
"109 936 LINE",
"109 834 LINE",
"631 834 LINE",
"416 526 LINE",
"109 526 LINE",
"109 424 LINE",
"345 424 LINE",
"147 140 LINE",
"270 140 LINE",
"468 424 LINE",
"1062 424 LINE",
"1062 526 LINE",
"540 526 LINE",
"755 834 LINE",
"1062 834 LINE",
"1062 936 LINE",
"826 936 LINE"
);
}
);
width = 1124;
}
);
note = notequal;
unicode = 2260;
},
{
glyphname = AE;
lastChange = "2025-02-05 21:33:01 +0000";
layers = (
{
layerId = "10338F47-40ED-49C2-8613-307B859987A6";
paths = (
{
closed = 1;
nodes = (
"731 80 LINE",
"556 53 LINE",
"546 0 LINE",
"1616 0 LINE",
"1698 354 LINE",
"1632 354 LINE",
"1531 106 LINE",
"1474.333 95.333 OFFCURVE",
"1360.667 90 OFFCURVE",
"1190 90 CURVE SMOOTH",
"926 90 LINE",
"1023 637 LINE",
"1385 637 LINE",
"1387 475 LINE",
"1451 475 LINE",
"1524 887 LINE",
"1460 887 LINE",
"1400 727 LINE",
"1038 727 LINE",
"1131 1251 LINE",
"1350 1251 LINE SMOOTH",
"1491.333 1251 OFFCURVE",
"1598.333 1246.333 OFFCURVE",
"1671 1237 CURVE",
"1665 1020 LINE",
"1731 1020 LINE",
"1788 1341 LINE",
"699 1341 LINE",
"690 1288 LINE",
"850 1270 LINE",
"-6 80 LINE",
"-137 53 LINE",
"-146 0 LINE",
"256 0 LINE",
"265 53 LINE",
"112 80 LINE",
"387 467 LINE",
"799 467 LINE"
);
},
{
closed = 1;
nodes = (
"934 1231 LINE",
"815 557 LINE",
"452 557 LINE"
);
}
);
width = 1821;
}
);
note = AE;
unicode = 00C6;
},
{
glyphname = Oslash;
lastChange = "2025-02-05 21:32:52 +0000";
layers = (
{
layerId = "10338F47-40ED-49C2-8613-307B859987A6";
paths = (
{
closed = 1;
nodes = (
"959 -20 OFFCURVE",
"1196.5 120.667 OFFCURVE",
"1330.5 386 CURVE SMOOTH",
"1397.5 518.667 OFFCURVE",
"1431 664 OFFCURVE",
"1431 822 CURVE SMOOTH",
"1431 954.667 OFFCURVE",
"1392 1068.333 OFFCURVE",
"1314 1163 CURVE",
"1542 1391 LINE",
"1427 1391 LINE",
"1258 1222 LINE",
"1154.667 1311.333 OFFCURVE",
"1025.667 1356 OFFCURVE",
"871 1356 CURVE SMOOTH",
"575 1356 OFFCURVE",
"336.333 1211.167 OFFCURVE",
"203 950.5 CURVE SMOOTH",
"136.333 820.167 OFFCURVE",
"103 674.667 OFFCURVE",
"103 514 CURVE SMOOTH",
"103 384 OFFCURVE",
"139.667 272.667 OFFCURVE",
"213 180 CURVE",
"-22 -55 LINE",
"97 -55 LINE",
"270 118 LINE",
"374.667 26 OFFCURVE",
"505.667 -20 OFFCURVE",
"663 -20 CURVE SMOOTH"
);
},
{
closed = 1;
nodes = (
"1231 581.333 OFFCURVE",
"1114.167 299.5 OFFCURVE",
"945.5 165.5 CURVE SMOOTH",
"861.167 98.5 OFFCURVE",
"769.333 65 OFFCURVE",
"670 65 CURVE SMOOTH",
"540.667 65 OFFCURVE",
"439 123 OFFCURVE",
"375 223 CURVE",
"1194 1043 LINE",
"1218.667 980.333 OFFCURVE",
"1231 910 OFFCURVE",
"1231 832 CURVE SMOOTH"
);
},
{
closed = 1;
nodes = (
"303 759 OFFCURVE",
"418.5 1039.167 OFFCURVE",
"584.5 1174.5 CURVE SMOOTH",
"667.5 1242.167 OFFCURVE",
"758.667 1276 OFFCURVE",
"858 1276 CURVE SMOOTH",
"986 1276 OFFCURVE",
"1088.667 1219 OFFCURVE",
"1154 1119 CURVE",
"336 302 LINE",
"314 360 OFFCURVE",
"303 427 OFFCURVE",
"303 503 CURVE SMOOTH"
);
}
);
width = 1479;
}
);
note = Oslash;
unicode = 00D8;
},
{
glyphname = infinity;
lastChange = "2025-02-05 21:32:52 +0000";
layers = (
{
layerId = "10338F47-40ED-49C2-8613-307B859987A6";
paths = (
{
closed = 1;
nodes = (
"1402 823.333 OFFCURVE",
"1272.333 977 OFFCURVE",
"1079 977 CURVE SMOOTH",
"935 977 OFFCURVE",
"831 891.667 OFFCURVE",
"743 725 CURVE",
"659 893 OFFCURVE",
"533 983 OFFCURVE",
"385 983 CURVE SMOOTH",
"191.667 983 OFFCURVE",
"57 820 OFFCURVE",
"57 596 CURVE SMOOTH",
"57 361.333 OFFCURVE",
"191.667 209 OFFCURVE",
"385 209 CURVE SMOOTH",
"513 209 OFFCURVE",
"628 297.667 OFFCURVE",
"716 467 CURVE",
"814 291 OFFCURVE",
"934.333 203 OFFCURVE",
"1077 203 CURVE SMOOTH",
"1262.333 203 OFFCURVE",
"1402 368.667 OFFCURVE",
"1402 590 CURVE SMOOTH"
);
},
{
closed = 1;
nodes = (
"1232.333 872 OFFCURVE",
"1327 754.667 OFFCURVE",
"1327 592 CURVE SMOOTH",
"1327 424 OFFCURVE",
"1233 307 OFFCURVE",
"1101 307 CURVE SMOOTH",
"982.333 307 OFFCURVE",
"893.667 402 OFFCURVE",
"811 590 CURVE",
"899 779.333 OFFCURVE",
"988.333 872 OFFCURVE",
"1099 872 CURVE SMOOTH"
);
},
{
closed = 1;
nodes = (
"561 406.667 OFFCURVE",
"470 313 OFFCURVE",
"358 313 CURVE SMOOTH",
"219.333 313 OFFCURVE",
"133 426 OFFCURVE",
"133 594 CURVE SMOOTH",
"133 760.667 OFFCURVE",
"226 879 OFFCURVE",
"354 879 CURVE SMOOTH",
"478 879 OFFCURVE",
"566.333 782.667 OFFCURVE",
"645 596 CURVE"
);
}
);
width = 1460;
}
);
note = infinity;
unicode = 221E;
},
{
glyphname = plusminus;
lastChange = "2025-02-05 21:33:01 +0000";
layers = (
{
layerId = "10338F47-40ED-49C2-8613-307B859987A6";
paths = (
{
closed = 1;
nodes = (
"1048 629 LINE",
"1048 731 LINE",
"622 731 LINE",
"622 1157 LINE",
"519 1157 LINE",
"519 731 LINE",
"95 731 LINE",
"95 629 LINE",
"519 629 LINE",
"519 203 LINE",
"622 203 LINE",
"622 629 LINE"
);
},
{
closed = 1;
nodes = (
"95 102 LINE",
"95 0 LINE",
"1048 0 LINE",
"1048 102 LINE"
);
}
);
width = 1124;
}
);
note = plusminus;
unicode = 00B1;
},
{
glyphname = lessequal;
lastChange = "2025-02-05 21:33:01 +0000";
layers = (
{
layerId = "10338F47-40ED-49C2-8613-307B859987A6";
paths = (
{
closed = 1;
nodes = (
"1050 186 LINE",
"1050 289 LINE",
"241 680 LINE",
"1050 1071 LINE",
"1050 1174 LINE",
"97 705 LINE",
"97 655 LINE"
);
},
{
closed = 1;
nodes = (
"97 102 LINE",
"97 0 LINE",
"1050 0 LINE",
"1050 102 LINE"
);
}
);
width = 1124;
}
);
note = lessequal;
unicode = 2264;
},
{
glyphname = greaterequal;
lastChange = "2025-02-05 21:33:01 +0000";
layers = (
{
layerId = "10338F47-40ED-49C2-8613-307B859987A6";
paths = (
{
closed = 1;
nodes = (
"1052 655 LINE",
"1052 705 LINE",
"99 1174 LINE",
"99 1071 LINE",
"908 680 LINE",
"99 289 LINE",
"99 186 LINE"
);
},
{
closed = 1;
nodes = (
"97 102 LINE",
"97 0 LINE",
"1050 0 LINE",
"1050 102 LINE"
);
}
);
width = 1124;
}
);
note = greaterequal;
unicode = 2265;
},
{
glyphname = yen;
lastChange = "2025-02-05 21:33:01 +0000";
layers = (
{
layerId = "10338F47-40ED-49C2-8613-307B859987A6";
paths = (
{
closed = 1;
nodes = (
"581 393 LINE",
"605 528 LINE",
"622 557 LINE",
"889 557 LINE",
"903 639 LINE",
"671 639 LINE",
"1046 1262 LINE",
"1155 1288 LINE",
"1164 1341 LINE",
"818 1341 LINE",
"809 1288 LINE",
"927 1262 LINE",
"566 634 LINE",
"429 1262 LINE",
"565 1288 LINE",
"574 1341 LINE",
"144 1341 LINE",
"135 1288 LINE",
"230 1262 LINE",
"383 639 LINE",
"153 639 LINE",
"139 557 LINE",
"406 557 LINE",
"412 522 LINE",
"389 393 LINE",
"110 393 LINE",
"95 311 LINE",
"374 311 LINE",
"334 80 LINE",
"157 53 LINE",
"148 0 LINE",
"684 0 LINE",
"693 53 LINE",
"526 80 LINE",
"566 311 LINE",
"845 311 LINE",
"860 393 LINE"
);
}
);
width = 1024;
}
);
note = yen;
unicode = 00A5;
},
{
glyphname = uni00B5;
lastChange = "2025-02-05 21:32:52 +0000";
layers = (
{
layerId = "10338F47-40ED-49C2-8613-307B859987A6";
paths = (
{
closed = 1;
nodes = (
"718 0 LINE",
"996 0 LINE",
"1004 45 LINE",
"871 70 LINE",
"1025 940 LINE",
"862 940 LINE",
"731 213 LINE",
"669.667 145 OFFCURVE",
"572 96 OFFCURVE",
"508 96 CURVE SMOOTH",
"422.667 96 OFFCURVE",
"368 150 OFFCURVE",
"368 242 CURVE",
"372 288 LINE",
"487 940 LINE",
"181 940 LINE",
"173 895 LINE",
"308 870 LINE",
"167 69 LINE SMOOTH",
"137.667 -96.333 OFFCURVE",
"80.333 -296.333 OFFCURVE",
"35 -391 CURVE",
"27 -436 LINE",
"204 -436 LINE",
"252 -294 OFFCURVE",
"292.333 -129.333 OFFCURVE",
"325 58 CURVE",
"345 6 OFFCURVE",
"390.333 -20 OFFCURVE",
"461 -20 CURVE SMOOTH",
"537 -20 OFFCURVE",
"623 28 OFFCURVE",
"719 124 CURVE"
);
}
);
width = 1180;
}
);
note = uni00B5;
unicode = 00B5;
},
{
glyphname = partialdiff;
lastChange = "2025-02-05 21:32:52 +0000";
layers = (
{
layerId = "10338F47-40ED-49C2-8613-307B859987A6";
paths = (
{
closed = 1;
nodes = (
"928 1287.333 OFFCURVE",
"793 1477 OFFCURVE",
"549 1477 CURVE SMOOTH",
"497 1477 OFFCURVE",
"444.667 1465.333 OFFCURVE",
"392 1442 CURVE",
"287 1292 LINE",
"323 1259 LINE",
"403.667 1315 OFFCURVE",
"479.667 1343 OFFCURVE",
"551 1343 CURVE SMOOTH",
"740.333 1343 OFFCURVE",
"842 1176.667 OFFCURVE",
"842 874 CURVE",
"838 758 LINE",
"834 758 LINE",
"788.667 868.667 OFFCURVE",
"688 940 OFFCURVE",
"564 940 CURVE SMOOTH",
"382.667 940 OFFCURVE",
"231.333 839.333 OFFCURVE",
"138 638 CURVE SMOOTH",
"91.333 537.333 OFFCURVE",
"68 435.333 OFFCURVE",
"68 332 CURVE SMOOTH",
"68 102.667 OFFCURVE",
"185.333 -27 OFFCURVE",
"388 -27 CURVE SMOOTH",
"553.333 -27 OFFCURVE",
"689.167 69.167 OFFCURVE",
"784.5 252.5 CURVE SMOOTH",
"879.833 435.833 OFFCURVE",
"928 711.333 OFFCURVE",
"928 938 CURVE SMOOTH"
);
},
{
closed = 1;
nodes = (
"783.667 407 OFFCURVE",
"703.5 207.5 OFFCURVE",
"605.5 113.5 CURVE SMOOTH",
"556.5 66.5 OFFCURVE",
"505 43 OFFCURVE",
"451 43 CURVE SMOOTH",
"332.333 43 OFFCURVE",
"258 139.667 OFFCURVE",
"258 305 CURVE SMOOTH",
"258 490.333 OFFCURVE",
"330 695 OFFCURVE",
"430 787 CURVE SMOOTH",
"480 833 OFFCURVE",
"535.333 856 OFFCURVE",
"596 856 CURVE SMOOTH",
"700 856 OFFCURVE",
"789 765.667 OFFCURVE",
"813 643 CURVE"
);
}
);
width = 1012;
}
);
note = partialdiff;
unicode = 2202;
},
{
glyphname = summation;
lastChange = "2025-02-05 21:33:01 +0000";
layers = (
{
layerId = "10338F47-40ED-49C2-8613-307B859987A6";
paths = (
{
closed = 1;
nodes = (
"378 1251 LINE",
"782 1251 LINE SMOOTH",
"940 1251 OFFCURVE",
"1057.333 1246.333 OFFCURVE",
"1134 1237 CURVE",
"1176 990 LINE",
"1242 990 LINE",
"1242 1341 LINE",
"137 1341 LINE",
"137 1262 LINE",
"670 481 LINE",
"92 -362 LINE",
"92 -436 LINE",
"1298 -436 LINE",
"1317 -22 LINE",
"1251 -22 LINE",
"1194 -250 LINE",
"1173.937 -254.013 OFFCURVE",
"1113.965 -256.349 OFFCURVE",
"1003.5 -261 CURVE SMOOTH",
"902.782 -265.241 OFFCURVE",
"805.927 -266 OFFCURVE",
"719 -266 CURVE SMOOTH",
"274 -266 LINE",
"831 548 LINE",
"831 587 LINE"
);
}
);
width = 1460;
}
);
note = summation;
unicode = 2211;
},
{
glyphname = product;
lastChange = "2025-02-05 21:33:01 +0000";
layers = (
{
layerId = "10338F47-40ED-49C2-8613-307B859987A6";
paths = (
{
closed = 1;
nodes = (
"651 -436 LINE",
"651 -383 LINE",
"479 -356 LINE",
"479 1251 LINE",
"1210 1251 LINE",
"1210 -356 LINE",
"1038 -383 LINE",
"1038 -436 LINE",
"1574 -436 LINE",
"1574 -383 LINE",
"1402 -356 LINE",
"1402 1262 LINE",
"1574 1288 LINE",
"1574 1341 LINE",
"114 1341 LINE",
"114 1288 LINE",
"286 1262 LINE",
"286 -356 LINE",
"114 -383 LINE",
"114 -436 LINE"
);
}
);
width = 1686;
}
);
note = product;
unicode = 220F;
},
{
glyphname = integral;
lastChange = "2025-02-05 21:32:52 +0000";
layers = (
{
layerId = "10338F47-40ED-49C2-8613-307B859987A6";
paths = (
{
closed = 1;
nodes = (
"192 -166 LINE SMOOTH",
"192 -248 OFFCURVE",
"180.333 -315.167 OFFCURVE",
"157 -367.5 CURVE SMOOTH",
"133.667 -419.833 OFFCURVE",
"104.333 -446 OFFCURVE",
"69 -446 CURVE SMOOTH",
"30.333 -446 OFFCURVE",
"-12 -423 OFFCURVE",
"-58 -377 CURVE",
"-78 -377 LINE",
"-83.333 -407.667 OFFCURVE",
"-101.667 -490.667 OFFCURVE",
"-107 -508 CURVE",
"-107 -516 LINE",
"-91 -529.333 OFFCURVE",
"-22.667 -549 OFFCURVE",
"16 -549 CURVE SMOOTH",
"109.333 -549 OFFCURVE",
"224.167 -466.333 OFFCURVE",
"291.5 -341 CURVE SMOOTH",
"325.167 -278.333 OFFCURVE",
"344 -210.333 OFFCURVE",
"348 -137 CURVE SMOOTH",
"354 51.667 OFFCURVE",
"358.167 199.667 OFFCURVE",
"360.5 307 CURVE SMOOTH",
"362.833 414.333 OFFCURVE",
"364 492.333 OFFCURVE",
"364 541 CURVE SMOOTH",
"360 1079 LINE SMOOTH",
"360 1161.667 OFFCURVE",
"371.667 1229.167 OFFCURVE",
"395 1281.5 CURVE SMOOTH",
"418.333 1333.833 OFFCURVE",
"447.667 1360 OFFCURVE",
"483 1360 CURVE SMOOTH",
"521 1360 OFFCURVE",
"563.333 1336.667 OFFCURVE",
"610 1290 CURVE",
"631 1290 LINE",
"647 1355 LINE",
"665 1421 LINE",
"665 1430 LINE",
"645 1446 OFFCURVE",
"569.333 1462 OFFCURVE",
"536 1462 CURVE SMOOTH",
"442.667 1462 OFFCURVE",
"322.5 1373.5 OFFCURVE",
"256.5 1247.5 CURVE SMOOTH",
"223.5 1184.5 OFFCURVE",
"204.667 1117.667 OFFCURVE",
"200 1047 CURVE SMOOTH",
"190.667 865 OFFCURVE",
"186 684.667 OFFCURVE",
"186 506 CURVE SMOOTH"
);
}
);
width = 561;
}
);
note = integral;
unicode = 222B;
},
{
glyphname = ordfeminine;
lastChange = "2025-02-05 21:33:01 +0000";
layers = (
{
layerId = "10338F47-40ED-49C2-8613-307B859987A6";
paths = (
{
closed = 1;
nodes = (
"646 1357 LINE",
"616 1357 LINE",
"584 1339 LINE",
"578 1336 LINE",
"533.333 1353.333 OFFCURVE",
"489.333 1362 OFFCURVE",
"446 1362 CURVE SMOOTH",
"306 1362 OFFCURVE",
"193.5 1291.833 OFFCURVE",
"135.5 1176.5 CURVE SMOOTH",
"106.5 1118.833 OFFCURVE",
"92 1054.333 OFFCURVE",
"92 983 CURVE SMOOTH",
"92 853.667 OFFCURVE",
"156.667 767 OFFCURVE",
"250 767 CURVE SMOOTH",
"319.333 767 OFFCURVE",
"382 796.667 OFFCURVE",
"438 856 CURVE",
"426 782 LINE",
"626 782 LINE",
"635 821 LINE",
"549 836 LINE"
);
},
{
closed = 1;
nodes = (
"440 895 LINE",
"392.667 867 OFFCURVE",
"348.667 853 OFFCURVE",
"308 853 CURVE SMOOTH",
"248 853 OFFCURVE",
"218 899.333 OFFCURVE",
"218 992 CURVE SMOOTH",
"218 1172 OFFCURVE",
"296.667 1305 OFFCURVE",
"410 1305 CURVE SMOOTH",
"446 1305 OFFCURVE",
"478.667 1296 OFFCURVE",
"508 1278 CURVE"
);
}
);
width = 565;
}
);
note = ordfeminine;
unicode = 00AA;
},
{
glyphname = ordmasculine;
lastChange = "2025-02-05 21:32:52 +0000";
layers = (
{
layerId = "10338F47-40ED-49C2-8613-307B859987A6";
paths = (
{
closed = 1;
nodes = (
"503.333 1305 OFFCURVE",
"544 1246.333 OFFCURVE",
"544 1133 CURVE SMOOTH",
"544 965 OFFCURVE",
"459.667 829 OFFCURVE",
"353 829 CURVE SMOOTH",
"282.333 829 OFFCURVE",
"241 890 OFFCURVE",
"241 998 CURVE SMOOTH",
"241 1172.667 OFFCURVE",
"326 1305 OFFCURVE",
"430 1305 CURVE SMOOTH"
);
},
{
closed = 1;
nodes = (
"533.333 770 OFFCURVE",
"672 923.667 OFFCURVE",
"672 1125 CURVE SMOOTH",
"672 1271.667 OFFCURVE",
"580.667 1362 OFFCURVE",
"446 1362 CURVE SMOOTH",
"247.101 1362 OFFCURVE",
"114 1201.809 OFFCURVE",
"114 1007 CURVE SMOOTH",
"114 860.333 OFFCURVE",
"205.333 770 OFFCURVE",
"340 770 CURVE SMOOTH"
);
}
);
width = 635;
}
);
note = ordmasculine;
unicode = 00BA;
},
{
glyphname = uni2126;
lastChange = "2025-02-05 21:32:52 +0000";
layers = (
{
layerId = "10338F47-40ED-49C2-8613-307B859987A6";
paths = (
{
closed = 1;
nodes = (
"1087.333 1276 OFFCURVE",
"1232 1133 OFFCURVE",
"1232 801 CURVE SMOOTH",
"1232 535.667 OFFCURVE",
"1105.667 371 OFFCURVE",
"879 343 CURVE",
"852 0 LINE",
"1421 0 LINE",
"1440 330 LINE",
"1374 330 LINE",
"1317 186 LINE",
"1263.667 175.333 OFFCURVE",
"1169 170 OFFCURVE",
"1033 170 CURVE SMOOTH",
"961 170 LINE",
"971 271 LINE",
"1256.333 315 OFFCURVE",
"1441 519.667 OFFCURVE",
"1441 801 CURVE SMOOTH",
"1441 1163.667 OFFCURVE",
"1216.667 1356 OFFCURVE",
"786 1356 CURVE SMOOTH",
"355.333 1356 OFFCURVE",
"131 1163.667 OFFCURVE",
"131 801 CURVE SMOOTH",
"131 519.667 OFFCURVE",
"314.333 315 OFFCURVE",
"601 271 CURVE",
"611 170 LINE",
"539 170 LINE SMOOTH",
"403 170 OFFCURVE",
"308.333 175.333 OFFCURVE",
"255 186 CURVE",
"198 330 LINE",
"132 330 LINE",
"151 0 LINE",
"720 0 LINE",
"693 343 LINE",
"467.667 371 OFFCURVE",
"340 535.667 OFFCURVE",
"340 801 CURVE SMOOTH",
"340 1131.667 OFFCURVE",
"484.667 1276 OFFCURVE",
"786 1276 CURVE SMOOTH"
);
}
);
width = 1573;
}
);
note = uni2126;
unicode = 2126;
},
{
glyphname = ae;
lastChange = "2025-02-05 21:32:52 +0000";
layers = (
{
layerId = "10338F47-40ED-49C2-8613-307B859987A6";
paths = (
{
closed = 1;
nodes = (
"1320 889.667 OFFCURVE",
"1230.333 965 OFFCURVE",
"1077 965 CURVE SMOOTH",
"981.667 965 OFFCURVE",
"903 940.333 OFFCURVE",
"841 891 CURVE",
"786.333 931 OFFCURVE",
"700.667 964 OFFCURVE",
"618 964 CURVE SMOOTH",
"415.333 964 OFFCURVE",
"235.667 843.667 OFFCURVE",
"137 641 CURVE SMOOTH",
"87.667 539.667 OFFCURVE",
"63 431.667 OFFCURVE",
"63 317 CURVE SMOOTH",
"63 115.667 OFFCURVE",
"162.667 -21 OFFCURVE",
"304 -21 CURVE SMOOTH",
"396 -21 OFFCURVE",
"514.333 43 OFFCURVE",
"621 147 CURVE",
"677 28.333 OFFCURVE",
"752.667 -20 OFFCURVE",
"890 -20 CURVE SMOOTH",
"1003.333 -20 OFFCURVE",
"1122 34 OFFCURVE",
"1246 142 CURVE",
"1217 184 LINE",
"1123.667 117.333 OFFCURVE",
"1036.667 84 OFFCURVE",
"956 84 CURVE SMOOTH",
"832.667 84 OFFCURVE",
"771 154.667 OFFCURVE",
"771 296 CURVE SMOOTH",
"771 338 OFFCURVE",
"773.667 377 OFFCURVE",
"779 413 CURVE",
"988.333 429 OFFCURVE",
"1164.833 500.333 OFFCURVE",
"1253.5 603 CURVE SMOOTH",
"1297.833 654.333 OFFCURVE",
"1320 710.333 OFFCURVE",
"1320 771 CURVE SMOOTH"
);
},
{
closed = 1;
nodes = (
"300.333 104 OFFCURVE",
"241 188.333 OFFCURVE",
"241 335 CURVE SMOOTH",
"241 508.333 OFFCURVE",
"312.167 698.333 OFFCURVE",
"419.5 805 CURVE SMOOTH",
"473.167 858.333 OFFCURVE",
"530.333 885 OFFCURVE",
"591 885 CURVE SMOOTH",
"649 885 OFFCURVE",
"707.667 863 OFFCURVE",
"767 819 CURVE",
"652.333 675.667 OFFCURVE",
"595 505.667 OFFCURVE",
"595 309 CURVE SMOOTH",
"595 284.333 OFFCURVE",
"597.667 253.333 OFFCURVE",
"603 216 CURVE",
"533.667 149.333 OFFCURVE",
"452.333 104 OFFCURVE",
"391 104 CURVE SMOOTH"
);
},
{
closed = 1;
nodes = (
"1145 610 OFFCURVE",
"1017 498.667 OFFCURVE",
"789 476 CURVE",
"833 737.333 OFFCURVE",
"926.667 888 OFFCURVE",
"1048 888 CURVE SMOOTH",
"1112 888 OFFCURVE",
"1145 844.667 OFFCURVE",
"1145 774 CURVE SMOOTH"
);
}
);
width = 1366;
}
);
note = ae;
unicode = 00E6;
},
{
glyphname = oslash;
lastChange = "2025-02-05 21:32:52 +0000";
layers = (
{
layerId = "10338F47-40ED-49C2-8613-307B859987A6";
paths = (
{
closed = 1;
nodes = (
"631 -20 OFFCURVE",
"802 90.333 OFFCURVE",
"894 273 CURVE SMOOTH",
"940 364.333 OFFCURVE",
"963 463.667 OFFCURVE",
"963 571 CURVE SMOOTH",
"963 676.333 OFFCURVE",
"936.667 763.667 OFFCURVE",
"884 833 CURVE",
"1049 1022 LINE",
"945 1022 LINE",
"828 890 LINE",
"766 940 OFFCURVE",
"689 965 OFFCURVE",
"597 965 CURVE SMOOTH",
"393 965 OFFCURVE",
"222 854.667 OFFCURVE",
"130 672 CURVE SMOOTH",
"84 580.667 OFFCURVE",
"61 481.333 OFFCURVE",
"61 374 CURVE SMOOTH",
"61 267.333 OFFCURVE",
"88 178.667 OFFCURVE",
"142 108 CURVE",
"-27 -84 LINE",
"80 -84 LINE",
"199 52 LINE",
"260.333 4 OFFCURVE",
"336.333 -20 OFFCURVE",
"427 -20 CURVE SMOOTH"
);
},
{
closed = 1;
nodes = (
"653 890 OFFCURVE",
"707.333 857.333 OFFCURVE",
"742 792 CURVE",
"253 234 LINE",
"245 268.667 OFFCURVE",
"241 308.667 OFFCURVE",
"241 354 CURVE SMOOTH",
"241 550 OFFCURVE",
"304.833 726.667 OFFCURVE",
"409.5 820 CURVE SMOOTH",
"461.833 866.667 OFFCURVE",
"518.333 890 OFFCURVE",
"579 890 CURVE SMOOTH"
);
},
{
closed = 1;
nodes = (
"783 395.333 OFFCURVE",
"717.333 223.5 OFFCURVE",
"612 129.5 CURVE SMOOTH",
"559.333 82.5 OFFCURVE",
"502.667 59 OFFCURVE",
"442 59 CURVE SMOOTH",
"372 59 OFFCURVE",
"319.667 89.333 OFFCURVE",
"285 150 CURVE",
"772 706 LINE",
"779.333 670.667 OFFCURVE",
"783 632 OFFCURVE",
"783 590 CURVE SMOOTH"
);
}
);
width = 1024;
}
);
note = oslash;
unicode = 00F8;
},
{
glyphname = questiondown;
lastChange = "2025-02-05 21:33:01 +0000";
layers = (
{
layerId = "10338F47-40ED-49C2-8613-307B859987A6";
paths = (
{
closed = 1;
nodes = (
"534 322 LINE",
"475 309 LINE SMOOTH",
"217 254.333 OFFCURVE",
"88 107.667 OFFCURVE",
"88 -131 CURVE SMOOTH",
"88 -326.333 OFFCURVE",
"210 -424 OFFCURVE",
"454 -424 CURVE SMOOTH",
"560.667 -424 OFFCURVE",
"667 -402 OFFCURVE",
"773 -358 CURVE",
"804 -104 LINE",
"738 -104 LINE",
"688 -268 LINE",
"633.333 -308 OFFCURVE",
"543.667 -340 OFFCURVE",
"465 -340 CURVE SMOOTH",
"332.333 -340 OFFCURVE",
"266 -266.333 OFFCURVE",
"266 -119 CURVE SMOOTH",
"266 86.333 OFFCURVE",
"337.333 188.333 OFFCURVE",
"492 219 CURVE SMOOTH",
"640 248 LINE",
"673 582 LINE",
"593 582 LINE"
);
},
{
closed = 1;
nodes = (
"550 770.667 OFFCURVE",
"603.333 719 OFFCURVE",
"670 719 CURVE SMOOTH",
"738 719 OFFCURVE",
"791 772 OFFCURVE",
"791 840 CURVE SMOOTH",
"791 905.333 OFFCURVE",
"739.333 961 OFFCURVE",
"670 961 CURVE SMOOTH",
"602 961 OFFCURVE",
"550 905.333 OFFCURVE",
"550 840 CURVE SMOOTH"
);
}
);
width = 1024;
}
);
note = questiondown;
unicode = 00BF;
},
{
glyphname = exclamdown;
lastChange = "2025-02-05 21:33:01 +0000";
layers = (
{
layerId = "10338F47-40ED-49C2-8613-307B859987A6";
paths = (
{
closed = 1;
nodes = (
"328 772 OFFCURVE",
"381 719 OFFCURVE",
"449 719 CURVE SMOOTH",
"517 719 OFFCURVE",
"570 772 OFFCURVE",
"570 840 CURVE SMOOTH",
"570 905.333 OFFCURVE",
"518.333 961 OFFCURVE",
"449 961 CURVE SMOOTH",
"379.667 961 OFFCURVE",
"328 905.333 OFFCURVE",
"328 840 CURVE SMOOTH"
);
},
{
closed = 1;
nodes = (
"459 543 LINE",
"365 543 LINE",
"136 -409 LINE",
"354 -409 LINE"
);
}
);
width = 797;
}
);
note = exclamdown;
unicode = 00A1;
},
{
glyphname = logicalnot;
lastChange = "2025-02-05 21:33:01 +0000";
layers = (
{
layerId = "10338F47-40ED-49C2-8613-307B859987A6";
paths = (
{
closed = 1;
nodes = (
"225 731 LINE",
"225 629 LINE",
"1075 629 LINE",
"1075 203 LINE",
"1178 203 LINE",
"1178 731 LINE"
);
}
);
width = 1382;
}
);
note = logicalnot;
unicode = 00AC;
},
{
glyphname = radical;
lastChange = "2025-02-05 21:33:01 +0000";
layers = (
{
layerId = "10338F47-40ED-49C2-8613-307B859987A6";
paths = (
{
closed = 1;
nodes = (
"1122 1620 LINE",
"1032 1620 LINE",
"580 158 LINE",
"322 895 LINE",
"51 895 LINE",
"51 815 LINE",
"219 815 LINE",
"516 -14 LINE",
"623 -14 LINE"
);
}
);
width = 1124;
}
);
note = radical;
unicode = 221A;
},
{
glyphname = florin;
lastChange = "2025-02-05 21:33:01 +0000";
layers = (
{
layerId = "10338F47-40ED-49C2-8613-307B859987A6";
paths = (
{
closed = 1;
nodes = (
"395 -285 LINE",
"572 702 LINE",
"820 702 LINE",
"837 786 LINE",
"588 786 LINE",
"626 1001 LINE SMOOTH",
"646 1109 OFFCURVE",
"660.167 1186.667 OFFCURVE",
"703.5 1240 CURVE SMOOTH",
"725.167 1266.667 OFFCURVE",
"755.667 1280 OFFCURVE",
"795 1280 CURVE SMOOTH",
"831 1280 OFFCURVE",
"859.667 1272.333 OFFCURVE",
"881 1257 CURVE",
"910 1161 LINE",
"957 1161 LINE",
"964 1343 LINE",
"923.333 1355.667 OFFCURVE",
"872 1362 OFFCURVE",
"810 1362 CURVE SMOOTH",
"628.667 1362 OFFCURVE",
"497.333 1231.333 OFFCURVE",
"460 1018 CURVE SMOOTH",
"420 786 LINE",
"253 752 LINE",
"243 702 LINE",
"404 702 LINE",
"233 -285 LINE"
);
}
);
width = 1024;
}
);
note = florin;
unicode = 0192;
},
{
glyphname = approxequal;
lastChange = "2025-02-05 21:32:52 +0000";
layers = (
{
layerId = "10338F47-40ED-49C2-8613-307B859987A6";
paths = (
{
closed = 1;
nodes = (
"920.333 711 OFFCURVE",
"988.333 764 OFFCURVE",
"1031 856 CURVE SMOOTH",
"1052.333 902 OFFCURVE",
"1068.667 968.333 OFFCURVE",
"1080 1055 CURVE",
"977 1055 LINE",
"951.667 872.333 OFFCURVE",
"903 813 OFFCURVE",
"811 813 CURVE SMOOTH",
"787.667 813 OFFCURVE",
"762.167 821.167 OFFCURVE",
"734.5 837.5 CURVE SMOOTH",
"706.833 853.833 OFFCURVE",
"664.333 886 OFFCURVE",
"607 934 CURVE SMOOTH",
"507 1018 OFFCURVE",
"430.333 1055 OFFCURVE",
"357 1055 CURVE SMOOTH",
"199.667 1055 OFFCURVE",
"112 960.333 OFFCURVE",
"88 711 CURVE",
"189 711 LINE",
"206.333 887 OFFCURVE",
"254.333 952 OFFCURVE",
"357 952 CURVE SMOOTH",
"407.667 952 OFFCURVE",
"467.333 916 OFFCURVE",
"566 832 CURVE SMOOTH",
"658.667 751.333 OFFCURVE",
"740.333 711 OFFCURVE",
"811 711 CURVE SMOOTH"
);
},
{
closed = 1;
nodes = (
"920.333 301 OFFCURVE",
"988.333 354 OFFCURVE",
"1031 446 CURVE SMOOTH",
"1052.333 492 OFFCURVE",
"1068.667 558.333 OFFCURVE",
"1080 645 CURVE",
"977 645 LINE",
"951.667 462.333 OFFCURVE",
"903 403 OFFCURVE",
"811 403 CURVE SMOOTH",
"787.667 403 OFFCURVE",
"762.167 411.167 OFFCURVE",
"734.5 427.5 CURVE SMOOTH",
"706.833 443.833 OFFCURVE",
"664.333 476 OFFCURVE",
"607 524 CURVE SMOOTH",
"507 608 OFFCURVE",
"430.333 645 OFFCURVE",
"357 645 CURVE SMOOTH",
"199.667 645 OFFCURVE",
"112 550.333 OFFCURVE",
"88 301 CURVE",
"189 301 LINE",
"206.333 477 OFFCURVE",
"254.333 542 OFFCURVE",
"357 542 CURVE SMOOTH",
"407.667 542 OFFCURVE",
"467.333 506 OFFCURVE",
"566 422 CURVE SMOOTH",
"658.667 341.333 OFFCURVE",
"740.333 301 OFFCURVE",
"811 301 CURVE SMOOTH"
);
}
);
width = 1124;
}
);
note = approxequal;
unicode = 2248;
},
{
glyphname = uni2206;
lastChange = "2025-02-05 21:33:01 +0000";
layers = (
{
layerId = "10338F47-40ED-49C2-8613-307B859987A6";
paths = (
{
closed = 1;
nodes = (
"1208 80 LINE",
"713 1352 LINE",
"523 1352 LINE",
"46 80 LINE",
"46 0 LINE",
"1208 0 LINE"
);
},
{
closed = 1;
nodes = (
"980 109 LINE",
"174 109 LINE",
"574 1196 LINE"
);
}
);
width = 1253;
}
);
note = uni2206;
unicode = 2206;
},
{
glyphname = guillemotleft;
lastChange = "2025-02-05 21:33:01 +0000";
layers = (
{
layerId = "10338F47-40ED-49C2-8613-307B859987A6";
paths = (
{
closed = 1;
nodes = (
"122 496 LINE",
"111 430 LINE",
"402 74 LINE",
"463 74 LINE",
"280 457 LINE",
"600 852 LINE",
"539 852 LINE"
);
},
{
closed = 1;
nodes = (
"531 496 LINE",
"520 430 LINE",
"812 74 LINE",
"873 74 LINE",
"689 457 LINE",
"1010 852 LINE",
"949 852 LINE"
);
}
);
width = 1024;
}
);
note = guillemotleft;
unicode = 00AB;
},
{
glyphname = guillemotright;
lastChange = "2025-02-05 21:33:01 +0000";
layers = (
{
layerId = "10338F47-40ED-49C2-8613-307B859987A6";
paths = (
{
closed = 1;
nodes = (
"901 430 LINE",
"912 496 LINE",
"621 852 LINE",
"560 852 LINE",
"744 470 LINE",
"423 74 LINE",
"484 74 LINE"
);
},
{
closed = 1;
nodes = (
"492 430 LINE",
"503 496 LINE",
"211 852 LINE",
"150 852 LINE",
"335 470 LINE",
"13 74 LINE",
"74 74 LINE"
);
}
);
width = 1024;
}
);
note = guillemotright;
unicode = 00BB;
},
{
glyphname = ellipsis;
lastChange = "2025-02-05 21:32:52 +0000";
layers = (
{
layerId = "10338F47-40ED-49C2-8613-307B859987A6";
paths = (
{
closed = 1;
nodes = (
"310 160 OFFCURVE",
"257 213 OFFCURVE",
"189 213 CURVE SMOOTH",
"121 213 OFFCURVE",
"68 160 OFFCURVE",
"68 92 CURVE SMOOTH",
"68 26.667 OFFCURVE",
"119.667 -29 OFFCURVE",
"189 -29 CURVE SMOOTH",
"258.333 -29 OFFCURVE",
"310 26.667 OFFCURVE",
"310 92 CURVE SMOOTH"
);
},
{
closed = 1;
nodes = (
"996 160 OFFCURVE",
"943 213 OFFCURVE",
"875 213 CURVE SMOOTH",
"807 213 OFFCURVE",
"754 160 OFFCURVE",
"754 92 CURVE SMOOTH",
"754 26.667 OFFCURVE",
"805.667 -29 OFFCURVE",
"875 -29 CURVE SMOOTH",
"944.333 -29 OFFCURVE",
"996 26.667 OFFCURVE",
"996 92 CURVE SMOOTH"
);
},
{
closed = 1;
nodes = (
"1682 160 OFFCURVE",
"1629 213 OFFCURVE",
"1561 213 CURVE SMOOTH",
"1493 213 OFFCURVE",
"1440 160 OFFCURVE",
"1440 92 CURVE SMOOTH",
"1440 26.667 OFFCURVE",
"1491.667 -29 OFFCURVE",
"1561 -29 CURVE SMOOTH",
"1630.333 -29 OFFCURVE",
"1682 26.667 OFFCURVE",
"1682 92 CURVE SMOOTH"
);
}
);
width = 1821;
}
);
note = ellipsis;
unicode = 2026;
},
{
glyphname = OE;
lastChange = "2025-02-05 21:32:52 +0000";
layers = (
{
layerId = "10338F47-40ED-49C2-8613-307B859987A6";
paths = (
{
closed = 1;
nodes = (
"773.333 -6 OFFCURVE",
"865 -4 OFFCURVE",
"917 0 CURVE",
"1728 0 LINE",
"1810 354 LINE",
"1744 354 LINE",
"1643 106 LINE",
"1586.333 95.333 OFFCURVE",
"1472.667 90 OFFCURVE",
"1302 90 CURVE SMOOTH",
"1038 90 LINE",
"1135 637 LINE",
"1497 637 LINE",
"1499 475 LINE",
"1563 475 LINE",
"1636 887 LINE",
"1572 887 LINE",
"1512 727 LINE",
"1150 727 LINE",
"1243 1251 LINE",
"1462 1251 LINE SMOOTH",
"1603.333 1251 OFFCURVE",
"1710.333 1246.333 OFFCURVE",
"1783 1237 CURVE",
"1777 1020 LINE",
"1843 1020 LINE",
"1900 1341 LINE",
"1136 1341 LINE",
"871 1348 LINE SMOOTH",
"571 1348 OFFCURVE",
"327 1197 OFFCURVE",
"199 941 CURVE SMOOTH",
"135 813 OFFCURVE",
"103 670.667 OFFCURVE",
"103 514 CURVE SMOOTH",
"103 186 OFFCURVE",
"304.667 -6 OFFCURVE",
"642 -6 CURVE SMOOTH"
);
},
{
closed = 1;
nodes = (
"431 65 OFFCURVE",
"303 224.333 OFFCURVE",
"303 503 CURVE SMOOTH",
"303 759 OFFCURVE",
"418.5 1039.167 OFFCURVE",
"584.5 1174.5 CURVE SMOOTH",
"667.5 1242.167 OFFCURVE",
"758.667 1276 OFFCURVE",
"858 1276 CURVE SMOOTH",
"940.667 1276 OFFCURVE",
"1004 1268 OFFCURVE",
"1048 1252 CURVE",
"844 87 LINE",
"793.333 72.333 OFFCURVE",
"730.333 65 OFFCURVE",
"655 65 CURVE SMOOTH"
);
}
);
width = 1933;
}
);
note = OE;
unicode = 0152;
},
{
glyphname = oe;
lastChange = "2025-02-05 21:32:52 +0000";
layers = (
{
layerId = "10338F47-40ED-49C2-8613-307B859987A6";
paths = (
{
closed = 1;
nodes = (
"471 -20 OFFCURVE",
"578.333 30.333 OFFCURVE",
"663 131 CURVE",
"698.333 30.333 OFFCURVE",
"776.667 -20 OFFCURVE",
"898 -20 CURVE SMOOTH",
"1010 -20 OFFCURVE",
"1126 34 OFFCURVE",
"1246 142 CURVE",
"1217 184 LINE",
"1123.667 117.333 OFFCURVE",
"1036.667 84 OFFCURVE",
"956 84 CURVE SMOOTH",
"850.667 84 OFFCURVE",
"795 134 OFFCURVE",
"795 270 CURVE SMOOTH",
"795 323.333 OFFCURVE",
"806.667 403.667 OFFCURVE",
"808 413 CURVE",
"1018.667 430.333 OFFCURVE",
"1176.5 498.833 OFFCURVE",
"1258.5 603.5 CURVE SMOOTH",
"1299.5 655.833 OFFCURVE",
"1320 713.667 OFFCURVE",
"1320 777 CURVE SMOOTH",
"1320 897 OFFCURVE",
"1233.333 965 OFFCURVE",
"1092 965 CURVE SMOOTH",
"965.333 965 OFFCURVE",
"856 908 OFFCURVE",
"792 820 CURVE",
"742.667 916.667 OFFCURVE",
"664.333 965 OFFCURVE",
"557 965 CURVE SMOOTH",
"366.333 965 OFFCURVE",
"208 847 OFFCURVE",
"124 651 CURVE SMOOTH",
"82 553 OFFCURVE",
"61 445.333 OFFCURVE",
"61 328 CURVE SMOOTH",
"61 106.667 OFFCURVE",
"163.667 -20 OFFCURVE",
"341 -20 CURVE SMOOTH"
);
},
{
closed = 1;
nodes = (
"278.667 62 OFFCURVE",
"235 141.667 OFFCURVE",
"235 279 CURVE SMOOTH",
"235 477.667 OFFCURVE",
"294.833 685.167 OFFCURVE",
"387.5 800.5 CURVE SMOOTH",
"433.833 858.167 OFFCURVE",
"482 887 OFFCURVE",
"532 887 CURVE SMOOTH",
"614.667 887 OFFCURVE",
"663 807 OFFCURVE",
"663 667 CURVE SMOOTH",
"663 459 OFFCURVE",
"597.333 258 OFFCURVE",
"504 146 CURVE SMOOTH",
"457.333 90 OFFCURVE",
"409.333 62 OFFCURVE",
"360 62 CURVE SMOOTH"
);
},
{
closed = 1;
nodes = (
"858 721.333 OFFCURVE",
"960 888 OFFCURVE",
"1068 888 CURVE SMOOTH",
"1114.667 888 OFFCURVE",
"1149 847 OFFCURVE",
"1149 767 CURVE SMOOTH",
"1149 600.333 OFFCURVE",
"1035.333 497.333 OFFCURVE",
"818 476 CURVE"
);
}
);
width = 1366;
}
);
note = oe;
unicode = 0153;
},
{
glyphname = endash;
lastChange = "2025-02-05 21:33:01 +0000";
layers = (
{
layerId = "10338F47-40ED-49C2-8613-307B859987A6";
paths = (
{
closed = 1;
nodes = (
"-14 528 LINE",
"-14 426 LINE",
"1038 426 LINE",
"1038 528 LINE"
);
}
);
width = 1024;
}
);
note = endash;
unicode = 2013;
},
{
glyphname = emdash;
lastChange = "2025-02-05 21:33:01 +0000";
layers = (
{
layerId = "10338F47-40ED-49C2-8613-307B859987A6";
paths = (
{
closed = 1;
nodes = (
"-14 528 LINE",
"-14 426 LINE",
"1831 426 LINE",
"1831 528 LINE"
);
}
);
width = 1821;
}
);
note = emdash;
unicode = 2014;
},
{
glyphname = quotedblleft;
lastChange = "2025-02-05 21:32:52 +0000";
layers = (
{
layerId = "10338F47-40ED-49C2-8613-307B859987A6";
paths = (
{
closed = 1;
nodes = (
"713 899.667 OFFCURVE",
"764.667 836 OFFCURVE",
"846 836 CURVE SMOOTH",
"916.667 836 OFFCURVE",
"967 875 OFFCURVE",
"967 947 CURVE SMOOTH",
"967 1059.035 OFFCURVE",
"842 1043.39 OFFCURVE",
"842 1117 CURVE SMOOTH",
"842 1189.667 OFFCURVE",
"904 1245.667 OFFCURVE",
"1028 1285 CURVE",
"1028 1362 LINE",
"829.333 1304.667 OFFCURVE",
"713 1179.667 OFFCURVE",
"713 1005 CURVE SMOOTH"
);
},
{
closed = 1;
nodes = (
"300 899.667 OFFCURVE",
"351.667 836 OFFCURVE",
"433 836 CURVE SMOOTH",
"503.667 836 OFFCURVE",
"554 875 OFFCURVE",
"554 947 CURVE SMOOTH",
"554 1059.035 OFFCURVE",
"429 1043.39 OFFCURVE",
"429 1117 CURVE SMOOTH",
"429 1189.667 OFFCURVE",
"491 1245.667 OFFCURVE",
"615 1285 CURVE",
"615 1362 LINE",
"416.333 1304.667 OFFCURVE",
"300 1179.667 OFFCURVE",
"300 1005 CURVE SMOOTH"
);
}
);
width = 1139;
}
);
note = quotedblleft;
unicode = 201C;
},
{
glyphname = quotedblright;
lastChange = "2025-02-05 21:32:52 +0000";
layers = (
{
layerId = "10338F47-40ED-49C2-8613-307B859987A6";
paths = (
{
closed = 1;
nodes = (
"620 1298.333 OFFCURVE",
"568.333 1362 OFFCURVE",
"487 1362 CURVE SMOOTH",
"416.333 1362 OFFCURVE",
"366 1323 OFFCURVE",
"366 1251 CURVE SMOOTH",
"366 1138.965 OFFCURVE",
"491 1154.61 OFFCURVE",
"491 1081 CURVE SMOOTH",
"491 1008.333 OFFCURVE",
"429 952.333 OFFCURVE",
"305 913 CURVE",
"305 836 LINE",
"503.667 893.333 OFFCURVE",
"620 1018.333 OFFCURVE",
"620 1193 CURVE SMOOTH"
);
},
{
closed = 1;
nodes = (
"1033 1298.333 OFFCURVE",
"981.333 1362 OFFCURVE",
"900 1362 CURVE SMOOTH",
"829.333 1362 OFFCURVE",
"779 1323 OFFCURVE",
"779 1251 CURVE SMOOTH",
"779 1138.965 OFFCURVE",
"904 1154.61 OFFCURVE",
"904 1081 CURVE SMOOTH",
"904 1008.333 OFFCURVE",
"842 952.333 OFFCURVE",
"718 913 CURVE",
"718 836 LINE",
"916.667 893.333 OFFCURVE",
"1033 1018.333 OFFCURVE",
"1033 1193 CURVE SMOOTH"
);
}
);
width = 1139;
}
);
note = quotedblright;
unicode = 201D;
},
{
glyphname = quoteleft;
lastChange = "2025-02-05 21:32:52 +0000";
layers = (
{
layerId = "10338F47-40ED-49C2-8613-307B859987A6";
paths = (
{
closed = 1;
nodes = (
"302 899.667 OFFCURVE",
"353.667 836 OFFCURVE",
"435 836 CURVE SMOOTH",
"505.667 836 OFFCURVE",
"556 875 OFFCURVE",
"556 947 CURVE SMOOTH",
"556 1059.035 OFFCURVE",
"431 1043.39 OFFCURVE",
"431 1117 CURVE SMOOTH",
"431 1189.667 OFFCURVE",
"493 1245.667 OFFCURVE",
"617 1285 CURVE",
"617 1362 LINE",
"418.333 1304.667 OFFCURVE",
"302 1179.667 OFFCURVE",
"302 1005 CURVE SMOOTH"
);
}
);
width = 682;
}
);
note = quoteleft;
unicode = 2018;
},
{
glyphname = quoteright;
lastChange = "2025-02-05 21:32:52 +0000";
layers = (
{
layerId = "10338F47-40ED-49C2-8613-307B859987A6";
paths = (
{
closed = 1;
nodes = (
"620 1298.333 OFFCURVE",
"568.333 1362 OFFCURVE",
"487 1362 CURVE SMOOTH",
"416.333 1362 OFFCURVE",
"366 1323 OFFCURVE",
"366 1251 CURVE SMOOTH",
"366 1138.965 OFFCURVE",
"491 1154.61 OFFCURVE",
"491 1081 CURVE SMOOTH",
"491 1008.333 OFFCURVE",
"429 952.333 OFFCURVE",
"305 913 CURVE",
"305 836 LINE",
"503.667 893.333 OFFCURVE",
"620 1018.333 OFFCURVE",
"620 1193 CURVE SMOOTH"
);
}
);
width = 682;
}
);
note = quoteright;
unicode = 2019;
},
{
glyphname = divide;
lastChange = "2025-02-05 21:33:01 +0000";
layers = (
{
layerId = "10338F47-40ED-49C2-8613-307B859987A6";
paths = (
{
closed = 1;
nodes = (
"688 1116.333 OFFCURVE",
"645.333 1159 OFFCURVE",
"592 1159 CURVE SMOOTH",
"537.333 1159 OFFCURVE",
"495 1116.333 OFFCURVE",
"495 1063 CURVE SMOOTH",
"495 1009.667 OFFCURVE",
"537.333 967 OFFCURVE",
"592 967 CURVE SMOOTH",
"645.333 967 OFFCURVE",
"688 1009.667 OFFCURVE",
"688 1063 CURVE SMOOTH"
);
},
{
closed = 1;
nodes = (
"688 350.333 OFFCURVE",
"645.333 393 OFFCURVE",
"592 393 CURVE SMOOTH",
"537.333 393 OFFCURVE",
"495 350.333 OFFCURVE",
"495 297 CURVE SMOOTH",
"495 243.667 OFFCURVE",
"537.333 201 OFFCURVE",
"592 201 CURVE SMOOTH",
"645.333 201 OFFCURVE",
"688 243.667 OFFCURVE",
"688 297 CURVE SMOOTH"
);
},
{
closed = 1;
nodes = (
"116 731 LINE",
"116 629 LINE",
"1069 629 LINE",
"1069 731 LINE"
);
}
);
width = 1124;
}
);
note = divide;
unicode = 00F7;
},
{
glyphname = lozenge;
lastChange = "2025-02-05 21:33:01 +0000";
layers = (
{
layerId = "10338F47-40ED-49C2-8613-307B859987A6";
paths = (
{
closed = 1;
nodes = (
"1006 721 LINE",
"547 1440 LINE",
"465 1440 LINE",
"8 719 LINE",
"465 0 LINE",
"547 0 LINE"
);
},
{
closed = 1;
nodes = (
"860 721 LINE",
"508 147 LINE",
"154 721 LINE",
"508 1286 LINE"
);
}
);
width = 1012;
}
);
note = lozenge;
unicode = 25CA;
},
{
glyphname = fraction;
lastChange = "2025-02-05 21:33:01 +0000";
layers = (
{
layerId = "10338F47-40ED-49C2-8613-307B859987A6";
paths = (
{
closed = 1;
nodes = (
"702 1341 LINE",
"602 1341 LINE",
"-362 0 LINE",
"-260 0 LINE"
);
}
);
width = 342;
}
);
note = fraction;
unicode = "2044,2215";
},
{
glyphname = Euro;
lastChange = "2025-02-05 21:32:52 +0000";
layers = (
{
layerId = "10338F47-40ED-49C2-8613-307B859987A6";
paths = (
{
closed = 1;
nodes = (
"82 829 LINE",
"68 748 LINE",
"174 748 LINE",
"160.667 698 OFFCURVE",
"150.667 643.333 OFFCURVE",
"144 584 CURVE",
"39 584 LINE",
"24 502 LINE",
"136 502 LINE",
"134 446 LINE SMOOTH",
"134 154 OFFCURVE",
"289 -20 OFFCURVE",
"557 -20 CURVE SMOOTH",
"679 -20 OFFCURVE",
"793.667 1 OFFCURVE",
"901 43 CURVE",
"954 317 LINE",
"887 317 LINE",
"834 158 LINE",
"779.333 103.333 OFFCURVE",
"688.333 57 OFFCURVE",
"579 57 CURVE SMOOTH",
"428.333 57 OFFCURVE",
"339 169 OFFCURVE",
"339 401 CURVE",
"343 502 LINE",
"693 502 LINE",
"708 584 LINE",
"352 584 LINE",
"359.333 641.333 OFFCURVE",
"369.333 696 OFFCURVE",
"382 748 CURVE",
"737 748 LINE",
"751 829 LINE",
"401 829 LINE",
"481 1133 OFFCURVE",
"601.333 1276 OFFCURVE",
"792 1276 CURVE SMOOTH",
"872 1276 OFFCURVE",
"948.333 1243.333 OFFCURVE",
"999 1186 CURVE",
"995 1053 LINE",
"1063 1053 LINE",
"1104 1305 LINE",
"972 1345 OFFCURVE",
"883.667 1356 OFFCURVE",
"785 1356 CURVE SMOOTH",
"503.667 1356 OFFCURVE",
"298 1187.667 OFFCURVE",
"194 829 CURVE"
);
}
);
width = 1024;
}
);
note = Euro;
unicode = 20AC;
},
{
glyphname = guilsinglleft;
lastChange = "2025-02-05 21:33:01 +0000";
layers = (
{
layerId = "10338F47-40ED-49C2-8613-307B859987A6";
paths = (
{
closed = 1;
nodes = (
"122 496 LINE",
"111 430 LINE",
"402 74 LINE",
"463 74 LINE",
"280 457 LINE",
"600 852 LINE",
"539 852 LINE"
);
}
);
width = 682;
}
);
note = guilsinglleft;
unicode = 2039;
},
{
glyphname = guilsinglright;
lastChange = "2025-02-05 21:33:01 +0000";
layers = (
{
layerId = "10338F47-40ED-49C2-8613-307B859987A6";
paths = (
{
closed = 1;
nodes = (
"561 430 LINE",
"572 496 LINE",
"280 852 LINE",
"219 852 LINE",
"404 470 LINE",
"82 74 LINE",
"143 74 LINE"
);
}
);
width = 682;
}
);
note = guilsinglright;
unicode = 203A;
},
{
glyphname = uniFB01;
lastChange = "2025-02-05 21:33:01 +0000";
layers = (
{
layerId = "10338F47-40ED-49C2-8613-307B859987A6";
paths = (
{
closed = 1;
nodes = (
"414 856 LINE",
"714 856 LINE",
"564 0 LINE",
"891 0 LINE",
"899 45 LINE",
"742 70 LINE",
"895 940 LINE",
"428 940 LINE",
"455 1096 LINE",
"499 1288 OFFCURVE",
"562 1362 OFFCURVE",
"682 1362 CURVE SMOOTH",
"732 1362 OFFCURVE",
"769.667 1355 OFFCURVE",
"795 1341 CURVE",
"820 1227 LINE",
"886 1227 LINE",
"921 1423 LINE",
"867 1435.667 OFFCURVE",
"807 1442 OFFCURVE",
"741 1442 CURVE SMOOTH",
"467.667 1442 OFFCURVE",
"330.667 1311.333 OFFCURVE",
"276 1010 CURVE SMOOTH",
"264 944 LINE",
"94 905 LINE",
"86 856 LINE",
"248 856 LINE",
"23 -436 LINE",
"189 -436 LINE"
);
}
);
width = 1024;
}
);
note = uniFB01;
unicode = "F001,FB01";
},
{
glyphname = uniFB02;
lastChange = "2025-02-05 21:33:01 +0000";
layers = (
{
layerId = "10338F47-40ED-49C2-8613-307B859987A6";
paths = (
{
closed = 1;
nodes = (
"981 1429 LINE",
"957 1433 OFFCURVE",
"805 1442 OFFCURVE",
"745 1442 CURVE SMOOTH",
"547.667 1442 OFFCURVE",
"434.167 1388.167 OFFCURVE",
"361.5 1267.5 CURVE SMOOTH",
"325.167 1207.167 OFFCURVE",
"296.667 1121.333 OFFCURVE",
"276 1010 CURVE SMOOTH",
"264 944 LINE",
"94 905 LINE",
"86 856 LINE",
"248 856 LINE",
"23 -436 LINE",
"189 -436 LINE",
"414 856 LINE",
"623 856 LINE",
"637 940 LINE",
"428 940 LINE",
"455 1096 LINE",
"497.667 1285.333 OFFCURVE",
"563.333 1362 OFFCURVE",
"686 1362 CURVE SMOOTH",
"736 1362 OFFCURVE",
"773.667 1355 OFFCURVE",
"799 1341 CURVE",
"799 1340 LINE",
"564 0 LINE",
"891 0 LINE",
"899 45 LINE",
"742 70 LINE"
);
}
);
width = 1024;
}
);
note = uniFB02;
unicode = "F002,FB02";
},
{
glyphname = daggerdbl;
lastChange = "2025-02-05 21:33:01 +0000";
layers = (
{
layerId = "10338F47-40ED-49C2-8613-307B859987A6";
paths = (
{
closed = 1;
nodes = (
"437 242 LINE",
"29 289 LINE",
"3 133 LINE",
"425 176 LINE",
"309 -240 LINE",
"465 -240 LINE",
"491 176 LINE",
"900 133 LINE",
"927 289 LINE",
"503 242 LINE",
"598 401 LINE",
"554 590 LINE",
"665 780 LINE",
"626 940 LINE",
"1034 893 LINE",
"1061 1049 LINE",
"638 1006 LINE",
"758 1421 LINE",
"602 1421 LINE",
"572 1006 LINE",
"163 1049 LINE",
"136 893 LINE",
"560 940 LINE",
"469 780 LINE",
"508 590 LINE",
"402 401 LINE"
);
}
);
width = 1024;
}
);
note = daggerdbl;
unicode = 2021;
},
{
glyphname = periodcentered;
lastChange = "2025-02-05 21:32:52 +0000";
layers = (
{
layerId = "10338F47-40ED-49C2-8613-307B859987A6";
paths = (
{
closed = 1;
nodes = (
"407 743.333 OFFCURVE",
"355.333 799 OFFCURVE",
"286 799 CURVE SMOOTH",
"216.667 799 OFFCURVE",
"165 743.333 OFFCURVE",
"165 678 CURVE SMOOTH",
"165 610 OFFCURVE",
"218 557 OFFCURVE",
"286 557 CURVE SMOOTH",
"354 557 OFFCURVE",
"407 610 OFFCURVE",
"407 678 CURVE SMOOTH"
);
}
);
width = 512;
}
);
note = periodcentered;
unicode = 2219;
},
{
glyphname = quotesinglbase;
lastChange = "2025-02-05 21:32:52 +0000";
layers = (
{
layerId = "10338F47-40ED-49C2-8613-307B859987A6";
paths = (
{
closed = 1;
nodes = (
"483 147.333 OFFCURVE",
"431.333 211 OFFCURVE",
"350 211 CURVE SMOOTH",
"279.333 211 OFFCURVE",
"229 172 OFFCURVE",
"229 100 CURVE SMOOTH",
"229 -12.035 OFFCURVE",
"354 3.61 OFFCURVE",
"354 -70 CURVE SMOOTH",
"354 -142.667 OFFCURVE",
"292 -198.667 OFFCURVE",
"168 -238 CURVE",
"168 -315 LINE",
"366.667 -257.667 OFFCURVE",
"483 -132.667 OFFCURVE",
"483 42 CURVE SMOOTH"
);
}
);
width = 682;
}
);
note = quotesinglbase;
unicode = 201A;
},
{
glyphname = quotedblbase;
lastChange = "2025-02-05 21:32:52 +0000";
layers = (
{
layerId = "10338F47-40ED-49C2-8613-307B859987A6";
paths = (
{
closed = 1;
nodes = (
"398 147.333 OFFCURVE",
"346.333 211 OFFCURVE",
"265 211 CURVE SMOOTH",
"194.333 211 OFFCURVE",
"144 172 OFFCURVE",
"144 100 CURVE SMOOTH",
"144 -12.035 OFFCURVE",
"269 3.61 OFFCURVE",
"269 -70 CURVE SMOOTH",
"269 -142.667 OFFCURVE",
"207 -198.667 OFFCURVE",
"83 -238 CURVE",
"83 -315 LINE",
"281.667 -257.667 OFFCURVE",
"398 -132.667 OFFCURVE",
"398 42 CURVE SMOOTH"
);
},
{
closed = 1;
nodes = (
"811 147.333 OFFCURVE",
"759.333 211 OFFCURVE",
"678 211 CURVE SMOOTH",
"607.333 211 OFFCURVE",
"557 172 OFFCURVE",
"557 100 CURVE SMOOTH",
"557 -12.035 OFFCURVE",
"682 3.61 OFFCURVE",
"682 -70 CURVE SMOOTH",
"682 -142.667 OFFCURVE",
"620 -198.667 OFFCURVE",
"496 -238 CURVE",
"496 -315 LINE",
"694.667 -257.667 OFFCURVE",
"811 -132.667 OFFCURVE",
"811 42 CURVE SMOOTH"
);
}
);
width = 1139;
}
);
note = quotedblbase;
unicode = 201E;
},
{
glyphname = perthousand;
lastChange = "2025-02-05 21:33:01 +0000";
layers = (
{
layerId = "10338F47-40ED-49C2-8613-307B859987A6";
paths = (
{
closed = 1;
nodes = (
"595.147 664 OFFCURVE",
"735 826.71 OFFCURVE",
"735 1125 CURVE SMOOTH",
"735 1283 OFFCURVE",
"656 1362 OFFCURVE",
"498 1362 CURVE SMOOTH",
"332.667 1362 OFFCURVE",
"223.333 1293.167 OFFCURVE",
"166 1144.5 CURVE SMOOTH",
"137.333 1070.167 OFFCURVE",
"123 992.333 OFFCURVE",
"123 911 CURVE SMOOTH",
"123 746.333 OFFCURVE",
"207.333 664 OFFCURVE",
"376 664 CURVE SMOOTH"
);
},
{
closed = 1;
nodes = (
"582 1023.667 OFFCURVE",
"543.833 850.167 OFFCURVE",
"492.5 785.5 CURVE SMOOTH",
"466.833 753.167 OFFCURVE",
"433 737 OFFCURVE",
"391 737 CURVE SMOOTH",
"307 737 OFFCURVE",
"275 787.333 OFFCURVE",
"275 886 CURVE SMOOTH",
"275 1000.667 OFFCURVE",
"309.167 1178.333 OFFCURVE",
"364.5 1241 CURVE SMOOTH",
"392.167 1272.333 OFFCURVE",
"429.667 1288 OFFCURVE",
"477 1288 CURVE SMOOTH",
"551.667 1288 OFFCURVE",
"582 1242.333 OFFCURVE",
"582 1145 CURVE SMOOTH"
);
},
{
closed = 1;
nodes = (
"1363 1362 LINE",
"1251 1362 LINE",
"59 -20 LINE",
"171 -20 LINE"
);
},
{
closed = 1;
nodes = (
"1142.147 -29 OFFCURVE",
"1282 133.71 OFFCURVE",
"1282 432 CURVE SMOOTH",
"1282 590 OFFCURVE",
"1203 669 OFFCURVE",
"1045 669 CURVE SMOOTH",
"879.667 669 OFFCURVE",
"770.333 600.167 OFFCURVE",
"713 451.5 CURVE SMOOTH",
"684.333 377.167 OFFCURVE",
"670 299.333 OFFCURVE",
"670 218 CURVE SMOOTH",
"670 53.333 OFFCURVE",
"754.333 -29 OFFCURVE",
"923 -29 CURVE SMOOTH"
);
},
{
closed = 1;
nodes = (
"1129 330.667 OFFCURVE",
"1090.833 157.167 OFFCURVE",
"1039.5 92.5 CURVE SMOOTH",
"1013.833 60.167 OFFCURVE",
"980 44 OFFCURVE",
"938 44 CURVE SMOOTH",
"854 44 OFFCURVE",
"822 94.333 OFFCURVE",
"822 193 CURVE SMOOTH",
"822 307.667 OFFCURVE",
"856.167 485.333 OFFCURVE",
"911.5 548 CURVE SMOOTH",
"939.167 579.333 OFFCURVE",
"976.667 595 OFFCURVE",
"1024 595 CURVE SMOOTH",
"1098.667 595 OFFCURVE",
"1129 549.333 OFFCURVE",
"1129 452 CURVE SMOOTH"
);
},
{
closed = 1;
nodes = (
"1838.147 -29 OFFCURVE",
"1978 133.71 OFFCURVE",
"1978 432 CURVE SMOOTH",
"1978 590 OFFCURVE",
"1899 669 OFFCURVE",
"1741 669 CURVE SMOOTH",
"1575.667 669 OFFCURVE",
"1466.333 600.167 OFFCURVE",
"1409 451.5 CURVE SMOOTH",
"1380.333 377.167 OFFCURVE",
"1366 299.333 OFFCURVE",
"1366 218 CURVE SMOOTH",
"1366 53.333 OFFCURVE",
"1450.333 -29 OFFCURVE",
"1619 -29 CURVE SMOOTH"
);
},
{
closed = 1;
nodes = (
"1825 330.667 OFFCURVE",
"1786.833 157.167 OFFCURVE",
"1735.5 92.5 CURVE SMOOTH",
"1709.833 60.167 OFFCURVE",
"1676 44 OFFCURVE",
"1634 44 CURVE SMOOTH",
"1550 44 OFFCURVE",
"1518 94.333 OFFCURVE",
"1518 193 CURVE SMOOTH",
"1518 307.667 OFFCURVE",
"1552.167 485.333 OFFCURVE",
"1607.5 548 CURVE SMOOTH",
"1635.167 579.333 OFFCURVE",
"1672.667 595 OFFCURVE",
"1720 595 CURVE SMOOTH",
"1794.667 595 OFFCURVE",
"1825 549.333 OFFCURVE",
"1825 452 CURVE SMOOTH"
);
}
);
width = 2048;
}
);
note = perthousand;
unicode = 2030;
},
{
glyphname = dotlessi;
lastChange = "2025-02-05 21:33:01 +0000";
layers = (
{
layerId = "10338F47-40ED-49C2-8613-307B859987A6";
paths = (
{
closed = 1;
nodes = (
"440 940 LINE",
"141 940 LINE",
"133 895 LINE",
"262 870 LINE",
"109 0 LINE",
"436 0 LINE",
"444 45 LINE",
"287 70 LINE"
);
}
);
width = 569;
}
);
note = dotlessi;
unicode = 0131;
},
{
glyphname = circumflex;
lastChange = "2025-02-05 21:33:01 +0000";
layers = (
{
layerId = "10338F47-40ED-49C2-8613-307B859987A6";
paths = (
{
closed = 1;
nodes = (
"238 1118 LINE",
"508 1301 LINE",
"714 1118 LINE",
"761 1118 LINE",
"766 1151 LINE",
"627 1424 LINE",
"414 1424 LINE",
"179 1151 LINE",
"174 1118 LINE"
);
}
);
width = 682;
}
);
note = circumflex;
unicode = 02C6;
},
{
glyphname = tilde;
lastChange = "2025-02-05 21:32:52 +0000";
layers = (
{
layerId = "10338F47-40ED-49C2-8613-307B859987A6";
paths = (
{
closed = 1;
nodes = (
"690.667 1119 OFFCURVE",
"767.333 1193.333 OFFCURVE",
"810 1360 CURVE",
"758 1360 LINE",
"727.333 1266.667 OFFCURVE",
"693 1242 OFFCURVE",
"637 1242 CURVE SMOOTH",
"548.69 1242 OFFCURVE",
"490.775 1381 OFFCURVE",
"361 1381 CURVE SMOOTH",
"242.333 1381 OFFCURVE",
"165.667 1308.333 OFFCURVE",
"123 1139 CURVE",
"175 1139 LINE",
"197.028 1203.925 OFFCURVE",
"211.967 1228.811 OFFCURVE",
"243.5 1246.5 CURVE SMOOTH",
"257.167 1254.167 OFFCURVE",
"274.667 1258 OFFCURVE",
"296 1258 CURVE SMOOTH",
"386.591 1258 OFFCURVE",
"442.676 1119 OFFCURVE",
"572 1119 CURVE SMOOTH"
);
}
);
width = 682;
}
);
note = tilde;
unicode = 02DC;
},
{
glyphname = uni02C9;
lastChange = "2025-02-05 21:33:01 +0000";
layers = (
{
layerId = "10338F47-40ED-49C2-8613-307B859987A6";
paths = (
{
closed = 1;
nodes = (
"786 1161 LINE",
"805 1270 LINE",
"177 1270 LINE",
"158 1161 LINE"
);
}
);
width = 682;
}
);
note = uni02C9;
unicode = 02C9;
},
{
glyphname = breve;
lastChange = "2025-02-05 21:32:52 +0000";
layers = (
{
layerId = "10338F47-40ED-49C2-8613-307B859987A6";
paths = (
{
closed = 1;
nodes = (
"643.667 1119 OFFCURVE",
"765 1225.667 OFFCURVE",
"801 1399 CURVE",
"727 1399 LINE",
"692.333 1313.667 OFFCURVE",
"604.667 1260 OFFCURVE",
"490 1260 CURVE SMOOTH",
"378 1260 OFFCURVE",
"306.333 1312.333 OFFCURVE",
"301 1399 CURVE",
"227 1399 LINE",
"223 1343 LINE",
"223 1201.667 OFFCURVE",
"310.333 1119 OFFCURVE",
"465 1119 CURVE SMOOTH"
);
}
);
width = 682;
}
);
note = breve;
unicode = 02D8;
},
{
glyphname = dotaccent;
lastChange = "2025-02-05 21:32:52 +0000";
layers = (
{
layerId = "10338F47-40ED-49C2-8613-307B859987A6";
paths = (
{
closed = 1;
nodes = (
"580 1307 OFFCURVE",
"531 1356 OFFCURVE",
"471 1356 CURVE SMOOTH",
"412.333 1356 OFFCURVE",
"363 1307 OFFCURVE",
"363 1247 CURVE SMOOTH",
"363 1188.333 OFFCURVE",
"412.333 1139 OFFCURVE",
"471 1139 CURVE SMOOTH",
"531 1139 OFFCURVE",
"580 1188.333 OFFCURVE",
"580 1247 CURVE SMOOTH"
);
}
);
width = 682;
}
);
note = dotaccent;
unicode = 02D9;
},
{
glyphname = ring;
lastChange = "2025-02-05 21:32:52 +0000";
layers = (
{
layerId = "10338F47-40ED-49C2-8613-307B859987A6";
paths = (
{
closed = 1;
nodes = (
"675 1389 OFFCURVE",
"584 1480 OFFCURVE",
"472 1480 CURVE SMOOTH",
"360 1480 OFFCURVE",
"269 1389 OFFCURVE",
"269 1277 CURVE SMOOTH",
"269 1165 OFFCURVE",
"360 1074 OFFCURVE",
"472 1074 CURVE SMOOTH",
"584 1074 OFFCURVE",
"675 1165 OFFCURVE",
"675 1277 CURVE SMOOTH"
);
},
{
closed = 1;
nodes = (
"595 1206.333 OFFCURVE",
"536 1154 OFFCURVE",
"472 1154 CURVE SMOOTH",
"406.667 1154 OFFCURVE",
"349 1207.667 OFFCURVE",
"349 1277 CURVE SMOOTH",
"349 1345 OFFCURVE",
"404 1400 OFFCURVE",
"472 1400 CURVE SMOOTH",
"540 1400 OFFCURVE",
"595 1345 OFFCURVE",
"595 1277 CURVE SMOOTH"
);
}
);
width = 682;
}
);
note = ring;
unicode = 02DA;
},
{
glyphname = cedilla;
lastChange = "2025-02-05 21:32:52 +0000";
layers = (
{
layerId = "10338F47-40ED-49C2-8613-307B859987A6";
paths = (
{
closed = 1;
nodes = (
"526 -122.667 OFFCURVE",
"465.667 -65.667 OFFCURVE",
"359 -55 CURVE",
"392 27 LINE",
"306 27 LINE",
"238 -126 LINE",
"324.667 -134 OFFCURVE",
"371 -176.333 OFFCURVE",
"371 -235 CURVE SMOOTH",
"371 -311 OFFCURVE",
"315.333 -347 OFFCURVE",
"234 -347 CURVE SMOOTH",
"201.333 -347 OFFCURVE",
"169 -341.667 OFFCURVE",
"137 -331 CURVE",
"114 -406 LINE",
"154.667 -420 OFFCURVE",
"199 -427 OFFCURVE",
"247 -427 CURVE SMOOTH",
"428.333 -427 OFFCURVE",
"526 -342.667 OFFCURVE",
"526 -212 CURVE SMOOTH"
);
}
);
width = 682;
}
);
note = cedilla;
unicode = 00B8;
},
{
glyphname = hungarumlaut;
lastChange = "2025-02-05 21:33:01 +0000";
layers = (
{
layerId = "10338F47-40ED-49C2-8613-307B859987A6";
paths = (
{
closed = 1;
nodes = (
"158 1118 LINE",
"502 1407 LINE",
"508 1444 LINE",
"316 1444 LINE",
"89 1151 LINE",
"83 1118 LINE"
);
},
{
closed = 1;
nodes = (
"509 1118 LINE",
"852 1407 LINE",
"858 1444 LINE",
"666 1444 LINE",
"439 1151 LINE",
"433 1118 LINE"
);
}
);
width = 682;
}
);
note = hungarumlaut;
unicode = 02DD;
},
{
glyphname = ogonek;
lastChange = "2025-02-05 21:32:52 +0000";
layers = (
{
layerId = "10338F47-40ED-49C2-8613-307B859987A6";
paths = (
{
closed = 1;
nodes = (
"479 -297 LINE",
"450.333 -309 OFFCURVE",
"420.667 -315 OFFCURVE",
"390 -315 CURVE SMOOTH",
"314 -315 OFFCURVE",
"271 -274 OFFCURVE",
"271 -202 CURVE SMOOTH",
"271 -126 OFFCURVE",
"305 -46.667 OFFCURVE",
"361 16 CURVE",
"252 16 LINE",
"169.333 -52 OFFCURVE",
"122 -137 OFFCURVE",
"122 -221 CURVE SMOOTH",
"122 -334.333 OFFCURVE",
"196.333 -403 OFFCURVE",
"319 -403 CURVE SMOOTH",
"383 -403 OFFCURVE",
"441.667 -386.667 OFFCURVE",
"495 -354 CURVE"
);
}
);
width = 682;
}
);
note = ogonek;
unicode = 02DB;
},
{
glyphname = caron;
lastChange = "2025-02-05 21:33:01 +0000";
layers = (
{
layerId = "10338F47-40ED-49C2-8613-307B859987A6";
paths = (
{
closed = 1;
nodes = (
"189 1424 LINE",
"184 1391 LINE",
"324 1118 LINE",
"537 1118 LINE",
"772 1391 LINE",
"777 1424 LINE",
"717 1424 LINE",
"447 1241 LINE",
"241 1424 LINE"
);
}
);
width = 682;
}
);
note = caron;
unicode = 02C7;
},
{
glyphname = Lslash;
lastChange = "2025-02-05 21:33:01 +0000";
layers = (
{
layerId = "10338F47-40ED-49C2-8613-307B859987A6";
paths = (
{
closed = 1;
nodes = (
"563 1262 LINE",
"774 1288 LINE",
"784 1341 LINE",
"212 1341 LINE",
"202 1288 LINE",
"370 1262 LINE",
"257 625 LINE",
"52 518 LINE",
"36 422 LINE",
"240 530 LINE",
"161 80 LINE",
"-14 53 LINE",
"-24 0 LINE",
"956 0 LINE",
"1042 385 LINE",
"977 385 LINE",
"866 106 LINE",
"794.667 92.667 OFFCURVE",
"695.667 86 OFFCURVE",
"569 86 CURVE SMOOTH",
"355 86 LINE",
"453 642 LINE",
"793 821 LINE",
"810 915 LINE",
"470 736 LINE"
);
}
);
width = 1139;
}
);
note = Lslash;
unicode = 0141;
},
{
glyphname = lslash;
lastChange = "2025-02-05 21:33:01 +0000";
layers = (
{
layerId = "10338F47-40ED-49C2-8613-307B859987A6";
paths = (
{
closed = 1;
nodes = (
"524 1421 LINE",
"225 1421 LINE",
"217 1376 LINE",
"346 1352 LINE",
"217 621 LINE",
"19 518 LINE",
"3 422 LINE",
"201 526 LINE",
"109 0 LINE",
"436 0 LINE",
"444 45 LINE",
"287 70 LINE",
"384 622 LINE",
"596 735 LINE",
"612 829 LINE",
"400 716 LINE"
);
}
);
width = 569;
}
);
note = lslash;
unicode = 0142;
},
{
glyphname = brokenbar;
lastChange = "2025-02-05 21:33:01 +0000";
layers = (
{
layerId = "10338F47-40ED-49C2-8613-307B859987A6";
paths = (
{
closed = 1;
nodes = (
"369 801 LINE",
"369 1421 LINE",
"267 1421 LINE",
"267 801 LINE"
);
},
{
closed = 1;
nodes = (
"369 -442 LINE",
"369 180 LINE",
"267 180 LINE",
"267 -442 LINE"
);
}
);
width = 563;
}
);
note = brokenbar;
unicode = 00A6;
},
{
glyphname = Eth;
lastChange = "2025-02-05 21:32:52 +0000";
layers = (
{
layerId = "10338F47-40ED-49C2-8613-307B859987A6";
paths = (
{
closed = 1;
nodes = (
"212 1341 LINE",
"203 1288 LINE",
"370 1262 LINE",
"273 711 LINE",
"93 711 LINE",
"78 629 LINE",
"258 629 LINE",
"162 80 LINE",
"-14 53 LINE",
"-23 0 LINE",
"629 -4 LINE SMOOTH",
"957 -4 OFFCURVE",
"1213.5 128.333 OFFCURVE",
"1347.5 371 CURVE SMOOTH",
"1414.5 492.333 OFFCURVE",
"1448 632.667 OFFCURVE",
"1448 792 CURVE SMOOTH",
"1448 1146.667 OFFCURVE",
"1214.667 1341 OFFCURVE",
"784 1341 CURVE SMOOTH"
);
},
{
closed = 1;
nodes = (
"1238 337 OFFCURVE",
"1013 86 OFFCURVE",
"621 86 CURVE SMOOTH",
"551.667 86 OFFCURVE",
"463.667 88.667 OFFCURVE",
"357 94 CURVE",
"451 629 LINE",
"826 629 LINE",
"841 711 LINE",
"466 711 LINE",
"561 1251 LINE",
"723 1251 LINE SMOOTH",
"1066.333 1251 OFFCURVE",
"1238 1095.667 OFFCURVE",
"1238 785 CURVE SMOOTH"
);
}
);
width = 1479;
}
);
note = Eth;
unicode = 00D0;
},
{
glyphname = eth;
lastChange = "2025-02-05 21:32:52 +0000";
layers = (
{
layerId = "10338F47-40ED-49C2-8613-307B859987A6";
paths = (
{
closed = 1;
nodes = (
"959 903.333 OFFCURVE",
"885.667 1124.333 OFFCURVE",
"759 1235 CURVE",
"973 1350 LINE",
"990 1444 LINE",
"696 1288 LINE",
"616.667 1347.333 OFFCURVE",
"519.667 1391.667 OFFCURVE",
"405 1421 CURVE",
"391 1343 LINE",
"464.333 1319 OFFCURVE",
"530.667 1282.333 OFFCURVE",
"590 1233 CURVE",
"339 1102 LINE",
"322 1006 LINE",
"648 1178 LINE",
"717.333 1100 OFFCURVE",
"761.667 993.667 OFFCURVE",
"781 859 CURVE",
"722.333 891 OFFCURVE",
"658.667 907 OFFCURVE",
"590 907 CURVE SMOOTH",
"388.667 907 OFFCURVE",
"219.167 805.5 OFFCURVE",
"126.5 631.5 CURVE SMOOTH",
"80.167 544.5 OFFCURVE",
"57 450 OFFCURVE",
"57 348 CURVE SMOOTH",
"57 120 OFFCURVE",
"200.333 -25 OFFCURVE",
"423 -25 CURVE SMOOTH",
"764.333 -25 OFFCURVE",
"959 222 OFFCURVE",
"959 658 CURVE SMOOTH"
);
},
{
closed = 1;
nodes = (
"699 825 OFFCURVE",
"771 729.333 OFFCURVE",
"771 548 CURVE SMOOTH",
"771 373.333 OFFCURVE",
"706.833 211.833 OFFCURVE",
"603.5 124.5 CURVE SMOOTH",
"551.833 80.833 OFFCURVE",
"496.667 59 OFFCURVE",
"438 59 CURVE SMOOTH",
"312.667 59 OFFCURVE",
"237 156.333 OFFCURVE",
"237 331 CURVE SMOOTH",
"237 509.667 OFFCURVE",
"301.667 674.5 OFFCURVE",
"403 760.5 CURVE SMOOTH",
"453.667 803.5 OFFCURVE",
"508.333 825 OFFCURVE",
"567 825 CURVE SMOOTH"
);
}
);
width = 1024;
}
);
note = eth;
unicode = 00F0;
},
{
glyphname = Thorn;
lastChange = "2025-02-05 21:32:52 +0000";
layers = (
{
layerId = "10338F47-40ED-49C2-8613-307B859987A6";
paths = (
{
closed = 1;
nodes = (
"403 358 LINE",
"515 993 LINE",
"663 993 LINE SMOOTH",
"857.667 993 OFFCURVE",
"954 905.667 OFFCURVE",
"954 715 CURVE SMOOTH",
"954 477 OFFCURVE",
"824.667 358 OFFCURVE",
"566 358 CURVE SMOOTH"
);
},
{
closed = 1;
nodes = (
"531 1083 LINE",
"563 1262 LINE",
"739 1288 LINE",
"749 1341 LINE",
"225 1341 LINE",
"215 1288 LINE",
"370 1262 LINE",
"161 80 LINE",
"-1 53 LINE",
"-11 0 LINE",
"563 0 LINE",
"573 53 LINE",
"354 80 LINE",
"387 268 LINE",
"588 268 LINE SMOOTH",
"950.667 268 OFFCURVE",
"1153 429.333 OFFCURVE",
"1153 728 CURVE SMOOTH",
"1153 962.667 OFFCURVE",
"991 1083 OFFCURVE",
"703 1083 CURVE SMOOTH"
);
}
);
width = 1251;
}
);
note = Thorn;
unicode = 00DE;
},
{
glyphname = thorn;
lastChange = "2025-02-05 21:32:52 +0000";
layers = (
{
layerId = "10338F47-40ED-49C2-8613-307B859987A6";
paths = (
{
closed = 1;
nodes = (
"468 1421 LINE",
"165 1421 LINE",
"157 1376 LINE",
"290 1352 LINE",
"-13 -365 LINE",
"-136 -389 LINE",
"-144 -436 LINE",
"302 -436 LINE",
"310 -389 LINE",
"150 -365 LINE",
"200 -88 LINE",
"211 2 LINE",
"244.333 -8.667 OFFCURVE",
"318 -20 OFFCURVE",
"382 -20 CURVE SMOOTH",
"595.333 -20 OFFCURVE",
"784.667 105.5 OFFCURVE",
"886 307.5 CURVE SMOOTH",
"936.667 408.5 OFFCURVE",
"962 516.333 OFFCURVE",
"962 631 CURVE SMOOTH",
"962 837.667 OFFCURVE",
"850.667 965 OFFCURVE",
"680 965 CURVE SMOOTH",
"585.333 965 OFFCURVE",
"477 906 OFFCURVE",
"355 788 CURVE"
);
},
{
closed = 1;
nodes = (
"342 701 LINE",
"426 785 OFFCURVE",
"535 840 OFFCURVE",
"607 840 CURVE SMOOTH",
"716.333 840 OFFCURVE",
"783 751.667 OFFCURVE",
"783 605 CURVE SMOOTH",
"783 422.333 OFFCURVE",
"705.5 228.167 OFFCURVE",
"591.5 131.5 CURVE SMOOTH",
"534.5 83.167 OFFCURVE",
"470.333 59 OFFCURVE",
"399 59 CURVE SMOOTH",
"328.333 59 OFFCURVE",
"273 75 OFFCURVE",
"233 107 CURVE"
);
}
);
width = 1024;
}
);
note = thorn;
unicode = 00FE;
},
{
glyphname = minus;
lastChange = "2025-02-05 21:33:01 +0000";
layers = (
{
layerId = "10338F47-40ED-49C2-8613-307B859987A6";
paths = (
{
closed = 1;
nodes = (
"233 731 LINE",
"233 629 LINE",
"1186 629 LINE",
"1186 731 LINE"
);
}
);
width = 1382;
}
);
note = minus;
unicode = 2212;
},
{
glyphname = multiply;
lastChange = "2025-02-05 21:33:01 +0000";
layers = (
{
layerId = "10338F47-40ED-49C2-8613-307B859987A6";
paths = (
{
closed = 1;
nodes = (
"1054 264 LINE",
"1125 336 LINE",
"781 682 LINE",
"1125 1026 LINE",
"1054 1098 LINE",
"708 754 LINE",
"366 1098 LINE",
"292 1024 LINE",
"636 682 LINE",
"292 336 LINE",
"363 264 LINE",
"708 608 LINE"
);
}
);
width = 1382;
}
);
note = multiply;
unicode = 00D7;
},
{
glyphname = uni00B9;
lastChange = "2025-02-05 21:33:01 +0000";
layers = (
{
layerId = "10338F47-40ED-49C2-8613-307B859987A6";
paths = (
{
closed = 1;
nodes = (
"520 1346 LINE",
"448 1346 LINE",
"191 1212 LINE",
"183 1165 LINE",
"354 1223 LINE",
"244 598 LINE",
"77 584 LINE",
"69 535 LINE",
"543 535 LINE",
"552 584 LINE",
"388 598 LINE"
);
}
);
width = 614;
}
);
note = uni00B9;
unicode = 00B9;
},
{
glyphname = uni00B2;
lastChange = "2025-02-05 21:33:01 +0000";
layers = (
{
layerId = "10338F47-40ED-49C2-8613-307B859987A6";
paths = (
{
closed = 1;
nodes = (
"566 643 LINE",
"179 643 LINE",
"352 770 LINE SMOOTH",
"554.667 915.333 OFFCURVE",
"641 1031.667 OFFCURVE",
"641 1161 CURVE SMOOTH",
"641 1277 OFFCURVE",
"553.667 1350 OFFCURVE",
"399 1350 CURVE SMOOTH",
"345 1350 OFFCURVE",
"280.333 1341 OFFCURVE",
"205 1323 CURVE",
"174 1151 LINE",
"229 1151 LINE",
"267 1249 LINE",
"305.667 1271 OFFCURVE",
"345.667 1282 OFFCURVE",
"387 1282 CURVE SMOOTH",
"460.333 1282 OFFCURVE",
"498 1230.333 OFFCURVE",
"498 1161 CURVE SMOOTH",
"498 1051.667 OFFCURVE",
"449 956.667 OFFCURVE",
"349 858 CURVE SMOOTH",
"299 808.667 OFFCURVE",
"204 733 OFFCURVE",
"64 631 CURVE",
"49 535 LINE",
"547 535 LINE"
);
}
);
width = 614;
}
);
note = uni00B2;
unicode = 00B2;
},
{
glyphname = uni00B3;
lastChange = "2025-02-05 21:32:52 +0000";
layers = (
{
layerId = "10338F47-40ED-49C2-8613-307B859987A6";
paths = (
{
closed = 1;
nodes = (
"475 522 OFFCURVE",
"606 629.333 OFFCURVE",
"606 788 CURVE SMOOTH",
"606 881.333 OFFCURVE",
"539.667 941.333 OFFCURVE",
"413 956 CURVE",
"563.667 978.667 OFFCURVE",
"640 1056 OFFCURVE",
"640 1176 CURVE SMOOTH",
"640 1282.667 OFFCURVE",
"541.333 1350 OFFCURVE",
"388 1350 CURVE SMOOTH",
"330.667 1350 OFFCURVE",
"266.667 1341 OFFCURVE",
"196 1323 CURVE",
"165 1151 LINE",
"220 1151 LINE",
"258 1253 LINE",
"294 1272.333 OFFCURVE",
"333.667 1282 OFFCURVE",
"377 1282 CURVE SMOOTH",
"458.333 1282 OFFCURVE",
"499 1246 OFFCURVE",
"499 1174 CURVE SMOOTH",
"499 1051.333 OFFCURVE",
"436 997 OFFCURVE",
"340 993 CURVE SMOOTH",
"253 989 LINE",
"241 924 LINE",
"326 918 LINE SMOOTH",
"418.667 910.667 OFFCURVE",
"465 866 OFFCURVE",
"465 784 CURVE SMOOTH",
"465 650.667 OFFCURVE",
"396.333 590 OFFCURVE",
"259 590 CURVE SMOOTH",
"209.667 590 OFFCURVE",
"155.667 605.667 OFFCURVE",
"129 623 CURVE",
"122 735 LINE",
"67 735 LINE",
"41 549 LINE",
"111.667 531 OFFCURVE",
"184.333 522 OFFCURVE",
"259 522 CURVE SMOOTH"
);
}
);
width = 614;
}
);
note = uni00B3;
unicode = 00B3;
},
{
glyphname = franc;
lastChange = "2025-02-05 21:33:01 +0000";
layers = (
{
layerId = "10338F47-40ED-49C2-8613-307B859987A6";
paths = (
{
closed = 1;
nodes = (
"790 612 LINE",
"793 450 LINE",
"854 450 LINE",
"926 862 LINE",
"865 862 LINE",
"806 702 LINE",
"441 702 LINE",
"538 1251 LINE",
"651 1251 LINE SMOOTH",
"793 1251 OFFCURVE",
"900 1246.333 OFFCURVE",
"972 1237 CURVE",
"966 1020 LINE",
"1032 1020 LINE",
"1089 1341 LINE",
"189 1341 LINE",
"179 1288 LINE",
"347 1262 LINE",
"192 384 LINE",
"20 384 LINE",
"5 302 LINE",
"177 302 LINE",
"138 80 LINE",
"-24 53 LINE",
"-34 0 LINE",
"520 0 LINE",
"530 53 LINE",
"331 80 LINE",
"370 302 LINE",
"644 302 LINE",
"659 384 LINE",
"385 384 LINE",
"425 612 LINE"
);
}
);
width = 1024;
}
);
note = franc;
unicode = 20A3;
},
{
glyphname = uni0111;
lastChange = "2025-02-05 21:33:01 +0000";
layers = (
{
layerId = "10338F47-40ED-49C2-8613-307B859987A6";
paths = (
{
closed = 1;
nodes = (
"735.667 956.333 OFFCURVE",
"680.667 964 OFFCURVE",
"618 964 CURVE SMOOTH",
"414 964 OFFCURVE",
"233.5 839.167 OFFCURVE",
"135.5 638.5 CURVE SMOOTH",
"86.5 538.167 OFFCURVE",
"62 431 OFFCURVE",
"62 317 CURVE SMOOTH",
"62 113 OFFCURVE",
"165 -21 OFFCURVE",
"329 -21 CURVE SMOOTH",
"422.333 -21 OFFCURVE",
"525.333 38 OFFCURVE",
"638 156 CURVE",
"609 0 LINE",
"894 0 LINE",
"902 45 LINE",
"789 70 LINE",
"974 1112 LINE",
"1090 1112 LINE",
"1105 1196 LINE",
"989 1196 LINE",
"1029 1421 LINE",
"705 1421 LINE",
"697 1376 LINE",
"851 1352 LINE",
"823 1196 LINE",
"527 1196 LINE",
"512 1112 LINE",
"808 1112 LINE",
"808 1108 LINE",
"794 1023 LINE",
"783 941 LINE"
);
},
{
closed = 1;
nodes = (
"651 243 LINE",
"569.667 155 OFFCURVE",
"477.667 104 OFFCURVE",
"403 104 CURVE SMOOTH",
"303 104 OFFCURVE",
"240 196.333 OFFCURVE",
"240 339 CURVE SMOOTH",
"240 524.333 OFFCURVE",
"312.667 713.333 OFFCURVE",
"422 812 CURVE SMOOTH",
"476.667 861.333 OFFCURVE",
"535.333 886 OFFCURVE",
"598 886 CURVE SMOOTH",
"668.667 886 OFFCURVE",
"713.333 867.667 OFFCURVE",
"760 837 CURVE"
);
}
);
width = 1024;
}
);
note = uni0111;
unicode = 0111;
},
{
glyphname = uni00AF;
lastChange = "2025-02-05 21:33:01 +0000";
layers = (
{
layerId = "10338F47-40ED-49C2-8613-307B859987A6";
paths = (
{
closed = 1;
nodes = (
"1205 1546 LINE",
"146 1546 LINE",
"146 1452 LINE",
"1205 1452 LINE"
);
}
);
width = 1024;
}
);
note = uni00AF;
unicode = 00AF;
},
{
glyphname = Gamma;
lastChange = "2025-02-05 21:33:01 +0000";
layers = (
{
layerId = "10338F47-40ED-49C2-8613-307B859987A6";
paths = (
{
closed = 1;
nodes = (
"562 53 LINE",
"360 79 LINE",
"568 1255 LINE",
"822 1255 LINE SMOOTH",
"898 1255 OFFCURVE",
"1059.333 1244.333 OFFCURVE",
"1102 1235 CURVE",
"1115 956 LINE",
"1180 956 LINE",
"1230 1341 LINE",
"219 1341 LINE",
"209 1288 LINE",
"376 1261 LINE",
"167 79 LINE",
"-8 53 LINE",
"-17 0 LINE",
"553 0 LINE"
);
}
);
width = 1165;
}
);
note = Gamma;
unicode = 0393;
},
{
glyphname = Theta;
lastChange = "2025-02-05 21:33:01 +0000";
layers = (
{
layerId = "10338F47-40ED-49C2-8613-307B859987A6";
paths = (
{
closed = 1;
nodes = (
"937 610 LINE",
"940 468 LINE",
"1004 468 LINE",
"1085 880 LINE",
"1021 880 LINE",
"962 740 LINE",
"600 740 LINE",
"597 880 LINE",
"533 880 LINE",
"452 468 LINE",
"516 468 LINE",
"575 610 LINE"
);
},
{
closed = 1;
nodes = (
"1231 581.333 OFFCURVE",
"1114.167 299.5 OFFCURVE",
"945.5 165.5 CURVE SMOOTH",
"861.167 98.5 OFFCURVE",
"769.333 65 OFFCURVE",
"670 65 CURVE SMOOTH",
"448.667 65 OFFCURVE",
"303 239 OFFCURVE",
"303 503 CURVE SMOOTH",
"303 759 OFFCURVE",
"418.5 1039.167 OFFCURVE",
"584.5 1174.5 CURVE SMOOTH",
"667.5 1242.167 OFFCURVE",
"758.667 1276 OFFCURVE",
"858 1276 CURVE SMOOTH",
"1082 1276 OFFCURVE",
"1231 1098.667 OFFCURVE",
"1231 832 CURVE SMOOTH"
);
},
{
closed = 1;
nodes = (
"959 -20 OFFCURVE",
"1196.5 120.667 OFFCURVE",
"1330.5 386 CURVE SMOOTH",
"1397.5 518.667 OFFCURVE",
"1431 664 OFFCURVE",
"1431 822 CURVE SMOOTH",
"1431 1136.791 OFFCURVE",
"1200.305 1356 OFFCURVE",
"871 1356 CURVE SMOOTH",
"575 1356 OFFCURVE",
"336.333 1211.167 OFFCURVE",
"203 950.5 CURVE SMOOTH",
"136.333 820.167 OFFCURVE",
"103 674.667 OFFCURVE",
"103 514 CURVE SMOOTH",
"103 199.574 OFFCURVE",
"334.034 -20 OFFCURVE",
"663 -20 CURVE SMOOTH"
);
}
);
width = 1479;
}
);
note = Theta;
unicode = 0398;
},
{
glyphname = Phi;
lastChange = "2025-02-05 21:33:01 +0000";
layers = (
{
layerId = "10338F47-40ED-49C2-8613-307B859987A6";
paths = (
{
closed = 1;
nodes = (
"829 300 LINE",
"962 1059 LINE",
"995 1059 LINE SMOOTH",
"1197.667 1059 OFFCURVE",
"1306 943 OFFCURVE",
"1306 727 CURVE SMOOTH",
"1306 442.333 OFFCURVE",
"1176.667 300 OFFCURVE",
"918 300 CURVE SMOOTH"
);
},
{
closed = 1;
nodes = (
"780 1059 LINE",
"646 300 LINE",
"604 300 LINE SMOOTH",
"401.333 300 OFFCURVE",
"293 416 OFFCURVE",
"293 632 CURVE SMOOTH",
"293 916.667 OFFCURVE",
"422.333 1059 OFFCURVE",
"681 1059 CURVE SMOOTH"
);
},
{
closed = 1;
nodes = (
"608 80 LINE",
"430 53 LINE",
"421 0 LINE",
"947 0 LINE",
"956 53 LINE",
"790 80 LINE",
"814 222 LINE",
"928 222 LINE SMOOTH",
"1301.333 222 OFFCURVE",
"1506 402 OFFCURVE",
"1506 726 CURVE SMOOTH",
"1506 983.333 OFFCURVE",
"1337 1137 OFFCURVE",
"1033 1137 CURVE SMOOTH",
"977 1137 LINE",
"998 1262 LINE",
"1175 1288 LINE",
"1185 1341 LINE",
"659 1341 LINE",
"649 1288 LINE",
"816 1262 LINE",
"795 1137 LINE",
"671 1137 LINE SMOOTH",
"300.333 1137 OFFCURVE",
"101 960.333 OFFCURVE",
"101 635 CURVE SMOOTH",
"101 363 OFFCURVE",
"268.667 222 OFFCURVE",
"566 222 CURVE SMOOTH",
"632 222 LINE"
);
}
);
width = 1559;
}
);
note = Phi;
unicode = 03A6;
},
{
glyphname = alpha;
lastChange = "2025-02-05 21:33:01 +0000";
layers = (
{
layerId = "10338F47-40ED-49C2-8613-307B859987A6";
paths = (
{
closed = 1;
nodes = (
"894 60 LINE",
"856.667 148 OFFCURVE",
"833.667 265.667 OFFCURVE",
"823 471 CURVE",
"910.333 615.667 OFFCURVE",
"972.167 716 OFFCURVE",
"1008.5 772 CURVE SMOOTH",
"1044.833 828 OFFCURVE",
"1075.667 870.667 OFFCURVE",
"1101 900 CURVE",
"1109 940 LINE",
"952 940 LINE",
"825 704 LINE",
"811 674 LINE",
"810 703 LINE",
"784 878.333 OFFCURVE",
"694.667 966 OFFCURVE",
"542 966 CURVE SMOOTH",
"232.247 966 OFFCURVE",
"61 674.769 OFFCURVE",
"61 347 CURVE SMOOTH",
"61 120.333 OFFCURVE",
"168.667 -21 OFFCURVE",
"338 -21 CURVE SMOOTH",
"487.333 -21 OFFCURVE",
"584 51.667 OFFCURVE",
"692 253 CURVE",
"696 170.333 OFFCURVE",
"717.333 61.333 OFFCURVE",
"740 0 CURVE",
"953 0 LINE",
"961 45 LINE"
);
},
{
closed = 1;
nodes = (
"705 514 LINE",
"704 433 LINE",
"645.333 301.667 OFFCURVE",
"591 209.667 OFFCURVE",
"541 157 CURVE SMOOTH",
"491 104.333 OFFCURVE",
"438.333 78 OFFCURVE",
"383 78 CURVE SMOOTH",
"291 78 OFFCURVE",
"237 169.333 OFFCURVE",
"237 316 CURVE SMOOTH",
"237 478.667 OFFCURVE",
"292.667 713.333 OFFCURVE",
"382 812 CURVE SMOOTH",
"426.667 861.333 OFFCURVE",
"480.333 886 OFFCURVE",
"543 886 CURVE SMOOTH",
"653.667 886 OFFCURVE",
"705 793.333 OFFCURVE",
"705 572 CURVE SMOOTH"
);
}
);
width = 1075;
}
);
note = alpha;
unicode = 03B1;
},
{
glyphname = delta;
lastChange = "2025-02-05 21:32:52 +0000";
layers = (
{
layerId = "10338F47-40ED-49C2-8613-307B859987A6";
paths = (
{
closed = 1;
nodes = (
"605.333 -20 OFFCURVE",
"754.333 71 OFFCURVE",
"837 235 CURVE SMOOTH",
"878.333 317 OFFCURVE",
"899 405 OFFCURVE",
"899 499 CURVE SMOOTH",
"899 652.333 OFFCURVE",
"842.333 773 OFFCURVE",
"717 901 CURVE SMOOTH",
"641 976.333 OFFCURVE",
"591.167 1033.667 OFFCURVE",
"567.5 1073 CURVE SMOOTH",
"543.833 1112.333 OFFCURVE",
"532 1149.667 OFFCURVE",
"532 1185 CURVE SMOOTH",
"532 1295.667 OFFCURVE",
"611 1351 OFFCURVE",
"727 1351 CURVE SMOOTH",
"787 1351 OFFCURVE",
"844.667 1334.667 OFFCURVE",
"874 1304 CURVE",
"897 1195 LINE",
"944 1195 LINE",
"979 1393 LINE",
"892.333 1418.333 OFFCURVE",
"812.333 1431 OFFCURVE",
"739 1431 CURVE SMOOTH",
"509.667 1431 OFFCURVE",
"379 1335.667 OFFCURVE",
"379 1169 CURVE SMOOTH",
"379 1073.667 OFFCURVE",
"427.667 974 OFFCURVE",
"525 870 CURVE",
"214.333 775.333 OFFCURVE",
"60 589.333 OFFCURVE",
"60 340 CURVE SMOOTH",
"60 116 OFFCURVE",
"197.333 -20 OFFCURVE",
"420 -20 CURVE SMOOTH"
);
},
{
closed = 1;
nodes = (
"299.667 59 OFFCURVE",
"231 148 OFFCURVE",
"231 316 CURVE SMOOTH",
"231 550.667 OFFCURVE",
"360 748.667 OFFCURVE",
"576 818 CURVE",
"672 727.333 OFFCURVE",
"720 620.667 OFFCURVE",
"720 498 CURVE SMOOTH",
"720 342 OFFCURVE",
"666.667 183.833 OFFCURVE",
"580 112.5 CURVE SMOOTH",
"536.667 76.833 OFFCURVE",
"486.333 59 OFFCURVE",
"429 59 CURVE SMOOTH"
);
}
);
width = 952;
}
);
note = delta;
unicode = 03B4;
},
{
glyphname = epsilon;
lastChange = "2025-02-05 21:32:52 +0000";
layers = (
{
layerId = "10338F47-40ED-49C2-8613-307B859987A6";
paths = (
{
closed = 1;
nodes = (
"312.667 965 OFFCURVE",
"165 871 OFFCURVE",
"165 715 CURVE SMOOTH",
"165 625.667 OFFCURVE",
"221 549 OFFCURVE",
"309 513 CURVE",
"307 506 LINE",
"147 480.667 OFFCURVE",
"44 377.667 OFFCURVE",
"44 239 CURVE SMOOTH",
"44 75 OFFCURVE",
"155.667 -20 OFFCURVE",
"353 -20 CURVE SMOOTH",
"491 -20 OFFCURVE",
"615.667 30.667 OFFCURVE",
"727 132 CURVE",
"695 180 LINE",
"603.667 116 OFFCURVE",
"507 84 OFFCURVE",
"405 84 CURVE SMOOTH",
"289 84 OFFCURVE",
"220 142 OFFCURVE",
"220 254 CURVE SMOOTH",
"220 359.333 OFFCURVE",
"277 437 OFFCURVE",
"385 469 CURVE",
"493.667 460.333 OFFCURVE",
"559.333 456 OFFCURVE",
"582 456 CURVE SMOOTH",
"634 456 LINE",
"650 559 LINE",
"599 559 LINE SMOOTH",
"561 559 OFFCURVE",
"502 553 OFFCURVE",
"422 541 CURVE",
"375.333 558.333 OFFCURVE",
"332 624.333 OFFCURVE",
"332 695 CURVE SMOOTH",
"332 815 OFFCURVE",
"416 887 OFFCURVE",
"544 887 CURVE SMOOTH",
"604 887 OFFCURVE",
"665.333 868 OFFCURVE",
"692 848 CURVE",
"721 733 LINE",
"769 733 LINE",
"805 929 LINE",
"743.667 950.333 OFFCURVE",
"635.333 965 OFFCURVE",
"550 965 CURVE SMOOTH"
);
}
);
width = 807;
}
);
note = epsilon;
unicode = 03B5;
},
{
glyphname = sigma;
lastChange = "2025-02-05 21:33:01 +0000";
layers = (
{
layerId = "10338F47-40ED-49C2-8613-307B859987A6";
paths = (
{
closed = 1;
nodes = (
"310 59 OFFCURVE",
"236 172 OFFCURVE",
"236 368 CURVE SMOOTH",
"236 677.333 OFFCURVE",
"404 856 OFFCURVE",
"684 856 CURVE",
"718 775.333 OFFCURVE",
"735 679 OFFCURVE",
"735 567 CURVE SMOOTH",
"735 389.667 OFFCURVE",
"679.333 211.833 OFFCURVE",
"590 124.5 CURVE SMOOTH",
"545.333 80.833 OFFCURVE",
"494.667 59 OFFCURVE",
"438 59 CURVE SMOOTH"
);
},
{
closed = 1;
nodes = (
"1023 856 LINE",
"1075 1056 LINE",
"1018 1056 LINE",
"942 940 LINE",
"632 940 LINE SMOOTH",
"270.667 940 OFFCURVE",
"61 730.333 OFFCURVE",
"61 377 CURVE SMOOTH",
"61 134.333 OFFCURVE",
"204 -20 OFFCURVE",
"432 -20 CURVE SMOOTH",
"712.408 -20 OFFCURVE",
"912 207.142 OFFCURVE",
"912 523 CURVE SMOOTH",
"912 643.667 OFFCURVE",
"875 752.333 OFFCURVE",
"801 849 CURVE",
"802 856 LINE"
);
}
);
width = 1010;
}
);
note = sigma;
unicode = 03C3;
},
{
glyphname = tau;
lastChange = "2025-02-05 21:32:52 +0000";
layers = (
{
layerId = "10338F47-40ED-49C2-8613-307B859987A6";
paths = (
{
closed = 1;
nodes = (
"394 199.333 OFFCURVE",
"400 243.667 OFFCURVE",
"412 307 CURVE SMOOTH",
"509 856 LINE",
"780 856 LINE",
"795 940 LINE",
"103 940 LINE",
"45 728 LINE",
"102 728 LINE",
"172 856 LINE",
"343 856 LINE",
"273.667 465.333 OFFCURVE",
"237.167 256.833 OFFCURVE",
"233.5 230.5 CURVE SMOOTH",
"229.833 204.167 OFFCURVE",
"228 181.333 OFFCURVE",
"228 162 CURVE SMOOTH",
"228 47.333 OFFCURVE",
"285 -20 OFFCURVE",
"381 -20 CURVE SMOOTH",
"475.667 -20 OFFCURVE",
"544 20.667 OFFCURVE",
"608 74 CURVE",
"583 120 LINE",
"533.667 96 OFFCURVE",
"492.667 84 OFFCURVE",
"460 84 CURVE SMOOTH",
"416 84 OFFCURVE",
"394 114 OFFCURVE",
"394 174 CURVE SMOOTH"
);
}
);
width = 733;
}
);
note = tau;
unicode = 03C4;
},
{
glyphname = phi;
lastChange = "2025-02-05 21:32:52 +0000";
layers = (
{
layerId = "10338F47-40ED-49C2-8613-307B859987A6";
paths = (
{
closed = 1;
nodes = (
"666.333 966 OFFCURVE",
"584 874 OFFCURVE",
"548 670 CURVE SMOOTH",
"440 58 LINE",
"307.333 82.667 OFFCURVE",
"241 180.333 OFFCURVE",
"241 351 CURVE SMOOTH",
"241 527 OFFCURVE",
"288 694 OFFCURVE",
"364 790 CURVE SMOOTH",
"402 838 OFFCURVE",
"448 871.667 OFFCURVE",
"502 891 CURVE",
"484 954 LINE",
"318.667 931.333 OFFCURVE",
"184.667 825.667 OFFCURVE",
"114 659 CURVE SMOOTH",
"78.667 575.667 OFFCURVE",
"61 481 OFFCURVE",
"61 375 CURVE SMOOTH",
"61 135 OFFCURVE",
"193.667 2.667 OFFCURVE",
"427 -16 CURVE",
"353 -436 LINE",
"459 -436 LINE",
"533 -17 LINE",
"893 5.667 OFFCURVE",
"1077 227.333 OFFCURVE",
"1077 630 CURVE SMOOTH",
"1077 844.667 OFFCURVE",
"982.333 966 OFFCURVE",
"809 966 CURVE SMOOTH"
);
},
{
closed = 1;
nodes = (
"827.333 885 OFFCURVE",
"852.5 867.167 OFFCURVE",
"871.5 831.5 CURVE SMOOTH",
"890.5 795.833 OFFCURVE",
"900 740.667 OFFCURVE",
"900 666 CURVE SMOOTH",
"900 298 OFFCURVE",
"768.667 74.667 OFFCURVE",
"546 60 CURVE",
"654 670 LINE SMOOTH",
"679.333 818 OFFCURVE",
"722.667 885 OFFCURVE",
"796 885 CURVE SMOOTH"
);
}
);
width = 1133;
}
);
note = phi;
unicode = 03C6;
},
{
glyphname = uni207F;
lastChange = "2025-02-05 21:32:52 +0000";
layers = (
{
layerId = "10338F47-40ED-49C2-8613-307B859987A6";
paths = (
{
closed = 1;
nodes = (
"480 962.667 OFFCURVE",
"475.667 929.333 OFFCURVE",
"467 884 CURVE SMOOTH",
"406 535 LINE",
"631 535 LINE",
"639 580 LINE",
"560 594 LINE",
"599.333 818.667 OFFCURVE",
"620 938.833 OFFCURVE",
"622 954.5 CURVE SMOOTH",
"624 970.167 OFFCURVE",
"625 983.333 OFFCURVE",
"625 994 CURVE SMOOTH",
"625 1074 OFFCURVE",
"584.667 1114 OFFCURVE",
"504 1114 CURVE SMOOTH",
"432.667 1114 OFFCURVE",
"364.333 1070.667 OFFCURVE",
"299 984 CURVE",
"315 1100 LINE",
"104 1100 LINE",
"97 1055 LINE",
"167 1040 LINE",
"78 535 LINE",
"222 535 LINE",
"288 911 LINE",
"339.333 987 OFFCURVE",
"389.333 1025 OFFCURVE",
"438 1025 CURVE SMOOTH",
"466 1025 OFFCURVE",
"480 1011.333 OFFCURVE",
"480 984 CURVE SMOOTH"
);
}
);
width = 645;
}
);
note = uni207F;
unicode = 207F;
},
{
glyphname = peseta;
lastChange = "2025-02-05 21:33:01 +0000";
layers = (
{
layerId = "10338F47-40ED-49C2-8613-307B859987A6";
paths = (
{
closed = 1;
nodes = (
"425 616 LINE",
"537 1251 LINE",
"563 1251 LINE SMOOTH",
"757.667 1251 OFFCURVE",
"854 1163.667 OFFCURVE",
"854 973 CURVE SMOOTH",
"854 735 OFFCURVE",
"725.667 616 OFFCURVE",
"469 616 CURVE SMOOTH"
);
},
{
closed = 1;
nodes = (
"1142 -20 OFFCURVE",
"1240.333 8.333 OFFCURVE",
"1287 39 CURVE",
"1270 90 LINE",
"1234.667 79.333 OFFCURVE",
"1202.667 74 OFFCURVE",
"1174 74 CURVE SMOOTH",
"1130 74 OFFCURVE",
"1108 103 OFFCURVE",
"1108 161 CURVE",
"1112 205 LINE",
"1185 616 LINE",
"1350 616 LINE",
"1363 690 LINE",
"1198 690 LINE",
"1230 873 LINE",
"1167 873 LINE",
"1032 690 LINE",
"932 651 LINE",
"926 616 LINE",
"1019 616 LINE",
"945 197 LINE SMOOTH",
"941 171.667 OFFCURVE",
"939 148.667 OFFCURVE",
"939 128 CURVE SMOOTH",
"939 29.333 OFFCURVE",
"984 -20 OFFCURVE",
"1074 -20 CURVE SMOOTH"
);
},
{
closed = 1;
nodes = (
"1757 -20 OFFCURVE",
"1863 68 OFFCURVE",
"1863 224 CURVE SMOOTH",
"1863 306.667 OFFCURVE",
"1809.333 364.333 OFFCURVE",
"1700 411 CURVE SMOOTH",
"1633.333 439.667 OFFCURVE",
"1589.5 462.167 OFFCURVE",
"1568.5 478.5 CURVE SMOOTH",
"1547.5 494.833 OFFCURVE",
"1537 513.667 OFFCURVE",
"1537 535 CURVE SMOOTH",
"1537 597.667 OFFCURVE",
"1588.333 640 OFFCURVE",
"1663 640 CURVE SMOOTH",
"1720.333 640 OFFCURVE",
"1769.667 622.333 OFFCURVE",
"1791 593 CURVE",
"1813 484 LINE",
"1860 484 LINE",
"1895 679 LINE",
"1810.333 699.667 OFFCURVE",
"1737.333 710 OFFCURVE",
"1676 710 CURVE SMOOTH",
"1493.333 710 OFFCURVE",
"1381 631.333 OFFCURVE",
"1381 490 CURVE SMOOTH",
"1381 407.333 OFFCURVE",
"1435.667 351.667 OFFCURVE",
"1541 313 CURVE SMOOTH",
"1651.667 271.667 OFFCURVE",
"1700 234.333 OFFCURVE",
"1700 177 CURVE SMOOTH",
"1700 95.667 OFFCURVE",
"1649.333 49 OFFCURVE",
"1552 49 CURVE SMOOTH",
"1481.333 49 OFFCURVE",
"1427.667 79.667 OFFCURVE",
"1401 117 CURVE",
"1381 227 LINE",
"1336 227 LINE",
"1299 20 LINE",
"1343 1.333 OFFCURVE",
"1478.333 -20 OFFCURVE",
"1561 -20 CURVE SMOOTH"
);
},
{
closed = 1;
nodes = (
"488 526 LINE SMOOTH",
"850.667 526 OFFCURVE",
"1053 687.333 OFFCURVE",
"1053 986 CURVE SMOOTH",
"1053 1220.667 OFFCURVE",
"891 1341 OFFCURVE",
"603 1341 CURVE SMOOTH",
"217 1341 LINE",
"208 1288 LINE",
"355 1262 LINE",
"147 80 LINE",
"-16 53 LINE",
"-25 0 LINE",
"489 0 LINE",
"498 53 LINE",
"330 80 LINE",
"409 526 LINE"
);
}
);
width = 2027;
}
);
note = peseta;
unicode = 20A7;
},
{
glyphname = arrowleft;
lastChange = "2025-02-05 21:32:52 +0000";
layers = (
{
layerId = "10338F47-40ED-49C2-8613-307B859987A6";
paths = (
{
closed = 1;
nodes = (
"1630 427 LINE",
"1630 513 LINE",
"641 513 LINE",
"679 557.667 OFFCURVE",
"718.667 623.333 OFFCURVE",
"760 710 CURVE",
"688 710 LINE",
"603.333 610.667 OFFCURVE",
"513.333 536.667 OFFCURVE",
"418 488 CURVE",
"418 452 LINE",
"513.333 403.333 OFFCURVE",
"603.333 329.333 OFFCURVE",
"688 230 CURVE",
"760 230 LINE",
"718.667 316.667 OFFCURVE",
"679 382.333 OFFCURVE",
"641 427 CURVE"
);
}
);
width = 2048;
}
);
note = arrowleft;
unicode = 2190;
},
{
glyphname = arrowup;
lastChange = "2025-02-05 21:32:52 +0000";
layers = (
{
layerId = "10338F47-40ED-49C2-8613-307B859987A6";
paths = (
{
closed = 1;
nodes = (
"469 -61 LINE",
"555 -61 LINE",
"555 928 LINE",
"599.667 890 OFFCURVE",
"665.333 850.333 OFFCURVE",
"752 809 CURVE",
"752 881 LINE",
"652.667 965.667 OFFCURVE",
"578.667 1055.667 OFFCURVE",
"530 1151 CURVE",
"494 1151 LINE",
"445.333 1055.667 OFFCURVE",
"371.333 965.667 OFFCURVE",
"272 881 CURVE",
"272 809 LINE",
"358.667 850.333 OFFCURVE",
"424.333 890 OFFCURVE",
"469 928 CURVE"
);
}
);
width = 1024;
}
);
note = arrowup;
unicode = 2191;
},
{
glyphname = arrowright;
lastChange = "2025-02-05 21:32:52 +0000";
layers = (
{
layerId = "10338F47-40ED-49C2-8613-307B859987A6";
paths = (
{
closed = 1;
nodes = (
"418 513 LINE",
"418 427 LINE",
"1407 427 LINE",
"1369 382.333 OFFCURVE",
"1329.333 316.667 OFFCURVE",
"1288 230 CURVE",
"1360 230 LINE",
"1444.667 329.333 OFFCURVE",
"1534.667 403.333 OFFCURVE",
"1630 452 CURVE",
"1630 488 LINE",
"1534.667 536.667 OFFCURVE",
"1444.667 610.667 OFFCURVE",
"1360 710 CURVE",
"1288 710 LINE",
"1329.333 623.333 OFFCURVE",
"1369 557.667 OFFCURVE",
"1407 513 CURVE"
);
}
);
width = 2048;
}
);
note = arrowright;
unicode = 2192;
},
{
glyphname = arrowdown;
lastChange = "2025-02-05 21:32:52 +0000";
layers = (
{
layerId = "10338F47-40ED-49C2-8613-307B859987A6";
paths = (
{
closed = 1;
nodes = (
"555 1151 LINE",
"469 1151 LINE",
"469 162 LINE",
"424.333 200 OFFCURVE",
"358.667 239.667 OFFCURVE",
"272 281 CURVE",
"272 209 LINE",
"371.333 124.333 OFFCURVE",
"445.333 34.333 OFFCURVE",
"494 -61 CURVE",
"530 -61 LINE",
"578.667 34.333 OFFCURVE",
"652.667 124.333 OFFCURVE",
"752 209 CURVE",
"752 281 LINE",
"665.333 239.667 OFFCURVE",
"599.667 200 OFFCURVE",
"555 162 CURVE"
);
}
);
width = 1024;
}
);
note = arrowdown;
unicode = 2193;
},
{
glyphname = arrowboth;
lastChange = "2025-02-05 21:32:52 +0000";
layers = (
{
layerId = "10338F47-40ED-49C2-8613-307B859987A6";
paths = (
{
closed = 1;
nodes = (
"1407 427 LINE",
"1369 382.333 OFFCURVE",
"1329.333 316.667 OFFCURVE",
"1288 230 CURVE",
"1360 230 LINE",
"1444.667 329.333 OFFCURVE",
"1534.667 403.333 OFFCURVE",
"1630 452 CURVE",
"1630 488 LINE",
"1534.667 536.667 OFFCURVE",
"1444.667 610.667 OFFCURVE",
"1360 710 CURVE",
"1288 710 LINE",
"1329.333 623.333 OFFCURVE",
"1369 557.667 OFFCURVE",
"1407 513 CURVE",
"641 513 LINE",
"679 557.667 OFFCURVE",
"718.667 623.333 OFFCURVE",
"760 710 CURVE",
"688 710 LINE",
"603.333 610.667 OFFCURVE",
"513.333 536.667 OFFCURVE",
"418 488 CURVE",
"418 452 LINE",
"513.333 403.333 OFFCURVE",
"603.333 329.333 OFFCURVE",
"688 230 CURVE",
"760 230 LINE",
"718.667 316.667 OFFCURVE",
"679 382.333 OFFCURVE",
"641 427 CURVE"
);
}
);
width = 2048;
}
);
note = arrowboth;
unicode = 2194;
},
{
glyphname = arrowupdn;
lastChange = "2025-02-05 21:32:52 +0000";
layers = (
{
layerId = "10338F47-40ED-49C2-8613-307B859987A6";
paths = (
{
closed = 1;
nodes = (
"469 162 LINE",
"424.333 200 OFFCURVE",
"358.667 239.667 OFFCURVE",
"272 281 CURVE",
"272 209 LINE",
"371.333 124.333 OFFCURVE",
"445.333 34.333 OFFCURVE",
"494 -61 CURVE",
"530 -61 LINE",
"578.667 34.333 OFFCURVE",
"652.667 124.333 OFFCURVE",
"752 209 CURVE",
"752 281 LINE",
"665.333 239.667 OFFCURVE",
"599.667 200 OFFCURVE",
"555 162 CURVE",
"555 928 LINE",
"599.667 890 OFFCURVE",
"665.333 850.333 OFFCURVE",
"752 809 CURVE",
"752 881 LINE",
"652.667 965.667 OFFCURVE",
"578.667 1055.667 OFFCURVE",
"530 1151 CURVE",
"494 1151 LINE",
"445.333 1055.667 OFFCURVE",
"371.333 965.667 OFFCURVE",
"272 881 CURVE",
"272 809 LINE",
"358.667 850.333 OFFCURVE",
"424.333 890 OFFCURVE",
"469 928 CURVE"
);
}
);
width = 1024;
}
);
note = arrowupdn;
unicode = 2195;
},
{
glyphname = arrowupdnbse;
lastChange = "2025-02-05 21:33:01 +0000";
layers = (
{
layerId = "10338F47-40ED-49C2-8613-307B859987A6";
paths = (
{
closed = 1;
nodes = (
"272 -184 LINE",
"752 -184 LINE",
"752 -104 LINE",
"272 -104 LINE"
);
},
{
closed = 1;
nodes = (
"469 162 LINE",
"424.333 200 OFFCURVE",
"358.667 239.667 OFFCURVE",
"272 281 CURVE",
"272 209 LINE",
"371.333 124.333 OFFCURVE",
"445.333 34.333 OFFCURVE",
"494 -61 CURVE",
"530 -61 LINE",
"578.667 34.333 OFFCURVE",
"652.667 124.333 OFFCURVE",
"752 209 CURVE",
"752 281 LINE",
"665.333 239.667 OFFCURVE",
"599.667 200 OFFCURVE",
"555 162 CURVE",
"555 928 LINE",
"599.667 890 OFFCURVE",
"665.333 850.333 OFFCURVE",
"752 809 CURVE",
"752 881 LINE",
"652.667 965.667 OFFCURVE",
"578.667 1055.667 OFFCURVE",
"530 1151 CURVE",
"494 1151 LINE",
"445.333 1055.667 OFFCURVE",
"371.333 965.667 OFFCURVE",
"272 881 CURVE",
"272 809 LINE",
"358.667 850.333 OFFCURVE",
"424.333 890 OFFCURVE",
"469 928 CURVE"
);
}
);
width = 1024;
}
);
note = arrowupdnbse;
unicode = 21A8;
},
{
glyphname = orthogonal;
lastChange = "2025-02-05 21:33:01 +0000";
layers = (
{
layerId = "10338F47-40ED-49C2-8613-307B859987A6";
paths = (
{
closed = 1;
nodes = (
"408 0 LINE",
"1632 0 LINE",
"1632 94 LINE",
"502 94 LINE",
"502 1223 LINE",
"408 1223 LINE"
);
}
);
width = 2005;
}
);
note = orthogonal;
unicode = 221F;
},
{
glyphname = intersection;
lastChange = "2025-02-05 21:33:01 +0000";
layers = (
{
layerId = "10338F47-40ED-49C2-8613-307B859987A6";
paths = (
{
closed = 1;
nodes = (
"385 -2 LINE",
"385 510 LINE SMOOTH",
"385 768.667 OFFCURVE",
"523 930 OFFCURVE",
"739 930 CURVE SMOOTH",
"952.333 930 OFFCURVE",
"1095 765.333 OFFCURVE",
"1095 512 CURVE SMOOTH",
"1095 -2 LINE",
"1198 -2 LINE",
"1198 510 LINE SMOOTH",
"1198 707.333 OFFCURVE",
"1114.167 878 OFFCURVE",
"973.5 966 CURVE SMOOTH",
"903.167 1010 OFFCURVE",
"824.333 1032 OFFCURVE",
"737 1032 CURVE SMOOTH",
"563.667 1032 OFFCURVE",
"417.333 938.833 OFFCURVE",
"340 779.5 CURVE SMOOTH",
"301.333 699.833 OFFCURVE",
"282 610 OFFCURVE",
"282 510 CURVE SMOOTH",
"282 -2 LINE"
);
}
);
width = 1479;
}
);
note = intersection;
unicode = 2229;
},
{
glyphname = equivalence;
lastChange = "2025-02-05 21:33:01 +0000";
layers = (
{
layerId = "10338F47-40ED-49C2-8613-307B859987A6";
paths = (
{
closed = 1;
nodes = (
"233 436 LINE",
"233 334 LINE",
"1186 334 LINE",
"1186 436 LINE"
);
},
{
closed = 1;
nodes = (
"233 1026 LINE",
"233 924 LINE",
"1186 924 LINE",
"1186 1026 LINE"
);
},
{
closed = 1;
nodes = (
"233 731 LINE",
"233 629 LINE",
"1186 629 LINE",
"1186 731 LINE"
);
}
);
width = 1382;
}
);
note = equivalence;
unicode = 2261;
},
{
glyphname = house;
lastChange = "2025-02-05 21:33:01 +0000";
layers = (
{
layerId = "10338F47-40ED-49C2-8613-307B859987A6";
paths = (
{
closed = 1;
nodes = (
"1076 0 LINE",
"1076 635 LINE",
"615 1153 LINE",
"154 635 LINE",
"154 0 LINE"
);
},
{
closed = 1;
nodes = (
"234 600 LINE",
"615 1026 LINE",
"996 600 LINE",
"996 82 LINE",
"234 82 LINE"
);
}
);
width = 1229;
}
);
note = house;
unicode = 2302;
},
{
glyphname = revlogicalnot;
lastChange = "2025-02-05 21:33:01 +0000";
layers = (
{
layerId = "10338F47-40ED-49C2-8613-307B859987A6";
paths = (
{
closed = 1;
nodes = (
"1186 629 LINE",
"1186 731 LINE",
"233 731 LINE",
"233 203 LINE",
"336 203 LINE",
"336 629 LINE"
);
}
);
width = 1382;
}
);
note = revlogicalnot;
unicode = 2310;
},
{
glyphname = integraltp;
lastChange = "2025-02-05 21:33:01 +0000";
layers = (
{
layerId = "10338F47-40ED-49C2-8613-307B859987A6";
paths = (
{
closed = 1;
nodes = (
"693 1423 LINE SMOOTH",
"693 1493 OFFCURVE",
"695 1539.667 OFFCURVE",
"699 1563 CURVE SMOOTH",
"705 1589 OFFCURVE",
"720 1602 OFFCURVE",
"744 1602 CURVE SMOOTH",
"754.667 1602 OFFCURVE",
"771 1589 OFFCURVE",
"793 1563 CURVE SMOOTH",
"818.333 1535 OFFCURVE",
"836.333 1518.333 OFFCURVE",
"847 1513 CURVE",
"855.667 1506.333 OFFCURVE",
"870 1503 OFFCURVE",
"890 1503 CURVE SMOOTH",
"939.333 1503 OFFCURVE",
"978 1541.667 OFFCURVE",
"978 1595 CURVE SMOOTH",
"978 1659 OFFCURVE",
"924 1706 OFFCURVE",
"840 1706 CURVE SMOOTH",
"672 1706 OFFCURVE",
"546 1525.333 OFFCURVE",
"546 1264 CURVE SMOOTH",
"546 -614 LINE",
"693 -614 LINE"
);
}
);
width = 1237;
}
);
note = integraltp;
unicode = 2320;
},
{
glyphname = integralbt;
lastChange = "2025-02-05 21:33:01 +0000";
layers = (
{
layerId = "10338F47-40ED-49C2-8613-307B859987A6";
paths = (
{
closed = 1;
nodes = (
"546 -334 LINE SMOOTH",
"546 -418.667 OFFCURVE",
"542.167 -469.5 OFFCURVE",
"534.5 -486.5 CURVE SMOOTH",
"526.833 -503.5 OFFCURVE",
"513.333 -512 OFFCURVE",
"494 -512 CURVE SMOOTH",
"483.333 -512 OFFCURVE",
"467.667 -499.667 OFFCURVE",
"447 -475 CURVE SMOOTH",
"426.333 -447.667 OFFCURVE",
"412.667 -432.667 OFFCURVE",
"406 -430 CURVE",
"388.667 -419.333 OFFCURVE",
"369 -414 OFFCURVE",
"347 -414 CURVE SMOOTH",
"299 -414 OFFCURVE",
"261 -454 OFFCURVE",
"261 -506 CURVE SMOOTH",
"261 -568.667 OFFCURVE",
"319.333 -614 OFFCURVE",
"398 -614 CURVE SMOOTH",
"574 -614 OFFCURVE",
"693 -434 OFFCURVE",
"693 -174 CURVE SMOOTH",
"693 1706 LINE",
"546 1706 LINE"
);
}
);
width = 1237;
}
);
note = integralbt;
unicode = 2321;
},
{
glyphname = uni2500;
lastChange = "2025-02-05 21:33:01 +0000";
layers = (
{
layerId = "10338F47-40ED-49C2-8613-307B859987A6";
paths = (
{
closed = 1;
nodes = (
"1461 549 LINE",
"1461 694 LINE",
"-10 694 LINE",
"-10 549 LINE"
);
}
);
width = 1451;
}
);
note = uni2500;
unicode = 2500;
},
{
glyphname = uni2502;
lastChange = "2025-02-05 21:33:01 +0000";
layers = (
{
layerId = "10338F47-40ED-49C2-8613-307B859987A6";
paths = (
{
closed = 1;
nodes = (
"448 -621 LINE",
"593 -621 LINE",
"593 1864 LINE",
"448 1864 LINE"
);
}
);
width = 1261;
}
);
note = uni2502;
unicode = 2502;
},
{
glyphname = uni250C;
lastChange = "2025-02-05 21:33:01 +0000";
layers = (
{
layerId = "10338F47-40ED-49C2-8613-307B859987A6";
paths = (
{
closed = 1;
nodes = (
"653 -621 LINE",
"798 -621 LINE",
"798 549 LINE",
"1461 549 LINE",
"1461 694 LINE",
"653 694 LINE"
);
}
);
width = 1451;
}
);
note = uni250C;
unicode = 250C;
},
{
glyphname = uni2510;
lastChange = "2025-02-05 21:33:01 +0000";
layers = (
{
layerId = "10338F47-40ED-49C2-8613-307B859987A6";
paths = (
{
closed = 1;
nodes = (
"653 549 LINE",
"653 -621 LINE",
"798 -621 LINE",
"798 694 LINE",
"-10 694 LINE",
"-10 549 LINE"
);
}
);
width = 1451;
}
);
note = uni2510;
unicode = 2510;
},
{
glyphname = uni2514;
lastChange = "2025-02-05 21:33:01 +0000";
layers = (
{
layerId = "10338F47-40ED-49C2-8613-307B859987A6";
paths = (
{
closed = 1;
nodes = (
"653 549 LINE",
"1461 549 LINE",
"1461 694 LINE",
"798 694 LINE",
"798 1864 LINE",
"653 1864 LINE"
);
}
);
width = 1451;
}
);
note = uni2514;
unicode = 2514;
},
{
glyphname = uni2518;
lastChange = "2025-02-05 21:33:01 +0000";
layers = (
{
layerId = "10338F47-40ED-49C2-8613-307B859987A6";
paths = (
{
closed = 1;
nodes = (
"798 549 LINE",
"798 1864 LINE",
"653 1864 LINE",
"653 694 LINE",
"-10 694 LINE",
"-10 549 LINE"
);
}
);
width = 1451;
}
);
note = uni2518;
unicode = 2518;
},
{
glyphname = uni251C;
lastChange = "2025-02-05 21:33:01 +0000";
layers = (
{
layerId = "10338F47-40ED-49C2-8613-307B859987A6";
paths = (
{
closed = 1;
nodes = (
"653 -621 LINE",
"798 -621 LINE",
"798 549 LINE",
"1461 549 LINE",
"1461 694 LINE",
"798 694 LINE",
"798 1864 LINE",
"653 1864 LINE"
);
}
);
width = 1451;
}
);
note = uni251C;
unicode = 251C;
},
{
glyphname = uni2524;
lastChange = "2025-02-05 21:33:01 +0000";
layers = (
{
layerId = "10338F47-40ED-49C2-8613-307B859987A6";
paths = (
{
closed = 1;
nodes = (
"653 549 LINE",
"653 -621 LINE",
"798 -621 LINE",
"798 1864 LINE",
"653 1864 LINE",
"653 694 LINE",
"-10 694 LINE",
"-10 549 LINE"
);
}
);
width = 1451;
}
);
note = uni2524;
unicode = 2524;
},
{
glyphname = uni252C;
lastChange = "2025-02-05 21:33:01 +0000";
layers = (
{
layerId = "10338F47-40ED-49C2-8613-307B859987A6";
paths = (
{
closed = 1;
nodes = (
"653 549 LINE",
"653 -621 LINE",
"798 -621 LINE",
"798 549 LINE",
"1461 549 LINE",
"1461 694 LINE",
"-10 694 LINE",
"-10 549 LINE"
);
}
);
width = 1451;
}
);
note = uni252C;
unicode = 252C;
},
{
glyphname = uni2534;
lastChange = "2025-02-05 21:33:01 +0000";
layers = (
{
layerId = "10338F47-40ED-49C2-8613-307B859987A6";
paths = (
{
closed = 1;
nodes = (
"1461 549 LINE",
"1461 694 LINE",
"798 694 LINE",
"798 1864 LINE",
"653 1864 LINE",
"653 694 LINE",
"-10 694 LINE",
"-10 549 LINE"
);
}
);
width = 1451;
}
);
note = uni2534;
unicode = 2534;
},
{
glyphname = uni253C;
lastChange = "2025-02-05 21:33:01 +0000";
layers = (
{
layerId = "10338F47-40ED-49C2-8613-307B859987A6";
paths = (
{
closed = 1;
nodes = (
"653 549 LINE",
"653 -621 LINE",
"798 -621 LINE",
"798 549 LINE",
"1461 549 LINE",
"1461 694 LINE",
"798 694 LINE",
"798 1864 LINE",
"653 1864 LINE",
"653 694 LINE",
"-10 694 LINE",
"-10 549 LINE"
);
}
);
width = 1451;
}
);
note = uni253C;
unicode = 253C;
},
{
glyphname = uni2550;
lastChange = "2025-02-05 21:33:01 +0000";
layers = (
{
layerId = "10338F47-40ED-49C2-8613-307B859987A6";
paths = (
{
closed = 1;
nodes = (
"1461 729 LINE",
"1461 874 LINE",
"-10 874 LINE",
"-10 729 LINE"
);
},
{
closed = 1;
nodes = (
"1461 369 LINE",
"1461 514 LINE",
"-10 514 LINE",
"-10 369 LINE"
);
}
);
width = 1451;
}
);
note = uni2550;
unicode = 2550;
},
{
glyphname = uni2551;
lastChange = "2025-02-05 21:33:01 +0000";
layers = (
{
layerId = "10338F47-40ED-49C2-8613-307B859987A6";
paths = (
{
closed = 1;
nodes = (
"473 -621 LINE",
"618 -621 LINE",
"618 1864 LINE",
"473 1864 LINE"
);
},
{
closed = 1;
nodes = (
"833 -621 LINE",
"978 -621 LINE",
"978 1864 LINE",
"833 1864 LINE"
);
}
);
width = 1451;
}
);
note = uni2551;
unicode = 2551;
},
{
glyphname = uni2552;
lastChange = "2025-02-05 21:33:01 +0000";
layers = (
{
layerId = "10338F47-40ED-49C2-8613-307B859987A6";
paths = (
{
closed = 1;
nodes = (
"653 -621 LINE",
"798 -621 LINE",
"798 369 LINE",
"1461 369 LINE",
"1461 514 LINE",
"798 514 LINE",
"798 729 LINE",
"1461 729 LINE",
"1461 874 LINE",
"653 874 LINE"
);
}
);
width = 1451;
}
);
note = uni2552;
unicode = 2552;
},
{
glyphname = uni2553;
lastChange = "2025-02-05 21:33:01 +0000";
layers = (
{
layerId = "10338F47-40ED-49C2-8613-307B859987A6";
paths = (
{
closed = 1;
nodes = (
"473 694 LINE",
"473 -621 LINE",
"618 -621 LINE",
"618 549 LINE",
"833 549 LINE",
"833 -621 LINE",
"978 -621 LINE",
"978 549 LINE",
"1461 549 LINE",
"1461 694 LINE"
);
}
);
width = 1451;
}
);
note = uni2553;
unicode = 2553;
},
{
glyphname = uni2554;
lastChange = "2025-02-05 21:33:01 +0000";
layers = (
{
layerId = "10338F47-40ED-49C2-8613-307B859987A6";
paths = (
{
closed = 1;
nodes = (
"473 -621 LINE",
"618 -621 LINE",
"618 729 LINE",
"1461 729 LINE",
"1461 874 LINE",
"473 874 LINE"
);
},
{
closed = 1;
nodes = (
"833 -621 LINE",
"978 -621 LINE",
"978 369 LINE",
"1461 369 LINE",
"1461 514 LINE",
"833 514 LINE"
);
}
);
width = 1451;
}
);
note = uni2554;
unicode = 2554;
},
{
glyphname = uni2555;
lastChange = "2025-02-05 21:33:01 +0000";
layers = (
{
layerId = "10338F47-40ED-49C2-8613-307B859987A6";
paths = (
{
closed = 1;
nodes = (
"653 369 LINE",
"653 -621 LINE",
"798 -621 LINE",
"798 874 LINE",
"-10 874 LINE",
"-10 729 LINE",
"653 729 LINE",
"653 514 LINE",
"-10 514 LINE",
"-10 369 LINE"
);
}
);
width = 1451;
}
);
note = uni2555;
unicode = 2555;
},
{
glyphname = uni2556;
lastChange = "2025-02-05 21:33:01 +0000";
layers = (
{
layerId = "10338F47-40ED-49C2-8613-307B859987A6";
paths = (
{
closed = 1;
nodes = (
"473 549 LINE",
"473 -621 LINE",
"618 -621 LINE",
"618 549 LINE",
"833 549 LINE",
"833 -621 LINE",
"978 -621 LINE",
"978 694 LINE",
"-10 694 LINE",
"-10 549 LINE"
);
}
);
width = 1451;
}
);
note = uni2556;
unicode = 2556;
},
{
glyphname = uni2557;
lastChange = "2025-02-05 21:33:01 +0000";
layers = (
{
layerId = "10338F47-40ED-49C2-8613-307B859987A6";
paths = (
{
closed = 1;
nodes = (
"-10 874 LINE",
"-10 729 LINE",
"833 729 LINE",
"833 -621 LINE",
"978 -621 LINE",
"978 874 LINE"
);
},
{
closed = 1;
nodes = (
"618 514 LINE",
"-10 514 LINE",
"-10 369 LINE",
"473 369 LINE",
"473 -621 LINE",
"618 -621 LINE"
);
}
);
width = 1451;
}
);
note = uni2557;
unicode = 2557;
},
{
glyphname = uni2558;
lastChange = "2025-02-05 21:33:01 +0000";
layers = (
{
layerId = "10338F47-40ED-49C2-8613-307B859987A6";
paths = (
{
closed = 1;
nodes = (
"653 369 LINE",
"1461 369 LINE",
"1461 514 LINE",
"798 514 LINE",
"798 729 LINE",
"1461 729 LINE",
"1461 874 LINE",
"798 874 LINE",
"798 1864 LINE",
"653 1864 LINE"
);
}
);
width = 1451;
}
);
note = uni2558;
unicode = 2558;
},
{
glyphname = uni2559;
lastChange = "2025-02-05 21:33:01 +0000";
layers = (
{
layerId = "10338F47-40ED-49C2-8613-307B859987A6";
paths = (
{
closed = 1;
nodes = (
"833 694 LINE",
"618 694 LINE",
"618 1864 LINE",
"473 1864 LINE",
"473 549 LINE",
"1461 549 LINE",
"1461 694 LINE",
"978 694 LINE",
"978 1864 LINE",
"833 1864 LINE"
);
}
);
width = 1451;
}
);
note = uni2559;
unicode = 2559;
},
{
glyphname = uni255A;
lastChange = "2025-02-05 21:33:01 +0000";
layers = (
{
layerId = "10338F47-40ED-49C2-8613-307B859987A6";
paths = (
{
closed = 1;
nodes = (
"473 369 LINE",
"1461 369 LINE",
"1461 514 LINE",
"618 514 LINE",
"618 1864 LINE",
"473 1864 LINE"
);
},
{
closed = 1;
nodes = (
"833 729 LINE",
"1461 729 LINE",
"1461 874 LINE",
"978 874 LINE",
"978 1864 LINE",
"833 1864 LINE"
);
}
);
width = 1451;
}
);
note = uni255A;
unicode = 255A;
},
{
glyphname = uni255B;
lastChange = "2025-02-05 21:33:01 +0000";
layers = (
{
layerId = "10338F47-40ED-49C2-8613-307B859987A6";
paths = (
{
closed = 1;
nodes = (
"798 369 LINE",
"798 1864 LINE",
"653 1864 LINE",
"653 874 LINE",
"-10 874 LINE",
"-10 729 LINE",
"653 729 LINE",
"653 514 LINE",
"-10 514 LINE",
"-10 369 LINE"
);
}
);
width = 1451;
}
);
note = uni255B;
unicode = 255B;
},
{
glyphname = uni255C;
lastChange = "2025-02-05 21:33:01 +0000";
layers = (
{
layerId = "10338F47-40ED-49C2-8613-307B859987A6";
paths = (
{
closed = 1;
nodes = (
"978 1864 LINE",
"833 1864 LINE",
"833 694 LINE",
"618 694 LINE",
"618 1864 LINE",
"473 1864 LINE",
"473 694 LINE",
"-10 694 LINE",
"-10 549 LINE",
"978 549 LINE"
);
}
);
width = 1451;
}
);
note = uni255C;
unicode = 255C;
},
{
glyphname = uni255D;
lastChange = "2025-02-05 21:33:01 +0000";
layers = (
{
layerId = "10338F47-40ED-49C2-8613-307B859987A6";
paths = (
{
closed = 1;
nodes = (
"978 1864 LINE",
"833 1864 LINE",
"833 514 LINE",
"-10 514 LINE",
"-10 369 LINE",
"978 369 LINE"
);
},
{
closed = 1;
nodes = (
"473 874 LINE",
"-10 874 LINE",
"-10 729 LINE",
"618 729 LINE",
"618 1864 LINE",
"473 1864 LINE"
);
}
);
width = 1451;
}
);
note = uni255D;
unicode = 255D;
},
{
glyphname = uni255E;
lastChange = "2025-02-05 21:33:01 +0000";
layers = (
{
layerId = "10338F47-40ED-49C2-8613-307B859987A6";
paths = (
{
closed = 1;
nodes = (
"653 -621 LINE",
"798 -621 LINE",
"798 369 LINE",
"1461 369 LINE",
"1461 514 LINE",
"798 514 LINE",
"798 729 LINE",
"1461 729 LINE",
"1461 874 LINE",
"798 874 LINE",
"798 1864 LINE",
"653 1864 LINE"
);
}
);
width = 1451;
}
);
note = uni255E;
unicode = 255E;
},
{
glyphname = uni255F;
lastChange = "2025-02-05 21:33:01 +0000";
layers = (
{
layerId = "10338F47-40ED-49C2-8613-307B859987A6";
paths = (
{
closed = 1;
nodes = (
"833 -621 LINE",
"978 -621 LINE",
"978 549 LINE",
"1461 549 LINE",
"1461 694 LINE",
"978 694 LINE",
"978 1864 LINE",
"833 1864 LINE"
);
},
{
closed = 1;
nodes = (
"473 -621 LINE",
"618 -621 LINE",
"618 1864 LINE",
"473 1864 LINE"
);
}
);
width = 1451;
}
);
note = uni255F;
unicode = 255F;
},
{
glyphname = uni2560;
lastChange = "2025-02-05 21:33:01 +0000";
layers = (
{
layerId = "10338F47-40ED-49C2-8613-307B859987A6";
paths = (
{
closed = 1;
nodes = (
"618 1864 LINE",
"473 1864 LINE",
"473 -621 LINE",
"618 -621 LINE"
);
},
{
closed = 1;
nodes = (
"833 -621 LINE",
"978 -621 LINE",
"978 369 LINE",
"1461 369 LINE",
"1461 514 LINE",
"833 514 LINE"
);
},
{
closed = 1;
nodes = (
"833 729 LINE",
"1461 729 LINE",
"1461 874 LINE",
"978 874 LINE",
"978 1864 LINE",
"833 1864 LINE"
);
}
);
width = 1451;
}
);
note = uni2560;
unicode = 2560;
},
{
glyphname = uni2561;
lastChange = "2025-02-05 21:33:01 +0000";
layers = (
{
layerId = "10338F47-40ED-49C2-8613-307B859987A6";
paths = (
{
closed = 1;
nodes = (
"653 369 LINE",
"653 -621 LINE",
"798 -621 LINE",
"798 1864 LINE",
"653 1864 LINE",
"653 874 LINE",
"-10 874 LINE",
"-10 729 LINE",
"653 729 LINE",
"653 514 LINE",
"-10 514 LINE",
"-10 369 LINE"
);
}
);
width = 1451;
}
);
note = uni2561;
unicode = 2561;
},
{
glyphname = uni2562;
lastChange = "2025-02-05 21:33:01 +0000";
layers = (
{
layerId = "10338F47-40ED-49C2-8613-307B859987A6";
paths = (
{
closed = 1;
nodes = (
"473 549 LINE",
"473 -621 LINE",
"618 -621 LINE",
"618 1864 LINE",
"473 1864 LINE",
"473 694 LINE",
"-10 694 LINE",
"-10 549 LINE"
);
},
{
closed = 1;
nodes = (
"833 -621 LINE",
"978 -621 LINE",
"978 1864 LINE",
"833 1864 LINE"
);
}
);
width = 1451;
}
);
note = uni2562;
unicode = 2562;
},
{
glyphname = uni2563;
lastChange = "2025-02-05 21:33:01 +0000";
layers = (
{
layerId = "10338F47-40ED-49C2-8613-307B859987A6";
paths = (
{
closed = 1;
nodes = (
"833 -621 LINE",
"978 -621 LINE",
"978 1864 LINE",
"833 1864 LINE"
);
},
{
closed = 1;
nodes = (
"473 874 LINE",
"-10 874 LINE",
"-10 729 LINE",
"618 729 LINE",
"618 1864 LINE",
"473 1864 LINE"
);
},
{
closed = 1;
nodes = (
"618 514 LINE",
"-10 514 LINE",
"-10 369 LINE",
"473 369 LINE",
"473 -621 LINE",
"618 -621 LINE"
);
}
);
width = 1451;
}
);
note = uni2563;
unicode = 2563;
},
{
glyphname = uni2564;
lastChange = "2025-02-05 21:33:01 +0000";
layers = (
{
layerId = "10338F47-40ED-49C2-8613-307B859987A6";
paths = (
{
closed = 1;
nodes = (
"653 369 LINE",
"653 -621 LINE",
"798 -621 LINE",
"798 369 LINE",
"1461 369 LINE",
"1461 514 LINE",
"-10 514 LINE",
"-10 369 LINE"
);
},
{
closed = 1;
nodes = (
"1461 729 LINE",
"1461 874 LINE",
"-10 874 LINE",
"-10 729 LINE"
);
}
);
width = 1451;
}
);
note = uni2564;
unicode = 2564;
},
{
glyphname = uni2565;
lastChange = "2025-02-05 21:33:01 +0000";
layers = (
{
layerId = "10338F47-40ED-49C2-8613-307B859987A6";
paths = (
{
closed = 1;
nodes = (
"473 549 LINE",
"473 -621 LINE",
"618 -621 LINE",
"618 549 LINE",
"833 549 LINE",
"833 -621 LINE",
"978 -621 LINE",
"978 549 LINE",
"1461 549 LINE",
"1461 694 LINE",
"-10 694 LINE",
"-10 549 LINE"
);
}
);
width = 1451;
}
);
note = uni2565;
unicode = 2565;
},
{
glyphname = uni2566;
lastChange = "2025-02-05 21:33:01 +0000";
layers = (
{
layerId = "10338F47-40ED-49C2-8613-307B859987A6";
paths = (
{
closed = 1;
nodes = (
"618 514 LINE",
"-10 514 LINE",
"-10 369 LINE",
"473 369 LINE",
"473 -621 LINE",
"618 -621 LINE"
);
},
{
closed = 1;
nodes = (
"833 -621 LINE",
"978 -621 LINE",
"978 369 LINE",
"1461 369 LINE",
"1461 514 LINE",
"833 514 LINE"
);
},
{
closed = 1;
nodes = (
"-10 874 LINE",
"-10 729 LINE",
"1461 729 LINE",
"1461 874 LINE"
);
}
);
width = 1451;
}
);
note = uni2566;
unicode = 2566;
},
{
glyphname = uni2567;
lastChange = "2025-02-05 21:33:01 +0000";
layers = (
{
layerId = "10338F47-40ED-49C2-8613-307B859987A6";
paths = (
{
closed = 1;
nodes = (
"1461 729 LINE",
"1461 874 LINE",
"798 874 LINE",
"798 1864 LINE",
"653 1864 LINE",
"653 874 LINE",
"-10 874 LINE",
"-10 729 LINE"
);
},
{
closed = 1;
nodes = (
"1461 369 LINE",
"1461 514 LINE",
"-10 514 LINE",
"-10 369 LINE"
);
}
);
width = 1451;
}
);
note = uni2567;
unicode = 2567;
},
{
glyphname = uni2568;
lastChange = "2025-02-05 21:33:01 +0000";
layers = (
{
layerId = "10338F47-40ED-49C2-8613-307B859987A6";
paths = (
{
closed = 1;
nodes = (
"1461 549 LINE",
"1461 694 LINE",
"978 694 LINE",
"978 1864 LINE",
"833 1864 LINE",
"833 694 LINE",
"618 694 LINE",
"618 1864 LINE",
"473 1864 LINE",
"473 694 LINE",
"-10 694 LINE",
"-10 549 LINE"
);
}
);
width = 1451;
}
);
note = uni2568;
unicode = 2568;
},
{
glyphname = uni2569;
lastChange = "2025-02-05 21:33:01 +0000";
layers = (
{
layerId = "10338F47-40ED-49C2-8613-307B859987A6";
paths = (
{
closed = 1;
nodes = (
"833 729 LINE",
"1461 729 LINE",
"1461 874 LINE",
"978 874 LINE",
"978 1864 LINE",
"833 1864 LINE"
);
},
{
closed = 1;
nodes = (
"473 874 LINE",
"-10 874 LINE",
"-10 729 LINE",
"618 729 LINE",
"618 1864 LINE",
"473 1864 LINE"
);
},
{
closed = 1;
nodes = (
"1461 369 LINE",
"1461 514 LINE",
"-10 514 LINE",
"-10 369 LINE"
);
}
);
width = 1451;
}
);
note = uni2569;
unicode = 2569;
},
{
glyphname = uni256A;
lastChange = "2025-02-05 21:33:01 +0000";
layers = (
{
layerId = "10338F47-40ED-49C2-8613-307B859987A6";
paths = (
{
closed = 1;
nodes = (
"653 369 LINE",
"653 -621 LINE",
"798 -621 LINE",
"798 369 LINE",
"1461 369 LINE",
"1461 514 LINE",
"798 514 LINE",
"798 729 LINE",
"1461 729 LINE",
"1461 874 LINE",
"798 874 LINE",
"798 1864 LINE",
"653 1864 LINE",
"653 874 LINE",
"-10 874 LINE",
"-10 729 LINE",
"653 729 LINE",
"653 514 LINE",
"-10 514 LINE",
"-10 369 LINE"
);
}
);
width = 1451;
}
);
note = uni256A;
unicode = 256A;
},
{
glyphname = uni256B;
lastChange = "2025-02-05 21:33:01 +0000";
layers = (
{
layerId = "10338F47-40ED-49C2-8613-307B859987A6";
paths = (
{
closed = 1;
nodes = (
"833 694 LINE",
"618 694 LINE",
"618 1864 LINE",
"473 1864 LINE",
"473 694 LINE",
"-10 694 LINE",
"-10 549 LINE",
"473 549 LINE",
"473 -621 LINE",
"618 -621 LINE",
"618 549 LINE",
"833 549 LINE",
"833 -621 LINE",
"978 -621 LINE",
"978 549 LINE",
"1461 549 LINE",
"1461 694 LINE",
"978 694 LINE",
"978 1864 LINE",
"833 1864 LINE"
);
}
);
width = 1451;
}
);
note = uni256B;
unicode = 256B;
},
{
glyphname = uni256C;
lastChange = "2025-02-05 21:33:01 +0000";
layers = (
{
layerId = "10338F47-40ED-49C2-8613-307B859987A6";
paths = (
{
closed = 1;
nodes = (
"833 729 LINE",
"1461 729 LINE",
"1461 874 LINE",
"978 874 LINE",
"978 1864 LINE",
"833 1864 LINE"
);
},
{
closed = 1;
nodes = (
"618 514 LINE",
"-10 514 LINE",
"-10 369 LINE",
"473 369 LINE",
"473 -621 LINE",
"618 -621 LINE"
);
},
{
closed = 1;
nodes = (
"833 -621 LINE",
"978 -621 LINE",
"978 369 LINE",
"1461 369 LINE",
"1461 514 LINE",
"833 514 LINE"
);
},
{
closed = 1;
nodes = (
"473 874 LINE",
"-10 874 LINE",
"-10 729 LINE",
"618 729 LINE",
"618 1864 LINE",
"473 1864 LINE"
);
}
);
width = 1451;
}
);
note = uni256C;
unicode = 256C;
},
{
glyphname = upblock;
lastChange = "2025-02-05 21:33:01 +0000";
layers = (
{
layerId = "10338F47-40ED-49C2-8613-307B859987A6";
paths = (
{
closed = 1;
nodes = (
"1451 1864 LINE",
"0 1864 LINE",
"0 621 LINE",
"1451 621 LINE"
);
}
);
width = 1451;
}
);
note = upblock;
unicode = 2580;
},
{
glyphname = dnblock;
lastChange = "2025-02-05 21:33:01 +0000";
layers = (
{
layerId = "10338F47-40ED-49C2-8613-307B859987A6";
paths = (
{
closed = 1;
nodes = (
"1451 621 LINE",
"0 621 LINE",
"0 -621 LINE",
"1451 -621 LINE"
);
}
);
width = 1451;
}
);
note = dnblock;
unicode = 2584;
},
{
glyphname = block;
lastChange = "2025-02-05 21:33:01 +0000";
layers = (
{
layerId = "10338F47-40ED-49C2-8613-307B859987A6";
paths = (
{
closed = 1;
nodes = (
"1451 1864 LINE",
"0 1864 LINE",
"0 -621 LINE",
"1451 -621 LINE"
);
}
);
width = 1451;
}
);
note = block;
unicode = 2588;
},
{
glyphname = lfblock;
lastChange = "2025-02-05 21:33:01 +0000";
layers = (
{
layerId = "10338F47-40ED-49C2-8613-307B859987A6";
paths = (
{
closed = 1;
nodes = (
"726 1864 LINE",
"0 1864 LINE",
"0 -621 LINE",
"726 -621 LINE"
);
}
);
width = 1451;
}
);
note = lfblock;
unicode = 258C;
},
{
glyphname = rtblock;
lastChange = "2025-02-05 21:33:01 +0000";
layers = (
{
layerId = "10338F47-40ED-49C2-8613-307B859987A6";
paths = (
{
closed = 1;
nodes = (
"1451 1864 LINE",
"725 1864 LINE",
"725 -621 LINE",
"1451 -621 LINE"
);
}
);
width = 1451;
}
);
note = rtblock;
unicode = 2590;
},
